{
	"asset":{
		"version":"2.0",
		"generator":"Maxon Cinema 4D TRIAL 2026.0.0 (#200000219)"
	},
	"nodes":[{
		"name":"Extrude",
		"children":[17]
	},
	{
		"translation":[0.0,
		-0.009788895025849343,
		0.0],
		"name":"Extrude.1",
		"rotation":[0.0,
		0.0,
		0.0,
		-1.0],
		"scale":[1.0,
		1.0,
		1.0],
		"children":[18]
	},
	{
		"translation":[0.0,
		-0.009788895025849343,
		0.0],
		"name":"Extrude.2",
		"rotation":[0.0,
		0.0,
		0.0,
		-1.0],
		"scale":[1.0,
		1.0,
		1.0],
		"children":[19]
	},
	{
		"translation":[0.0,
		-0.009788895025849343,
		0.0],
		"name":"Extrude.3",
		"rotation":[0.0,
		0.0,
		0.0,
		-1.0],
		"scale":[1.0,
		1.0,
		1.0],
		"children":[20]
	},
	{
		"translation":[0.0,
		-0.009788895025849343,
		0.0],
		"name":"Extrude.4",
		"rotation":[0.0,
		0.0,
		0.0,
		-1.0],
		"scale":[1.0,
		1.0,
		1.0],
		"children":[21]
	},
	{
		"translation":[0.0,
		-0.009788895025849343,
		0.0],
		"name":"Extrude.5",
		"rotation":[0.0,
		0.0,
		0.0,
		-1.0],
		"scale":[1.0,
		1.0,
		1.0],
		"children":[22]
	},
	{
		"translation":[0.0,
		-0.009788895025849343,
		0.0],
		"name":"Extrude.6",
		"rotation":[0.0,
		0.0,
		0.0,
		-1.0],
		"scale":[1.0,
		1.0,
		1.0],
		"children":[23]
	},
	{
		"translation":[0.0,
		-0.009788895025849343,
		0.0],
		"name":"Extrude.7",
		"rotation":[0.0,
		0.0,
		0.0,
		-1.0],
		"scale":[1.0,
		1.0,
		1.0],
		"children":[24]
	},
	{
		"translation":[0.0,
		-0.009788895025849343,
		0.0],
		"name":"Extrude.8",
		"rotation":[0.0,
		0.0,
		0.0,
		-1.0],
		"scale":[1.0,
		1.0,
		1.0],
		"children":[25]
	},
	{
		"translation":[0.0,
		-0.009788895025849343,
		0.0],
		"name":"Extrude.9",
		"rotation":[0.0,
		0.0,
		0.0,
		-1.0],
		"scale":[1.0,
		1.0,
		1.0],
		"children":[26]
	},
	{
		"translation":[0.0,
		-0.009788895025849343,
		0.0],
		"name":"Extrude.10",
		"rotation":[0.0,
		0.0,
		0.0,
		-1.0],
		"scale":[1.0,
		1.0,
		1.0],
		"children":[27]
	},
	{
		"translation":[0.0,
		-0.009788895025849343,
		0.005586238112300634],
		"name":"Extrude.11",
		"rotation":[0.0,
		0.0,
		0.0,
		-1.0],
		"scale":[1.0,
		1.0,
		1.0],
		"children":[28]
	},
	{
		"translation":[0.0,
		-0.009788895025849343,
		0.0],
		"name":"Extrude.12",
		"rotation":[0.0,
		0.0,
		0.0,
		-1.0],
		"scale":[1.0,
		1.0,
		1.0],
		"children":[29]
	},
	{
		"translation":[0.0,
		-0.009788895025849343,
		0.0],
		"name":"Extrude.13",
		"rotation":[0.0,
		0.0,
		0.0,
		-1.0],
		"scale":[1.0,
		1.0,
		1.0],
		"children":[30]
	},
	{
		"name":"Extrude.14",
		"children":[31]
	},
	{
		"translation":[0.0,
		0.0,
		-0.06277111172676087],
		"name":"Extrude.15",
		"rotation":[0.0,
		0.0,
		0.0,
		-1.0],
		"scale":[1.0,
		1.0,
		1.0],
		"children":[32]
	},
	{
		"translation":[0.0,
		0.0,
		-0.06448132544755936],
		"name":"Extrude.16",
		"rotation":[0.0,
		0.0,
		0.0,
		-1.0],
		"scale":[1.0,
		1.0,
		1.0],
		"children":[33]
	},
	{
		"name":"Extrude",
		"mesh":0
	},
	{
		"name":"Extrude.1",
		"mesh":1
	},
	{
		"name":"Extrude.2",
		"mesh":2
	},
	{
		"name":"Extrude.3",
		"mesh":3
	},
	{
		"name":"Extrude.4",
		"mesh":4
	},
	{
		"name":"Extrude.5",
		"mesh":5
	},
	{
		"name":"Extrude.6",
		"mesh":6
	},
	{
		"name":"Extrude.7",
		"mesh":7
	},
	{
		"name":"Extrude.8",
		"mesh":8
	},
	{
		"name":"Extrude.9",
		"mesh":9
	},
	{
		"name":"Extrude.10",
		"mesh":10
	},
	{
		"name":"Extrude.11",
		"mesh":11
	},
	{
		"name":"Extrude.12",
		"mesh":12
	},
	{
		"name":"Extrude.13",
		"mesh":13
	},
	{
		"name":"Extrude.14",
		"mesh":14
	},
	{
		"name":"Extrude.15",
		"mesh":15
	},
	{
		"name":"Extrude.16",
		"mesh":16
	}],
	"scenes":[{
		"nodes":[0,
		1,
		2,
		3,
		4,
		5,
		6,
		7,
		8,
		9,
		10,
		11,
		12,
		13,
		14,
		15,
		16]
	}],
	"meshes":[{
		"name":"Extrude",
		"primitives":[{
			"attributes":{
				"POSITION":1,
				"NORMAL":2,
				"TEXCOORD_0":3
			},
			"indices":0,
			"material":0
		}]
	},
	{
		"name":"Extrude.1",
		"primitives":[{
			"attributes":{
				"POSITION":5,
				"NORMAL":6,
				"TEXCOORD_0":7
			},
			"indices":4,
			"material":1
		}]
	},
	{
		"name":"Extrude.2",
		"primitives":[{
			"attributes":{
				"POSITION":9,
				"NORMAL":10,
				"TEXCOORD_0":11
			},
			"indices":8,
			"material":1
		}]
	},
	{
		"name":"Extrude.3",
		"primitives":[{
			"attributes":{
				"POSITION":13,
				"NORMAL":14,
				"TEXCOORD_0":15
			},
			"indices":12,
			"material":1
		}]
	},
	{
		"name":"Extrude.4",
		"primitives":[{
			"attributes":{
				"POSITION":17,
				"NORMAL":18,
				"TEXCOORD_0":19
			},
			"indices":16,
			"material":1
		}]
	},
	{
		"name":"Extrude.5",
		"primitives":[{
			"attributes":{
				"POSITION":21,
				"NORMAL":22,
				"TEXCOORD_0":23
			},
			"indices":20,
			"material":1
		}]
	},
	{
		"name":"Extrude.6",
		"primitives":[{
			"attributes":{
				"POSITION":25,
				"NORMAL":26,
				"TEXCOORD_0":27
			},
			"indices":24,
			"material":1
		}]
	},
	{
		"name":"Extrude.7",
		"primitives":[{
			"attributes":{
				"POSITION":29,
				"NORMAL":30,
				"TEXCOORD_0":31
			},
			"indices":28,
			"material":1
		}]
	},
	{
		"name":"Extrude.8",
		"primitives":[{
			"attributes":{
				"POSITION":33,
				"NORMAL":34,
				"TEXCOORD_0":35
			},
			"indices":32,
			"material":1
		}]
	},
	{
		"name":"Extrude.9",
		"primitives":[{
			"attributes":{
				"POSITION":37,
				"NORMAL":38,
				"TEXCOORD_0":39
			},
			"indices":36,
			"material":1
		}]
	},
	{
		"name":"Extrude.10",
		"primitives":[{
			"attributes":{
				"POSITION":41,
				"NORMAL":42,
				"TEXCOORD_0":43
			},
			"indices":40,
			"material":1
		}]
	},
	{
		"name":"Extrude.11",
		"primitives":[{
			"attributes":{
				"POSITION":45,
				"NORMAL":46,
				"TEXCOORD_0":47
			},
			"indices":44,
			"material":1
		}]
	},
	{
		"name":"Extrude.12",
		"primitives":[{
			"attributes":{
				"POSITION":49,
				"NORMAL":50,
				"TEXCOORD_0":51
			},
			"indices":48,
			"material":1
		}]
	},
	{
		"name":"Extrude.13",
		"primitives":[{
			"attributes":{
				"POSITION":53,
				"NORMAL":54,
				"TEXCOORD_0":55
			},
			"indices":52,
			"material":1
		}]
	},
	{
		"name":"Extrude.14",
		"primitives":[{
			"attributes":{
				"POSITION":57,
				"NORMAL":58,
				"TEXCOORD_0":59
			},
			"indices":56,
			"material":0
		}]
	},
	{
		"name":"Extrude.15",
		"primitives":[{
			"attributes":{
				"POSITION":61,
				"NORMAL":62,
				"TEXCOORD_0":63
			},
			"indices":60,
			"material":2
		}]
	},
	{
		"name":"Extrude.16",
		"primitives":[{
			"attributes":{
				"POSITION":65,
				"NORMAL":66,
				"TEXCOORD_0":67
			},
			"indices":64,
			"material":0
		}]
	}],
	"accessors":[{
		"count":828,
		"bufferView":0,
		"type":"SCALAR",
		"max":[827],
		"componentType":5123,
		"byteOffset":0,
		"min":[0]
	},
	{
		"count":828,
		"bufferView":1,
		"type":"VEC3",
		"max":[0.20596371591091157,
		0.19060532748699189,
		0.004999999888241291],
		"componentType":5126,
		"byteOffset":0,
		"min":[0.11799202859401703,
		0.1319575309753418,
		0.0]
	},
	{
		"count":828,
		"bufferView":1,
		"type":"VEC3",
		"max":[0.9998700022697449,
		1.0,
		1.0],
		"componentType":5126,
		"byteOffset":12,
		"min":[-0.9998700022697449,
		-1.0,
		-1.0]
	},
	{
		"count":828,
		"bufferView":1,
		"type":"VEC2",
		"max":[1.0,
		1.0],
		"componentType":5126,
		"byteOffset":24,
		"min":[0.0,
		0.0]
	},
	{
		"count":1824,
		"bufferView":2,
		"type":"SCALAR",
		"max":[1823],
		"componentType":5123,
		"byteOffset":0,
		"min":[0]
	},
	{
		"count":1824,
		"bufferView":3,
		"type":"VEC3",
		"max":[0.04935578256845474,
		0.11088098585605622,
		0.004999999888241291],
		"componentType":5126,
		"byteOffset":0,
		"min":[0.03370415419340134,
		0.09493611752986908,
		0.0]
	},
	{
		"count":1824,
		"bufferView":3,
		"type":"VEC3",
		"max":[0.9999960660934448,
		0.9999920129776001,
		1.0],
		"componentType":5126,
		"byteOffset":12,
		"min":[-0.9999922513961792,
		-0.9999385476112366,
		-1.0]
	},
	{
		"count":1824,
		"bufferView":3,
		"type":"VEC2",
		"max":[1.0,
		1.0],
		"componentType":5126,
		"byteOffset":24,
		"min":[0.0,
		0.0]
	},
	{
		"count":1812,
		"bufferView":4,
		"type":"SCALAR",
		"max":[1811],
		"componentType":5123,
		"byteOffset":0,
		"min":[0]
	},
	{
		"count":1812,
		"bufferView":5,
		"type":"VEC3",
		"max":[0.031028348952531816,
		0.11625092476606369,
		0.004999999888241291],
		"componentType":5126,
		"byteOffset":0,
		"min":[0.015614975243806839,
		0.09491778910160065,
		0.0]
	},
	{
		"count":1812,
		"bufferView":5,
		"type":"VEC3",
		"max":[1.0,
		1.0,
		1.0],
		"componentType":5126,
		"byteOffset":12,
		"min":[-1.0,
		-1.0,
		-1.0]
	},
	{
		"count":1812,
		"bufferView":5,
		"type":"VEC2",
		"max":[1.0,
		1.0],
		"componentType":5126,
		"byteOffset":24,
		"min":[0.0,
		0.0]
	},
	{
		"count":2592,
		"bufferView":6,
		"type":"SCALAR",
		"max":[2591],
		"componentType":5123,
		"byteOffset":0,
		"min":[0]
	},
	{
		"count":2592,
		"bufferView":7,
		"type":"VEC3",
		"max":[0.29668453335762026,
		0.1768597513437271,
		0.004999999888241291],
		"componentType":5126,
		"byteOffset":0,
		"min":[0.2826273739337921,
		0.16089655458927155,
		0.0]
	},
	{
		"count":2592,
		"bufferView":7,
		"type":"VEC3",
		"max":[0.9999755620956421,
		1.0,
		1.0],
		"componentType":5126,
		"byteOffset":12,
		"min":[-0.9999750852584839,
		-1.0,
		-1.0]
	},
	{
		"count":2592,
		"bufferView":7,
		"type":"VEC2",
		"max":[1.0,
		1.0],
		"componentType":5126,
		"byteOffset":24,
		"min":[0.0,
		0.0]
	},
	{
		"count":1704,
		"bufferView":8,
		"type":"SCALAR",
		"max":[1703],
		"componentType":5123,
		"byteOffset":0,
		"min":[0]
	},
	{
		"count":1704,
		"bufferView":9,
		"type":"VEC3",
		"max":[0.2810388207435608,
		0.17684142291545869,
		0.004999999888241291],
		"componentType":5126,
		"byteOffset":0,
		"min":[0.2659127712249756,
		0.1608782261610031,
		0.0]
	},
	{
		"count":1704,
		"bufferView":9,
		"type":"VEC3",
		"max":[0.9999493956565857,
		1.0,
		1.0],
		"componentType":5126,
		"byteOffset":12,
		"min":[-0.9999207854270935,
		-1.0,
		-1.0]
	},
	{
		"count":1704,
		"bufferView":9,
		"type":"VEC2",
		"max":[1.0,
		1.0],
		"componentType":5126,
		"byteOffset":24,
		"min":[0.0,
		0.0]
	},
	{
		"count":1728,
		"bufferView":10,
		"type":"SCALAR",
		"max":[1727],
		"componentType":5123,
		"byteOffset":0,
		"min":[0]
	},
	{
		"count":1728,
		"bufferView":11,
		"type":"VEC3",
		"max":[0.263365238904953,
		0.1768597513437271,
		0.004999999888241291],
		"componentType":5126,
		"byteOffset":0,
		"min":[0.24021770060062409,
		0.16128143668174745,
		0.0]
	},
	{
		"count":1728,
		"bufferView":11,
		"type":"VEC3",
		"max":[1.0,
		1.0,
		1.0],
		"componentType":5126,
		"byteOffset":12,
		"min":[-1.0,
		-1.0,
		-1.0]
	},
	{
		"count":1728,
		"bufferView":11,
		"type":"VEC2",
		"max":[1.0,
		1.0],
		"componentType":5126,
		"byteOffset":24,
		"min":[0.0,
		0.0]
	},
	{
		"count":72,
		"bufferView":12,
		"type":"SCALAR",
		"max":[71],
		"componentType":5123,
		"byteOffset":0,
		"min":[0]
	},
	{
		"count":72,
		"bufferView":13,
		"type":"VEC3",
		"max":[0.23680879175662995,
		0.18221136927604676,
		0.004999999888241291],
		"componentType":5126,
		"byteOffset":0,
		"min":[0.23264846205711366,
		0.16128143668174745,
		0.0]
	},
	{
		"count":72,
		"bufferView":13,
		"type":"VEC3",
		"max":[1.0,
		1.0,
		1.0],
		"componentType":5126,
		"byteOffset":12,
		"min":[-1.0,
		-1.0,
		-1.0]
	},
	{
		"count":72,
		"bufferView":13,
		"type":"VEC2",
		"max":[1.0,
		1.0],
		"componentType":5126,
		"byteOffset":24,
		"min":[0.0,
		0.0]
	},
	{
		"count":612,
		"bufferView":14,
		"type":"SCALAR",
		"max":[611],
		"componentType":5123,
		"byteOffset":0,
		"min":[0]
	},
	{
		"count":612,
		"bufferView":15,
		"type":"VEC3",
		"max":[0.23054081201553346,
		0.18098342418670655,
		0.004999999888241291],
		"componentType":5126,
		"byteOffset":0,
		"min":[0.22079060971736909,
		0.16113480925559998,
		0.0]
	},
	{
		"count":612,
		"bufferView":15,
		"type":"VEC3",
		"max":[1.0,
		1.0,
		1.0],
		"componentType":5126,
		"byteOffset":12,
		"min":[-1.0,
		-1.0,
		-1.0]
	},
	{
		"count":612,
		"bufferView":15,
		"type":"VEC2",
		"max":[1.0,
		1.0],
		"componentType":5126,
		"byteOffset":24,
		"min":[0.0,
		0.0]
	},
	{
		"count":624,
		"bufferView":16,
		"type":"SCALAR",
		"max":[623],
		"componentType":5123,
		"byteOffset":0,
		"min":[0]
	},
	{
		"count":624,
		"bufferView":17,
		"type":"VEC3",
		"max":[0.1038799062371254,
		0.18098342418670655,
		0.004999999888241291],
		"componentType":5126,
		"byteOffset":0,
		"min":[0.09412971138954163,
		0.16113480925559998,
		0.0]
	},
	{
		"count":624,
		"bufferView":17,
		"type":"VEC3",
		"max":[1.0,
		1.0,
		1.0],
		"componentType":5126,
		"byteOffset":12,
		"min":[-1.0,
		-1.0,
		-1.0]
	},
	{
		"count":624,
		"bufferView":17,
		"type":"VEC2",
		"max":[1.0,
		1.0],
		"componentType":5126,
		"byteOffset":24,
		"min":[0.0,
		0.0]
	},
	{
		"count":2592,
		"bufferView":18,
		"type":"SCALAR",
		"max":[2591],
		"componentType":5123,
		"byteOffset":0,
		"min":[0]
	},
	{
		"count":2592,
		"bufferView":19,
		"type":"VEC3",
		"max":[0.09282846003770828,
		0.17687807977199555,
		0.004999999888241291],
		"componentType":5126,
		"byteOffset":0,
		"min":[0.07805655151605606,
		0.16095153987407685,
		0.0]
	},
	{
		"count":2592,
		"bufferView":19,
		"type":"VEC3",
		"max":[1.0,
		0.9999783039093018,
		1.0],
		"componentType":5126,
		"byteOffset":12,
		"min":[-1.0,
		-1.0,
		-1.0]
	},
	{
		"count":2592,
		"bufferView":19,
		"type":"VEC2",
		"max":[1.0,
		1.0],
		"componentType":5126,
		"byteOffset":24,
		"min":[0.0,
		0.0]
	},
	{
		"count":1704,
		"bufferView":20,
		"type":"SCALAR",
		"max":[1703],
		"componentType":5123,
		"byteOffset":0,
		"min":[0]
	},
	{
		"count":1704,
		"bufferView":21,
		"type":"VEC3",
		"max":[0.07624804228544235,
		0.17684142291545869,
		0.004999999888241291],
		"componentType":5126,
		"byteOffset":0,
		"min":[0.061121996492147449,
		0.1608782261610031,
		0.0]
	},
	{
		"count":1704,
		"bufferView":21,
		"type":"VEC3",
		"max":[0.9999493956565857,
		1.0,
		1.0],
		"componentType":5126,
		"byteOffset":12,
		"min":[-0.9999207854270935,
		-1.0,
		-1.0]
	},
	{
		"count":1704,
		"bufferView":21,
		"type":"VEC2",
		"max":[1.0,
		1.0],
		"componentType":5126,
		"byteOffset":24,
		"min":[0.0,
		0.0]
	},
	{
		"count":1740,
		"bufferView":22,
		"type":"SCALAR",
		"max":[1739],
		"componentType":5123,
		"byteOffset":0,
		"min":[0]
	},
	{
		"count":1740,
		"bufferView":23,
		"type":"VEC3",
		"max":[0.05938089266419411,
		0.17684142291545869,
		0.0],
		"componentType":5126,
		"byteOffset":0,
		"min":[0.04396751895546913,
		0.15594814717769624,
		-0.004999999888241291]
	},
	{
		"count":1740,
		"bufferView":23,
		"type":"VEC3",
		"max":[1.0,
		1.0,
		1.0],
		"componentType":5126,
		"byteOffset":12,
		"min":[-1.0,
		-1.0,
		-1.0]
	},
	{
		"count":1740,
		"bufferView":23,
		"type":"VEC2",
		"max":[1.0,
		1.0],
		"componentType":5126,
		"byteOffset":24,
		"min":[0.0,
		0.0]
	},
	{
		"count":1704,
		"bufferView":24,
		"type":"SCALAR",
		"max":[1703],
		"componentType":5123,
		"byteOffset":0,
		"min":[0]
	},
	{
		"count":1704,
		"bufferView":25,
		"type":"VEC3",
		"max":[0.04149922728538513,
		0.17684142291545869,
		0.004999999888241291],
		"componentType":5126,
		"byteOffset":0,
		"min":[0.026373179629445077,
		0.1608782261610031,
		0.0]
	},
	{
		"count":1704,
		"bufferView":25,
		"type":"VEC3",
		"max":[0.9999493956565857,
		1.0,
		1.0],
		"componentType":5126,
		"byteOffset":12,
		"min":[-0.9999207854270935,
		-1.0,
		-1.0]
	},
	{
		"count":1704,
		"bufferView":25,
		"type":"VEC2",
		"max":[1.0,
		1.0],
		"componentType":5126,
		"byteOffset":24,
		"min":[0.0,
		0.0]
	},
	{
		"count":564,
		"bufferView":26,
		"type":"SCALAR",
		"max":[563],
		"componentType":5123,
		"byteOffset":0,
		"min":[0]
	},
	{
		"count":564,
		"bufferView":27,
		"type":"VEC3",
		"max":[0.025988303124904634,
		0.17684142291545869,
		0.004999999888241291],
		"componentType":5126,
		"byteOffset":0,
		"min":[0.01621977984905243,
		0.161263108253479,
		0.0]
	},
	{
		"count":564,
		"bufferView":27,
		"type":"VEC3",
		"max":[1.0,
		1.0,
		1.0],
		"componentType":5126,
		"byteOffset":12,
		"min":[-1.0,
		-1.0,
		-1.0]
	},
	{
		"count":564,
		"bufferView":27,
		"type":"VEC2",
		"max":[1.0,
		1.0],
		"componentType":5126,
		"byteOffset":24,
		"min":[0.0,
		0.0]
	},
	{
		"count":7296,
		"bufferView":28,
		"type":"SCALAR",
		"max":[7295],
		"componentType":5123,
		"byteOffset":0,
		"min":[0]
	},
	{
		"count":7296,
		"bufferView":29,
		"type":"VEC3",
		"max":[0.31156641244888308,
		0.20618365705013276,
		0.004999999888241291],
		"componentType":5126,
		"byteOffset":0,
		"min":[-0.0009163717622868717,
		-0.0009163717622868717,
		0.0]
	},
	{
		"count":7296,
		"bufferView":29,
		"type":"VEC3",
		"max":[1.0,
		1.0,
		1.0],
		"componentType":5126,
		"byteOffset":12,
		"min":[-1.0,
		-1.0,
		-1.0]
	},
	{
		"count":7296,
		"bufferView":29,
		"type":"VEC2",
		"max":[1.0,
		1.0],
		"componentType":5126,
		"byteOffset":24,
		"min":[0.0,
		0.0]
	},
	{
		"count":3636,
		"bufferView":30,
		"type":"SCALAR",
		"max":[3635],
		"componentType":5123,
		"byteOffset":0,
		"min":[0]
	},
	{
		"count":3636,
		"bufferView":31,
		"type":"VEC3",
		"max":[0.3106500208377838,
		0.2052672803401947,
		0.06499999761581421],
		"componentType":5126,
		"byteOffset":0,
		"min":[0.0,
		0.0,
		0.0]
	},
	{
		"count":3636,
		"bufferView":31,
		"type":"VEC3",
		"max":[1.0,
		1.0,
		1.0],
		"componentType":5126,
		"byteOffset":12,
		"min":[-1.0,
		-1.0,
		-1.0]
	},
	{
		"count":3636,
		"bufferView":31,
		"type":"VEC2",
		"max":[1.0,
		1.0],
		"componentType":5126,
		"byteOffset":24,
		"min":[0.0,
		0.0]
	},
	{
		"count":7296,
		"bufferView":32,
		"type":"SCALAR",
		"max":[7295],
		"componentType":5123,
		"byteOffset":0,
		"min":[0]
	},
	{
		"count":7296,
		"bufferView":33,
		"type":"VEC3",
		"max":[0.31156641244888308,
		0.20618365705013276,
		0.004999999888241291],
		"componentType":5126,
		"byteOffset":0,
		"min":[-0.0009163717622868717,
		-0.0009163717622868717,
		0.0]
	},
	{
		"count":7296,
		"bufferView":33,
		"type":"VEC3",
		"max":[1.0,
		1.0,
		1.0],
		"componentType":5126,
		"byteOffset":12,
		"min":[-1.0,
		-1.0,
		-1.0]
	},
	{
		"count":7296,
		"bufferView":33,
		"type":"VEC2",
		"max":[1.0,
		1.0],
		"componentType":5126,
		"byteOffset":24,
		"min":[0.0,
		0.0]
	}],
	"bufferViews":[{
		"buffer":0,
		"byteOffset":0,
		"byteLength":1656,
		"target":34963
	},
	{
		"buffer":0,
		"byteOffset":1656,
		"byteLength":26496,
		"target":34962,
		"byteStride":32
	},
	{
		"buffer":1,
		"byteOffset":0,
		"byteLength":3648,
		"target":34963
	},
	{
		"buffer":1,
		"byteOffset":3648,
		"byteLength":58368,
		"target":34962,
		"byteStride":32
	},
	{
		"buffer":2,
		"byteOffset":0,
		"byteLength":3624,
		"target":34963
	},
	{
		"buffer":2,
		"byteOffset":3624,
		"byteLength":57984,
		"target":34962,
		"byteStride":32
	},
	{
		"buffer":3,
		"byteOffset":0,
		"byteLength":5184,
		"target":34963
	},
	{
		"buffer":3,
		"byteOffset":5184,
		"byteLength":82944,
		"target":34962,
		"byteStride":32
	},
	{
		"buffer":4,
		"byteOffset":0,
		"byteLength":3408,
		"target":34963
	},
	{
		"buffer":4,
		"byteOffset":3408,
		"byteLength":54528,
		"target":34962,
		"byteStride":32
	},
	{
		"buffer":5,
		"byteOffset":0,
		"byteLength":3456,
		"target":34963
	},
	{
		"buffer":5,
		"byteOffset":3456,
		"byteLength":55296,
		"target":34962,
		"byteStride":32
	},
	{
		"buffer":6,
		"byteOffset":0,
		"byteLength":144,
		"target":34963
	},
	{
		"buffer":6,
		"byteOffset":144,
		"byteLength":2304,
		"target":34962,
		"byteStride":32
	},
	{
		"buffer":7,
		"byteOffset":0,
		"byteLength":1224,
		"target":34963
	},
	{
		"buffer":7,
		"byteOffset":1224,
		"byteLength":19584,
		"target":34962,
		"byteStride":32
	},
	{
		"buffer":8,
		"byteOffset":0,
		"byteLength":1248,
		"target":34963
	},
	{
		"buffer":8,
		"byteOffset":1248,
		"byteLength":19968,
		"target":34962,
		"byteStride":32
	},
	{
		"buffer":9,
		"byteOffset":0,
		"byteLength":5184,
		"target":34963
	},
	{
		"buffer":9,
		"byteOffset":5184,
		"byteLength":82944,
		"target":34962,
		"byteStride":32
	},
	{
		"buffer":10,
		"byteOffset":0,
		"byteLength":3408,
		"target":34963
	},
	{
		"buffer":10,
		"byteOffset":3408,
		"byteLength":54528,
		"target":34962,
		"byteStride":32
	},
	{
		"buffer":11,
		"byteOffset":0,
		"byteLength":3480,
		"target":34963
	},
	{
		"buffer":11,
		"byteOffset":3480,
		"byteLength":55680,
		"target":34962,
		"byteStride":32
	},
	{
		"buffer":12,
		"byteOffset":0,
		"byteLength":3408,
		"target":34963
	},
	{
		"buffer":12,
		"byteOffset":3408,
		"byteLength":54528,
		"target":34962,
		"byteStride":32
	},
	{
		"buffer":13,
		"byteOffset":0,
		"byteLength":1128,
		"target":34963
	},
	{
		"buffer":13,
		"byteOffset":1128,
		"byteLength":18048,
		"target":34962,
		"byteStride":32
	},
	{
		"buffer":14,
		"byteOffset":0,
		"byteLength":14592,
		"target":34963
	},
	{
		"buffer":14,
		"byteOffset":14592,
		"byteLength":233472,
		"target":34962,
		"byteStride":32
	},
	{
		"buffer":15,
		"byteOffset":0,
		"byteLength":7272,
		"target":34963
	},
	{
		"buffer":15,
		"byteOffset":7272,
		"byteLength":116352,
		"target":34962,
		"byteStride":32
	},
	{
		"buffer":16,
		"byteOffset":0,
		"byteLength":14592,
		"target":34963
	},
	{
		"buffer":16,
		"byteOffset":14592,
		"byteLength":233472,
		"target":34962,
		"byteStride":32
	}],
	"buffers":[{
		"uri":"data:application/octet-stream;base64,",
		"byteLength":28152
	},
	{
		"uri":"data:application/octet-stream;base64,",
		"byteLength":62016
	},
	{
		"uri":"data:application/octet-stream;base64,",
		"byteLength":61608
	},
	{
		"uri":"data:application/octet-stream;base64,",
		"byteLength":88128
	},
	{
		"uri":"data:application/octet-stream;base64,",
		"byteLength":57936
	},
	{
		"uri":"data:application/octet-stream;base64,",
		"byteLength":58752
	},
	{
		"uri":"data:application/octet-stream;base64,",
		"byteLength":2448
	},
	{
		"uri":"data:application/octet-stream;base64,",
		"byteLength":20808
	},
	{
		"uri":"data:application/octet-stream;base64,",
		"byteLength":21216
	},
	{
		"uri":"data:application/octet-stream;base64,",
		"byteLength":88128
	},
	{
		"uri":"data:application/octet-stream;base64,",
		"byteLength":57936
	},
	{
		"uri":"data:application/octet-stream;base64,",
		"byteLength":59160
	},
	{
		"uri":"data:application/octet-stream;base64,",
		"byteLength":57936
	},
	{
		"uri":"data:application/octet-stream;base64,",
		"byteLength":19176
	},
	{
		"uri":"data:application/octet-stream;base64,",
		"byteLength":248064
	},
	{
		"uri":"data:application/octet-stream;base64,",
		"byteLength":123624
	},
	{
		"uri":"data:application/octet-stream;base64,",
		"byteLength":248064
	}],
	"materials":[{
		"pbrMetallicRoughness":{
			"baseColorFactor":[0.05882352941176464,
			0.28235294117647055,
			0.05882352941176467,
			1.0],
			"metallicFactor":0.0,
			"roughnessFactor":0.30000001192092898
		},
		"emissiveFactor":[0.0,
		0.0,
		0.0],
		"alphaMode":"OPAQUE",
		"doubleSided":false,
		"name":"RS OpenPBR.1"
	},
	{
		"pbrMetallicRoughness":{
			"baseColorFactor":[1.0,
			1.0,
			1.0,
			1.0],
			"metallicFactor":0.0,
			"roughnessFactor":0.30000001192092898
		},
		"emissiveFactor":[0.0,
		0.0,
		0.0],
		"alphaMode":"OPAQUE",
		"doubleSided":false,
		"name":"RS OpenPBR.2"
	},
	{
		"pbrMetallicRoughness":{
			"baseColorFactor":[0.10588235294117648,
			0.39999999999999999,
			0.10588235294117648,
			1.0],
			"metallicFactor":0.0,
			"roughnessFactor":0.30000001192092898
		},
		"emissiveFactor":[0.0,
		0.0,
		0.0],
		"alphaMode":"OPAQUE",
		"doubleSided":false,
		"name":"RS OpenPBR"
	}]
}