{
	"asset":{
		"version":"2.0",
		"generator":"Maxon Cinema 4D TRIAL 2026.0.0 (#200000219)"
	},
	"nodes":[{
		"translation":[0.0,
		0.0,
		0.0006498715374618769],
		"name":"Extrude",
		"rotation":[0.0,
		0.0,
		0.0,
		-1.0],
		"scale":[1.0,
		1.0,
		1.0],
		"children":[12]
	},
	{
		"name":"Extrude.1",
		"children":[13]
	},
	{
		"translation":[0.0,
		-0.006848600227385759,
		0.0],
		"name":"Extrude.2",
		"rotation":[0.0,
		0.0,
		0.0,
		-1.0],
		"scale":[1.0,
		1.0,
		1.0],
		"children":[14]
	},
	{
		"translation":[0.0,
		-0.006848600227385759,
		0.0],
		"name":"Extrude.3",
		"rotation":[0.0,
		0.0,
		0.0,
		-1.0],
		"scale":[1.0,
		1.0,
		1.0],
		"children":[15]
	},
	{
		"translation":[0.0,
		-0.008266900666058064,
		0.0],
		"name":"Extrude.4",
		"rotation":[0.0,
		0.0,
		0.0,
		-1.0],
		"scale":[1.0,
		1.0,
		1.0],
		"children":[16]
	},
	{
		"translation":[0.0,
		-0.008266900666058064,
		0.0],
		"name":"Extrude.5",
		"rotation":[0.0,
		0.0,
		0.0,
		-1.0],
		"scale":[1.0,
		1.0,
		1.0],
		"children":[17]
	},
	{
		"translation":[0.0,
		0.0,
		0.004963226616382599],
		"name":"Extrude.6",
		"rotation":[0.0,
		0.0,
		0.0,
		-1.0],
		"scale":[1.0,
		1.0,
		1.0],
		"children":[18]
	},
	{
		"name":"Extrude.7",
		"children":[19]
	},
	{
		"name":"Extrude.9",
		"children":[20]
	},
	{
		"translation":[0.0,
		0.0,
		-0.054876357316970828],
		"name":"Extrude.10",
		"rotation":[0.0,
		0.0,
		0.0,
		-1.0],
		"scale":[1.0,
		1.0,
		1.0],
		"children":[21]
	},
	{
		"translation":[0.0,
		0.0,
		-0.05774747580289841],
		"name":"Extrude.8",
		"rotation":[0.0,
		0.0,
		0.0,
		-1.0],
		"scale":[1.0,
		1.0,
		1.0],
		"children":[22]
	},
	{
		"translation":[0.0,
		0.0,
		0.001941498601809144],
		"name":"Extrude.11",
		"rotation":[0.0,
		0.0,
		0.0,
		-1.0],
		"scale":[1.0,
		1.0,
		1.0],
		"children":[23]
	},
	{
		"name":"Extrude",
		"mesh":0
	},
	{
		"name":"Extrude.1",
		"mesh":1
	},
	{
		"name":"Extrude.2",
		"mesh":2
	},
	{
		"name":"Extrude.3",
		"mesh":3
	},
	{
		"name":"Extrude.4",
		"mesh":4
	},
	{
		"name":"Extrude.5",
		"mesh":5
	},
	{
		"name":"Extrude.6",
		"mesh":6
	},
	{
		"name":"Extrude.7",
		"mesh":7
	},
	{
		"name":"Extrude.9",
		"mesh":8
	},
	{
		"name":"Extrude.10",
		"mesh":9
	},
	{
		"name":"Extrude.8",
		"mesh":10
	},
	{
		"name":"Polygon",
		"mesh":11
	}],
	"scenes":[{
		"nodes":[0,
		1,
		2,
		3,
		4,
		5,
		6,
		7,
		8,
		9,
		10,
		11]
	}],
	"meshes":[{
		"name":"Extrude",
		"primitives":[{
			"attributes":{
				"POSITION":1,
				"NORMAL":2,
				"TEXCOORD_0":3
			},
			"indices":0,
			"material":0
		}]
	},
	{
		"name":"Extrude.1",
		"primitives":[{
			"attributes":{
				"POSITION":5,
				"NORMAL":6,
				"TEXCOORD_0":7
			},
			"indices":4,
			"material":1
		}]
	},
	{
		"name":"Extrude.2",
		"primitives":[{
			"attributes":{
				"POSITION":9,
				"NORMAL":10,
				"TEXCOORD_0":11
			},
			"indices":8,
			"material":2
		}]
	},
	{
		"name":"Extrude.3",
		"primitives":[{
			"attributes":{
				"POSITION":13,
				"NORMAL":14,
				"TEXCOORD_0":15
			},
			"indices":12,
			"material":2
		}]
	},
	{
		"name":"Extrude.4",
		"primitives":[{
			"attributes":{
				"POSITION":17,
				"NORMAL":18,
				"TEXCOORD_0":19
			},
			"indices":16,
			"material":2
		}]
	},
	{
		"name":"Extrude.5",
		"primitives":[{
			"attributes":{
				"POSITION":21,
				"NORMAL":22,
				"TEXCOORD_0":23
			},
			"indices":20,
			"material":2
		}]
	},
	{
		"name":"Extrude.6",
		"primitives":[{
			"attributes":{
				"POSITION":25,
				"NORMAL":26,
				"TEXCOORD_0":27
			},
			"indices":24,
			"material":2
		}]
	},
	{
		"name":"Extrude.7",
		"primitives":[{
			"attributes":{
				"POSITION":29,
				"NORMAL":30,
				"TEXCOORD_0":31
			},
			"indices":28,
			"material":2
		}]
	},
	{
		"name":"Extrude.9",
		"primitives":[{
			"attributes":{
				"POSITION":33,
				"NORMAL":34,
				"TEXCOORD_0":35
			},
			"indices":32,
			"material":1
		}]
	},
	{
		"name":"Extrude.10",
		"primitives":[{
			"attributes":{
				"POSITION":37,
				"NORMAL":38,
				"TEXCOORD_0":39
			},
			"indices":36,
			"material":3
		}]
	},
	{
		"name":"Extrude.8",
		"primitives":[{
			"attributes":{
				"POSITION":41,
				"NORMAL":42,
				"TEXCOORD_0":43
			},
			"indices":40,
			"material":1
		}]
	},
	{
		"name":"Polygon",
		"primitives":[{
			"attributes":{
				"POSITION":45,
				"NORMAL":46
			},
			"indices":44,
			"material":0
		}]
	}],
	"accessors":[{
		"count":804,
		"bufferView":0,
		"type":"SCALAR",
		"max":[803],
		"componentType":5123,
		"byteOffset":0,
		"min":[0]
	},
	{
		"count":804,
		"bufferView":1,
		"type":"VEC3",
		"max":[0.03314344212412834,
		0.16373580694198609,
		0.004999999888241291],
		"componentType":5126,
		"byteOffset":0,
		"min":[0.024497326463460923,
		0.15508969128131867,
		0.0]
	},
	{
		"count":804,
		"bufferView":1,
		"type":"VEC3",
		"max":[0.9998695254325867,
		0.9998695254325867,
		1.0],
		"componentType":5126,
		"byteOffset":12,
		"min":[-0.9998695254325867,
		-0.9998695254325867,
		-1.0]
	},
	{
		"count":804,
		"bufferView":1,
		"type":"VEC2",
		"max":[1.0,
		1.0],
		"componentType":5126,
		"byteOffset":24,
		"min":[0.0,
		0.0]
	},
	{
		"count":60,
		"bufferView":2,
		"type":"SCALAR",
		"max":[59],
		"componentType":5123,
		"byteOffset":0,
		"min":[0]
	},
	{
		"count":60,
		"bufferView":3,
		"type":"VEC3",
		"max":[0.17955099046230317,
		0.18733249604701997,
		0.004999999888241291],
		"componentType":5126,
		"byteOffset":0,
		"min":[0.09308984130620957,
		0.1296917200088501,
		0.0]
	},
	{
		"count":60,
		"bufferView":3,
		"type":"VEC3",
		"max":[0.7071068286895752,
		1.0,
		1.0],
		"componentType":5126,
		"byteOffset":12,
		"min":[-0.7071068286895752,
		-1.0,
		-1.0]
	},
	{
		"count":60,
		"bufferView":3,
		"type":"VEC2",
		"max":[1.0,
		1.0],
		"componentType":5126,
		"byteOffset":24,
		"min":[0.0,
		0.0]
	},
	{
		"count":1824,
		"bufferView":4,
		"type":"SCALAR",
		"max":[1823],
		"componentType":5123,
		"byteOffset":0,
		"min":[0]
	},
	{
		"count":1824,
		"bufferView":5,
		"type":"VEC3",
		"max":[0.048508308827877048,
		0.10897707939147949,
		0.004999999888241291],
		"componentType":5126,
		"byteOffset":0,
		"min":[0.03312543034553528,
		0.09330599009990692,
		0.0]
	},
	{
		"count":1824,
		"bufferView":5,
		"type":"VEC3",
		"max":[0.9999960660934448,
		0.9999920129776001,
		1.0],
		"componentType":5126,
		"byteOffset":12,
		"min":[-0.9999922513961792,
		-0.9999385476112366,
		-1.0]
	},
	{
		"count":1824,
		"bufferView":5,
		"type":"VEC2",
		"max":[1.0,
		1.0],
		"componentType":5126,
		"byteOffset":24,
		"min":[0.0,
		0.0]
	},
	{
		"count":1812,
		"bufferView":6,
		"type":"SCALAR",
		"max":[1811],
		"componentType":5123,
		"byteOffset":0,
		"min":[0]
	},
	{
		"count":1812,
		"bufferView":7,
		"type":"VEC3",
		"max":[0.030495569109916688,
		0.11425480991601944,
		0.004999999888241291],
		"componentType":5126,
		"byteOffset":0,
		"min":[0.015346853993833065,
		0.09328798204660416,
		0.0]
	},
	{
		"count":1812,
		"bufferView":7,
		"type":"VEC3",
		"max":[1.0,
		1.0,
		1.0],
		"componentType":5126,
		"byteOffset":12,
		"min":[-1.0,
		-1.0,
		-1.0]
	},
	{
		"count":1812,
		"bufferView":7,
		"type":"VEC2",
		"max":[1.0,
		1.0],
		"componentType":5126,
		"byteOffset":24,
		"min":[0.0,
		0.0]
	},
	{
		"count":624,
		"bufferView":8,
		"type":"SCALAR",
		"max":[623],
		"componentType":5123,
		"byteOffset":0,
		"min":[0]
	},
	{
		"count":624,
		"bufferView":9,
		"type":"VEC3",
		"max":[0.07648209482431412,
		0.17908266186714173,
		0.004999999888241291],
		"componentType":5126,
		"byteOffset":0,
		"min":[0.06688130646944046,
		0.15849409997463227,
		0.0]
	},
	{
		"count":624,
		"bufferView":9,
		"type":"VEC3",
		"max":[1.0,
		1.0,
		1.0],
		"componentType":5126,
		"byteOffset":12,
		"min":[-1.0,
		-1.0,
		-1.0]
	},
	{
		"count":624,
		"bufferView":9,
		"type":"VEC2",
		"max":[1.0,
		1.0],
		"componentType":5126,
		"byteOffset":24,
		"min":[0.0,
		0.0]
	},
	{
		"count":72,
		"bufferView":10,
		"type":"SCALAR",
		"max":[71],
		"componentType":5123,
		"byteOffset":0,
		"min":[0]
	},
	{
		"count":72,
		"bufferView":11,
		"type":"VEC3",
		"max":[0.0652061179280281,
		0.17908266186714173,
		0.004999999888241291],
		"componentType":5126,
		"byteOffset":0,
		"min":[0.061117228120565417,
		0.15851211547851563,
		0.0]
	},
	{
		"count":72,
		"bufferView":11,
		"type":"VEC3",
		"max":[1.0,
		1.0,
		1.0],
		"componentType":5126,
		"byteOffset":12,
		"min":[-1.0,
		-1.0,
		-1.0]
	},
	{
		"count":72,
		"bufferView":11,
		"type":"VEC2",
		"max":[1.0,
		1.0],
		"componentType":5126,
		"byteOffset":24,
		"min":[0.0,
		0.0]
	},
	{
		"count":432,
		"bufferView":12,
		"type":"SCALAR",
		"max":[431],
		"componentType":5123,
		"byteOffset":0,
		"min":[0]
	},
	{
		"count":432,
		"bufferView":13,
		"type":"VEC3",
		"max":[0.037664640694856647,
		0.16865327954292298,
		0.0],
		"componentType":5126,
		"byteOffset":0,
		"min":[0.020120229572057725,
		0.1502622812986374,
		-0.004999999888241291]
	},
	{
		"count":432,
		"bufferView":13,
		"type":"VEC3",
		"max":[1.0,
		1.0,
		1.0],
		"componentType":5126,
		"byteOffset":12,
		"min":[-1.0,
		-1.0,
		-1.0]
	},
	{
		"count":432,
		"bufferView":13,
		"type":"VEC2",
		"max":[1.0,
		1.0],
		"componentType":5126,
		"byteOffset":24,
		"min":[0.0,
		0.0]
	},
	{
		"count":1728,
		"bufferView":14,
		"type":"SCALAR",
		"max":[1727],
		"componentType":5123,
		"byteOffset":0,
		"min":[0]
	},
	{
		"count":1728,
		"bufferView":15,
		"type":"VEC3",
		"max":[0.044131211936473849,
		0.1747235804796219,
		0.004999999888241291],
		"componentType":5126,
		"byteOffset":0,
		"min":[0.013509554788470269,
		0.14410191774368287,
		0.0]
	},
	{
		"count":1728,
		"bufferView":15,
		"type":"VEC3",
		"max":[1.0,
		1.0,
		1.0],
		"componentType":5126,
		"byteOffset":12,
		"min":[-1.0,
		-1.0,
		-1.0]
	},
	{
		"count":1728,
		"bufferView":15,
		"type":"VEC2",
		"max":[1.0,
		1.0],
		"componentType":5126,
		"byteOffset":24,
		"min":[0.0,
		0.0]
	},
	{
		"count":7296,
		"bufferView":16,
		"type":"SCALAR",
		"max":[7295],
		"componentType":5123,
		"byteOffset":0,
		"min":[0]
	},
	{
		"count":7296,
		"bufferView":17,
		"type":"VEC3",
		"max":[0.2891044616699219,
		0.20264331996440888,
		0.004999999888241291],
		"componentType":5126,
		"byteOffset":0,
		"min":[-0.0009006370091810823,
		-0.0009006370091810823,
		0.0]
	},
	{
		"count":7296,
		"bufferView":17,
		"type":"VEC3",
		"max":[1.0,
		1.0,
		1.0],
		"componentType":5126,
		"byteOffset":12,
		"min":[-1.0,
		-1.0,
		-1.0]
	},
	{
		"count":7296,
		"bufferView":17,
		"type":"VEC2",
		"max":[1.0,
		1.0],
		"componentType":5126,
		"byteOffset":24,
		"min":[0.0,
		0.0]
	},
	{
		"count":3636,
		"bufferView":18,
		"type":"SCALAR",
		"max":[3635],
		"componentType":5123,
		"byteOffset":0,
		"min":[0]
	},
	{
		"count":3636,
		"bufferView":19,
		"type":"VEC3",
		"max":[0.2882038354873657,
		0.20174269378185273,
		0.0560000017285347],
		"componentType":5126,
		"byteOffset":0,
		"min":[0.0,
		0.0,
		0.0]
	},
	{
		"count":3636,
		"bufferView":19,
		"type":"VEC3",
		"max":[1.0,
		1.0,
		1.0],
		"componentType":5126,
		"byteOffset":12,
		"min":[-1.0,
		-1.0,
		-1.0]
	},
	{
		"count":3636,
		"bufferView":19,
		"type":"VEC2",
		"max":[1.0,
		1.0],
		"componentType":5126,
		"byteOffset":24,
		"min":[0.0,
		0.0]
	},
	{
		"count":7296,
		"bufferView":20,
		"type":"SCALAR",
		"max":[7295],
		"componentType":5123,
		"byteOffset":0,
		"min":[0]
	},
	{
		"count":7296,
		"bufferView":21,
		"type":"VEC3",
		"max":[0.2891044616699219,
		0.20264331996440888,
		0.004999999888241291],
		"componentType":5126,
		"byteOffset":0,
		"min":[-0.0009006370091810823,
		-0.0009006370091810823,
		0.0]
	},
	{
		"count":7296,
		"bufferView":21,
		"type":"VEC3",
		"max":[1.0,
		1.0,
		1.0],
		"componentType":5126,
		"byteOffset":12,
		"min":[-1.0,
		-1.0,
		-1.0]
	},
	{
		"count":7296,
		"bufferView":21,
		"type":"VEC2",
		"max":[1.0,
		1.0],
		"componentType":5126,
		"byteOffset":24,
		"min":[0.0,
		0.0]
	},
	{
		"count":48,
		"bufferView":22,
		"type":"SCALAR",
		"max":[47],
		"componentType":5123,
		"byteOffset":0,
		"min":[0]
	},
	{
		"count":48,
		"bufferView":23,
		"type":"VEC3",
		"max":[0.04325980320572853,
		0.17385564744472505,
		0.0],
		"componentType":5126,
		"byteOffset":0,
		"min":[0.014561161398887635,
		0.14493858814239503,
		0.0]
	},
	{
		"count":48,
		"bufferView":23,
		"type":"VEC3",
		"max":[0.0,
		0.0,
		1.0],
		"componentType":5126,
		"byteOffset":12,
		"min":[0.0,
		0.0,
		1.0]
	}],
	"bufferViews":[{
		"buffer":0,
		"byteOffset":0,
		"byteLength":1608,
		"target":34963
	},
	{
		"buffer":0,
		"byteOffset":1608,
		"byteLength":25728,
		"target":34962,
		"byteStride":32
	},
	{
		"buffer":1,
		"byteOffset":0,
		"byteLength":120,
		"target":34963
	},
	{
		"buffer":1,
		"byteOffset":120,
		"byteLength":1920,
		"target":34962,
		"byteStride":32
	},
	{
		"buffer":2,
		"byteOffset":0,
		"byteLength":3648,
		"target":34963
	},
	{
		"buffer":2,
		"byteOffset":3648,
		"byteLength":58368,
		"target":34962,
		"byteStride":32
	},
	{
		"buffer":3,
		"byteOffset":0,
		"byteLength":3624,
		"target":34963
	},
	{
		"buffer":3,
		"byteOffset":3624,
		"byteLength":57984,
		"target":34962,
		"byteStride":32
	},
	{
		"buffer":4,
		"byteOffset":0,
		"byteLength":1248,
		"target":34963
	},
	{
		"buffer":4,
		"byteOffset":1248,
		"byteLength":19968,
		"target":34962,
		"byteStride":32
	},
	{
		"buffer":5,
		"byteOffset":0,
		"byteLength":144,
		"target":34963
	},
	{
		"buffer":5,
		"byteOffset":144,
		"byteLength":2304,
		"target":34962,
		"byteStride":32
	},
	{
		"buffer":6,
		"byteOffset":0,
		"byteLength":864,
		"target":34963
	},
	{
		"buffer":6,
		"byteOffset":864,
		"byteLength":13824,
		"target":34962,
		"byteStride":32
	},
	{
		"buffer":7,
		"byteOffset":0,
		"byteLength":3456,
		"target":34963
	},
	{
		"buffer":7,
		"byteOffset":3456,
		"byteLength":55296,
		"target":34962,
		"byteStride":32
	},
	{
		"buffer":8,
		"byteOffset":0,
		"byteLength":14592,
		"target":34963
	},
	{
		"buffer":8,
		"byteOffset":14592,
		"byteLength":233472,
		"target":34962,
		"byteStride":32
	},
	{
		"buffer":9,
		"byteOffset":0,
		"byteLength":7272,
		"target":34963
	},
	{
		"buffer":9,
		"byteOffset":7272,
		"byteLength":116352,
		"target":34962,
		"byteStride":32
	},
	{
		"buffer":10,
		"byteOffset":0,
		"byteLength":14592,
		"target":34963
	},
	{
		"buffer":10,
		"byteOffset":14592,
		"byteLength":233472,
		"target":34962,
		"byteStride":32
	},
	{
		"buffer":11,
		"byteOffset":0,
		"byteLength":96,
		"target":34963
	},
	{
		"buffer":11,
		"byteOffset":96,
		"byteLength":1152,
		"target":34962,
		"byteStride":24
	}],
	"buffers":[{
		"uri":"data:application/octet-stream;base64,",
		"byteLength":27336
	},
	{
		"uri":"data:application/octet-stream;base64,",
		"byteLength":2040
	},
	{
		"uri":"data:application/octet-stream;base64,",
		"byteLength":62016
	},
	{
		"uri":"data:application/octet-stream;base64,",
		"byteLength":61608
	},
	{
		"uri":"data:application/octet-stream;base64,",
		"byteLength":21216
	},
	{
		"uri":"data:application/octet-stream;base64,",
		"byteLength":2448
	},
	{
		"uri":"data:application/octet-stream;base64,",
		"byteLength":14688
	},
	{
		"uri":"data:application/octet-stream;base64,",
		"byteLength":58752
	},
	{
		"uri":"data:application/octet-stream;base64,",
		"byteLength":248064
	},
	{
		"uri":"data:application/octet-stream;base64,",
		"byteLength":123624
	},
	{
		"uri":"data:application/octet-stream;base64,",
		"byteLength":248064
	},
	{
		"uri":"data:application/octet-stream;base64,",
		"byteLength":1248
	}],
	"materials":[{
		"pbrMetallicRoughness":{
			"baseColorFactor":[0.0,
			0.0,
			1.0,
			1.0],
			"metallicFactor":0.0,
			"roughnessFactor":0.30000001192092898
		},
		"emissiveFactor":[0.0,
		0.0,
		0.0],
		"alphaMode":"OPAQUE",
		"doubleSided":false,
		"name":"RS OpenPBR.3"
	},
	{
		"pbrMetallicRoughness":{
			"baseColorFactor":[0.1095596133190118,
			0.1976369495166487,
			0.28571428571428578,
			1.0],
			"metallicFactor":0.0,
			"roughnessFactor":0.30000001192092898
		},
		"emissiveFactor":[0.0,
		0.0,
		0.0],
		"alphaMode":"OPAQUE",
		"doubleSided":false,
		"name":"RS OpenPBR.1"
	},
	{
		"pbrMetallicRoughness":{
			"baseColorFactor":[1.0,
			1.0,
			1.0,
			1.0],
			"metallicFactor":0.0,
			"roughnessFactor":0.30000001192092898
		},
		"emissiveFactor":[0.0,
		0.0,
		0.0],
		"alphaMode":"OPAQUE",
		"doubleSided":false,
		"name":"RS OpenPBR.4"
	},
	{
		"pbrMetallicRoughness":{
			"baseColorFactor":[0.1657313011661555,
			0.281500519004131,
			0.397269736842105,
			1.0],
			"metallicFactor":0.0,
			"roughnessFactor":0.30000001192092898
		},
		"emissiveFactor":[0.0,
		0.0,
		0.0],
		"alphaMode":"OPAQUE",
		"doubleSided":false,
		"name":"RS OpenPBR"
	}]
}