{
	"asset":{
		"version":"2.0",
		"generator":"Maxon Cinema 4D TRIAL 2026.0.0 (#200000219)"
	},
	"nodes":[{
		"translation":[0.0,
		0.0,
		-0.06378287076950073],
		"name":"Extrude.17",
		"rotation":[0.0,
		0.0,
		0.0,
		-1.0],
		"scale":[1.0,
		1.0,
		1.0],
		"children":[18]
	},
	{
		"name":"Extrude",
		"children":[19]
	},
	{
		"translation":[0.0,
		-0.007441588677465916,
		0.0],
		"name":"Extrude.1",
		"rotation":[0.0,
		0.0,
		0.0,
		-1.0],
		"scale":[1.0,
		1.0,
		1.0],
		"children":[20]
	},
	{
		"translation":[0.0,
		-0.007441588677465916,
		0.0],
		"name":"Extrude.2",
		"rotation":[0.0,
		0.0,
		0.0,
		-1.0],
		"scale":[1.0,
		1.0,
		1.0],
		"children":[21]
	},
	{
		"translation":[0.0,
		-0.007441588677465916,
		0.0],
		"name":"Extrude.3",
		"rotation":[0.0,
		0.0,
		0.0,
		-1.0],
		"scale":[1.0,
		1.0,
		1.0],
		"children":[22]
	},
	{
		"translation":[0.0,
		-0.007441588677465916,
		0.0],
		"name":"Extrude.4",
		"rotation":[0.0,
		0.0,
		0.0,
		-1.0],
		"scale":[1.0,
		1.0,
		1.0],
		"children":[23]
	},
	{
		"translation":[0.0,
		-0.007441588677465916,
		0.0],
		"name":"Extrude.5",
		"rotation":[0.0,
		0.0,
		0.0,
		-1.0],
		"scale":[1.0,
		1.0,
		1.0],
		"children":[24]
	},
	{
		"translation":[0.0,
		-0.007441588677465916,
		0.0],
		"name":"Extrude.6",
		"rotation":[0.0,
		0.0,
		0.0,
		-1.0],
		"scale":[1.0,
		1.0,
		1.0],
		"children":[25]
	},
	{
		"translation":[0.0,
		-0.007441588677465916,
		0.0],
		"name":"Extrude.7",
		"rotation":[0.0,
		0.0,
		0.0,
		-1.0],
		"scale":[1.0,
		1.0,
		1.0],
		"children":[26]
	},
	{
		"name":"Extrude.8",
		"children":[27]
	},
	{
		"translation":[0.0,
		-0.007441588677465916,
		0.0],
		"name":"Extrude.10",
		"rotation":[0.0,
		0.0,
		0.0,
		-1.0],
		"scale":[1.0,
		1.0,
		1.0],
		"children":[28]
	},
	{
		"translation":[0.0,
		-0.007441588677465916,
		0.0],
		"name":"Extrude.11",
		"rotation":[0.0,
		0.0,
		0.0,
		-1.0],
		"scale":[1.0,
		1.0,
		1.0],
		"children":[29]
	},
	{
		"translation":[0.0,
		-0.007441588677465916,
		0.005594443995505571],
		"name":"Extrude.12",
		"rotation":[0.0,
		0.0,
		0.0,
		-1.0],
		"scale":[1.0,
		1.0,
		1.0],
		"children":[30]
	},
	{
		"translation":[0.0,
		-0.007441588677465916,
		0.0],
		"name":"Extrude.13",
		"rotation":[0.0,
		0.0,
		0.0,
		-1.0],
		"scale":[1.0,
		1.0,
		1.0],
		"children":[31]
	},
	{
		"translation":[0.0,
		-0.007441588677465916,
		0.0],
		"name":"Extrude.14",
		"rotation":[0.0,
		0.0,
		0.0,
		-1.0],
		"scale":[1.0,
		1.0,
		1.0],
		"children":[32]
	},
	{
		"translation":[0.0,
		-0.007441588677465916,
		0.0],
		"name":"Extrude.15",
		"rotation":[0.0,
		0.0,
		0.0,
		-1.0],
		"scale":[1.0,
		1.0,
		1.0],
		"children":[33]
	},
	{
		"name":"Extrude.16",
		"children":[34]
	},
	{
		"translation":[0.0,
		0.0,
		-0.0662684440612793],
		"name":"Extrude.9",
		"rotation":[0.0,
		0.0,
		0.0,
		-1.0],
		"scale":[1.0,
		1.0,
		1.0],
		"children":[35]
	},
	{
		"name":"Extrude.17",
		"mesh":0
	},
	{
		"name":"Extrude",
		"mesh":1
	},
	{
		"name":"Extrude.1",
		"mesh":2
	},
	{
		"name":"Extrude.2",
		"mesh":3
	},
	{
		"name":"Extrude.3",
		"mesh":4
	},
	{
		"name":"Extrude.4",
		"mesh":5
	},
	{
		"name":"Extrude.5",
		"mesh":6
	},
	{
		"name":"Extrude.6",
		"mesh":7
	},
	{
		"name":"Extrude.7",
		"mesh":8
	},
	{
		"name":"Extrude.8",
		"mesh":9
	},
	{
		"name":"Extrude.10",
		"mesh":10
	},
	{
		"name":"Extrude.11",
		"mesh":11
	},
	{
		"name":"Extrude.12",
		"mesh":12
	},
	{
		"name":"Extrude.13",
		"mesh":13
	},
	{
		"name":"Extrude.14",
		"mesh":14
	},
	{
		"name":"Extrude.15",
		"mesh":15
	},
	{
		"name":"Extrude.16",
		"mesh":16
	},
	{
		"name":"Extrude.9",
		"mesh":17
	}],
	"scenes":[{
		"nodes":[0,
		1,
		2,
		3,
		4,
		5,
		6,
		7,
		8,
		9,
		10,
		11,
		12,
		13,
		14,
		15,
		16,
		17]
	}],
	"meshes":[{
		"name":"Extrude.17",
		"primitives":[{
			"attributes":{
				"POSITION":1,
				"NORMAL":2,
				"TEXCOORD_0":3
			},
			"indices":0,
			"material":0
		}]
	},
	{
		"name":"Extrude",
		"primitives":[{
			"attributes":{
				"POSITION":5,
				"NORMAL":6,
				"TEXCOORD_0":7
			},
			"indices":4,
			"material":1
		}]
	},
	{
		"name":"Extrude.1",
		"primitives":[{
			"attributes":{
				"POSITION":9,
				"NORMAL":10,
				"TEXCOORD_0":11
			},
			"indices":8,
			"material":2
		}]
	},
	{
		"name":"Extrude.2",
		"primitives":[{
			"attributes":{
				"POSITION":13,
				"NORMAL":14,
				"TEXCOORD_0":15
			},
			"indices":12,
			"material":2
		}]
	},
	{
		"name":"Extrude.3",
		"primitives":[{
			"attributes":{
				"POSITION":17,
				"NORMAL":18,
				"TEXCOORD_0":19
			},
			"indices":16,
			"material":2
		}]
	},
	{
		"name":"Extrude.4",
		"primitives":[{
			"attributes":{
				"POSITION":21,
				"NORMAL":22,
				"TEXCOORD_0":23
			},
			"indices":20,
			"material":2
		}]
	},
	{
		"name":"Extrude.5",
		"primitives":[{
			"attributes":{
				"POSITION":25,
				"NORMAL":26,
				"TEXCOORD_0":27
			},
			"indices":24,
			"material":2
		}]
	},
	{
		"name":"Extrude.6",
		"primitives":[{
			"attributes":{
				"POSITION":29,
				"NORMAL":30,
				"TEXCOORD_0":31
			},
			"indices":28,
			"material":2
		}]
	},
	{
		"name":"Extrude.7",
		"primitives":[{
			"attributes":{
				"POSITION":33,
				"NORMAL":34,
				"TEXCOORD_0":35
			},
			"indices":32,
			"material":2
		}]
	},
	{
		"name":"Extrude.8",
		"primitives":[{
			"attributes":{
				"POSITION":37,
				"NORMAL":38,
				"TEXCOORD_0":39
			},
			"indices":36,
			"material":1
		}]
	},
	{
		"name":"Extrude.10",
		"primitives":[{
			"attributes":{
				"POSITION":41,
				"NORMAL":42,
				"TEXCOORD_0":43
			},
			"indices":40,
			"material":2
		}]
	},
	{
		"name":"Extrude.11",
		"primitives":[{
			"attributes":{
				"POSITION":45,
				"NORMAL":46,
				"TEXCOORD_0":47
			},
			"indices":44,
			"material":2
		}]
	},
	{
		"name":"Extrude.12",
		"primitives":[{
			"attributes":{
				"POSITION":49,
				"NORMAL":50,
				"TEXCOORD_0":51
			},
			"indices":48,
			"material":2
		}]
	},
	{
		"name":"Extrude.13",
		"primitives":[{
			"attributes":{
				"POSITION":53,
				"NORMAL":54,
				"TEXCOORD_0":55
			},
			"indices":52,
			"material":2
		}]
	},
	{
		"name":"Extrude.14",
		"primitives":[{
			"attributes":{
				"POSITION":57,
				"NORMAL":58,
				"TEXCOORD_0":59
			},
			"indices":56,
			"material":2
		}]
	},
	{
		"name":"Extrude.15",
		"primitives":[{
			"attributes":{
				"POSITION":61,
				"NORMAL":62,
				"TEXCOORD_0":63
			},
			"indices":60,
			"material":2
		}]
	},
	{
		"name":"Extrude.16",
		"primitives":[{
			"attributes":{
				"POSITION":65,
				"NORMAL":66,
				"TEXCOORD_0":67
			},
			"indices":64,
			"material":1
		}]
	},
	{
		"name":"Extrude.9",
		"primitives":[{
			"attributes":{
				"POSITION":69,
				"NORMAL":70,
				"TEXCOORD_0":71
			},
			"indices":68,
			"material":1
		}]
	}],
	"accessors":[{
		"count":3636,
		"bufferView":0,
		"type":"SCALAR",
		"max":[3635],
		"componentType":5123,
		"byteOffset":0,
		"min":[0]
	},
	{
		"count":3636,
		"bufferView":1,
		"type":"VEC3",
		"max":[0.36471647024154665,
		0.20507723093032838,
		0.06499999761581421],
		"componentType":5126,
		"byteOffset":0,
		"min":[0.0,
		0.0,
		0.0]
	},
	{
		"count":3636,
		"bufferView":1,
		"type":"VEC3",
		"max":[1.0,
		1.0,
		1.0],
		"componentType":5126,
		"byteOffset":12,
		"min":[-1.0,
		-1.0,
		-1.0]
	},
	{
		"count":3636,
		"bufferView":1,
		"type":"VEC2",
		"max":[1.0,
		1.0],
		"componentType":5126,
		"byteOffset":24,
		"min":[0.0,
		0.0]
	},
	{
		"count":60,
		"bufferView":2,
		"type":"SCALAR",
		"max":[59],
		"componentType":5123,
		"byteOffset":0,
		"min":[0]
	},
	{
		"count":60,
		"bufferView":3,
		"type":"VEC3",
		"max":[0.35045021772384646,
		0.18813607096672059,
		0.004999999888241291],
		"componentType":5126,
		"byteOffset":0,
		"min":[0.2648527920246124,
		0.1310710906982422,
		0.0]
	},
	{
		"count":60,
		"bufferView":3,
		"type":"VEC3",
		"max":[0.7071068286895752,
		1.0,
		1.0],
		"componentType":5126,
		"byteOffset":12,
		"min":[-0.7071068286895752,
		-1.0,
		-1.0]
	},
	{
		"count":60,
		"bufferView":3,
		"type":"VEC2",
		"max":[1.0,
		1.0],
		"componentType":5126,
		"byteOffset":24,
		"min":[0.0,
		0.0]
	},
	{
		"count":1824,
		"bufferView":4,
		"type":"SCALAR",
		"max":[1823],
		"componentType":5123,
		"byteOffset":0,
		"min":[0]
	},
	{
		"count":1824,
		"bufferView":5,
		"type":"VEC3",
		"max":[0.04802373796701431,
		0.10788845270872116,
		0.004999999888241291],
		"componentType":5126,
		"byteOffset":0,
		"min":[0.0327945239841938,
		0.09237391501665116,
		0.0]
	},
	{
		"count":1824,
		"bufferView":5,
		"type":"VEC3",
		"max":[0.9999960660934448,
		0.9999920129776001,
		1.0],
		"componentType":5126,
		"byteOffset":12,
		"min":[-0.999984622001648,
		-0.9999385476112366,
		-1.0]
	},
	{
		"count":1824,
		"bufferView":5,
		"type":"VEC2",
		"max":[1.0,
		1.0],
		"componentType":5126,
		"byteOffset":24,
		"min":[0.0,
		0.0]
	},
	{
		"count":1812,
		"bufferView":6,
		"type":"SCALAR",
		"max":[1811],
		"componentType":5123,
		"byteOffset":0,
		"min":[0]
	},
	{
		"count":1812,
		"bufferView":7,
		"type":"VEC3",
		"max":[0.030190935358405114,
		0.11311346292495728,
		0.004999999888241291],
		"componentType":5126,
		"byteOffset":0,
		"min":[0.015193548053503037,
		0.09235608577728272,
		0.0]
	},
	{
		"count":1812,
		"bufferView":7,
		"type":"VEC3",
		"max":[1.0,
		1.0,
		1.0],
		"componentType":5126,
		"byteOffset":12,
		"min":[-1.0,
		-1.0,
		-1.0]
	},
	{
		"count":1812,
		"bufferView":7,
		"type":"VEC2",
		"max":[1.0,
		1.0],
		"componentType":5126,
		"byteOffset":24,
		"min":[0.0,
		0.0]
	},
	{
		"count":1704,
		"bufferView":8,
		"type":"SCALAR",
		"max":[1703],
		"componentType":5123,
		"byteOffset":0,
		"min":[0]
	},
	{
		"count":1704,
		"bufferView":9,
		"type":"VEC3",
		"max":[0.19946564733982087,
		0.1747436374425888,
		0.004999999888241291],
		"componentType":5126,
		"byteOffset":0,
		"min":[0.1847478300333023,
		0.15921126306056977,
		0.0]
	},
	{
		"count":1704,
		"bufferView":9,
		"type":"VEC3",
		"max":[0.9999493956565857,
		1.0,
		1.0],
		"componentType":5126,
		"byteOffset":12,
		"min":[-0.9999207854270935,
		-1.0,
		-1.0]
	},
	{
		"count":1704,
		"bufferView":9,
		"type":"VEC2",
		"max":[1.0,
		1.0],
		"componentType":5126,
		"byteOffset":24,
		"min":[0.0,
		0.0]
	},
	{
		"count":36,
		"bufferView":10,
		"type":"SCALAR",
		"max":[35],
		"componentType":5123,
		"byteOffset":0,
		"min":[0]
	},
	{
		"count":36,
		"bufferView":11,
		"type":"VEC3",
		"max":[0.18226906657218934,
		0.17996864020824433,
		0.004999999888241291],
		"componentType":5126,
		"byteOffset":0,
		"min":[0.17822103202342988,
		0.15960358083248139,
		0.0]
	},
	{
		"count":36,
		"bufferView":11,
		"type":"VEC3",
		"max":[1.0,
		1.0,
		1.0],
		"componentType":5126,
		"byteOffset":12,
		"min":[-1.0,
		-1.0,
		-1.0]
	},
	{
		"count":36,
		"bufferView":11,
		"type":"VEC2",
		"max":[1.0,
		1.0],
		"componentType":5126,
		"byteOffset":24,
		"min":[0.0,
		0.0]
	},
	{
		"count":72,
		"bufferView":12,
		"type":"SCALAR",
		"max":[71],
		"componentType":5123,
		"byteOffset":0,
		"min":[0]
	},
	{
		"count":72,
		"bufferView":13,
		"type":"VEC3",
		"max":[0.17492195963859559,
		0.17996864020824433,
		0.004999999888241291],
		"componentType":5126,
		"byteOffset":0,
		"min":[0.1708560734987259,
		0.15960358083248139,
		0.0]
	},
	{
		"count":72,
		"bufferView":13,
		"type":"VEC3",
		"max":[1.0,
		1.0,
		1.0],
		"componentType":5126,
		"byteOffset":12,
		"min":[-1.0,
		-1.0,
		-1.0]
	},
	{
		"count":72,
		"bufferView":13,
		"type":"VEC2",
		"max":[1.0,
		1.0],
		"componentType":5126,
		"byteOffset":24,
		"min":[0.0,
		0.0]
	},
	{
		"count":876,
		"bufferView":14,
		"type":"SCALAR",
		"max":[875],
		"componentType":5123,
		"byteOffset":0,
		"min":[0]
	},
	{
		"count":876,
		"bufferView":15,
		"type":"VEC3",
		"max":[0.16768184304237367,
		0.17996864020824433,
		0.004999999888241291],
		"componentType":5126,
		"byteOffset":0,
		"min":[0.15384358167648316,
		0.15958574414253236,
		0.0]
	},
	{
		"count":876,
		"bufferView":15,
		"type":"VEC3",
		"max":[1.0,
		1.0,
		1.0],
		"componentType":5126,
		"byteOffset":12,
		"min":[-1.0,
		-1.0,
		-1.0]
	},
	{
		"count":876,
		"bufferView":15,
		"type":"VEC2",
		"max":[1.0,
		1.0],
		"componentType":5126,
		"byteOffset":24,
		"min":[0.0,
		0.0]
	},
	{
		"count":192,
		"bufferView":16,
		"type":"SCALAR",
		"max":[191],
		"componentType":5123,
		"byteOffset":0,
		"min":[0]
	},
	{
		"count":192,
		"bufferView":17,
		"type":"VEC3",
		"max":[0.15214946866035462,
		0.174351304769516,
		0.004999999888241291],
		"componentType":5126,
		"byteOffset":0,
		"min":[0.12925215065479279,
		0.15960358083248139,
		0.0]
	},
	{
		"count":192,
		"bufferView":17,
		"type":"VEC3",
		"max":[0.9697349667549133,
		1.0,
		1.0],
		"componentType":5126,
		"byteOffset":12,
		"min":[-0.9711560606956482,
		-1.0,
		-1.0]
	},
	{
		"count":192,
		"bufferView":17,
		"type":"VEC2",
		"max":[1.0,
		1.0],
		"componentType":5126,
		"byteOffset":24,
		"min":[0.0,
		0.0]
	},
	{
		"count":1728,
		"bufferView":18,
		"type":"SCALAR",
		"max":[1727],
		"componentType":5123,
		"byteOffset":0,
		"min":[0]
	},
	{
		"count":1728,
		"bufferView":19,
		"type":"VEC3",
		"max":[0.2514781653881073,
		0.19170261919498444,
		0.004999999888241291],
		"componentType":5126,
		"byteOffset":0,
		"min":[0.11391594260931015,
		0.12750454246997834,
		0.0]
	},
	{
		"count":1728,
		"bufferView":19,
		"type":"VEC3",
		"max":[1.0,
		1.0,
		1.0],
		"componentType":5126,
		"byteOffset":12,
		"min":[-1.0,
		-1.0,
		-1.0]
	},
	{
		"count":1728,
		"bufferView":19,
		"type":"VEC2",
		"max":[1.0,
		1.0],
		"componentType":5126,
		"byteOffset":24,
		"min":[0.0,
		0.0]
	},
	{
		"count":624,
		"bufferView":20,
		"type":"SCALAR",
		"max":[623],
		"componentType":5123,
		"byteOffset":0,
		"min":[0]
	},
	{
		"count":624,
		"bufferView":21,
		"type":"VEC3",
		"max":[0.10107632726430893,
		0.17877385020256043,
		0.004999999888241291],
		"componentType":5126,
		"byteOffset":0,
		"min":[0.09158927202224732,
		0.1594609171152115,
		0.0]
	},
	{
		"count":624,
		"bufferView":21,
		"type":"VEC3",
		"max":[1.0,
		1.0,
		1.0],
		"componentType":5126,
		"byteOffset":12,
		"min":[-1.0,
		-1.0,
		-1.0]
	},
	{
		"count":624,
		"bufferView":21,
		"type":"VEC2",
		"max":[1.0,
		1.0],
		"componentType":5126,
		"byteOffset":24,
		"min":[0.0,
		0.0]
	},
	{
		"count":2592,
		"bufferView":22,
		"type":"SCALAR",
		"max":[2591],
		"componentType":5123,
		"byteOffset":0,
		"min":[0]
	},
	{
		"count":2592,
		"bufferView":23,
		"type":"VEC3",
		"max":[0.09032314270734787,
		0.17477929592132569,
		0.004999999888241291],
		"componentType":5126,
		"byteOffset":0,
		"min":[0.07594990730285645,
		0.1592825949192047,
		0.0]
	},
	{
		"count":2592,
		"bufferView":23,
		"type":"VEC3",
		"max":[1.0,
		0.9999783039093018,
		1.0],
		"componentType":5126,
		"byteOffset":12,
		"min":[-1.0,
		-1.0,
		-1.0]
	},
	{
		"count":2592,
		"bufferView":23,
		"type":"VEC2",
		"max":[1.0,
		1.0],
		"componentType":5126,
		"byteOffset":24,
		"min":[0.0,
		0.0]
	},
	{
		"count":1740,
		"bufferView":24,
		"type":"SCALAR",
		"max":[1739],
		"componentType":5123,
		"byteOffset":0,
		"min":[0]
	},
	{
		"count":1740,
		"bufferView":25,
		"type":"VEC3",
		"max":[0.05777828022837639,
		0.1747436374425888,
		0.0],
		"componentType":5126,
		"byteOffset":0,
		"min":[0.04278089478611946,
		0.15441423654556275,
		-0.004999999888241291]
	},
	{
		"count":1740,
		"bufferView":25,
		"type":"VEC3",
		"max":[1.0,
		1.0,
		1.0],
		"componentType":5126,
		"byteOffset":12,
		"min":[-1.0,
		-1.0,
		-1.0]
	},
	{
		"count":1740,
		"bufferView":25,
		"type":"VEC2",
		"max":[1.0,
		1.0],
		"componentType":5126,
		"byteOffset":24,
		"min":[0.0,
		0.0]
	},
	{
		"count":1704,
		"bufferView":26,
		"type":"SCALAR",
		"max":[1703],
		"componentType":5123,
		"byteOffset":0,
		"min":[0]
	},
	{
		"count":1704,
		"bufferView":27,
		"type":"VEC3",
		"max":[0.07419020682573319,
		0.1747436374425888,
		0.004999999888241291],
		"componentType":5126,
		"byteOffset":0,
		"min":[0.05947239696979523,
		0.15921126306056977,
		0.0]
	},
	{
		"count":1704,
		"bufferView":27,
		"type":"VEC3",
		"max":[0.9999493956565857,
		1.0,
		1.0],
		"componentType":5126,
		"byteOffset":12,
		"min":[-0.9999207854270935,
		-1.0,
		-1.0]
	},
	{
		"count":1704,
		"bufferView":27,
		"type":"VEC2",
		"max":[1.0,
		1.0],
		"componentType":5126,
		"byteOffset":24,
		"min":[0.0,
		0.0]
	},
	{
		"count":1704,
		"bufferView":28,
		"type":"SCALAR",
		"max":[1703],
		"componentType":5123,
		"byteOffset":0,
		"min":[0]
	},
	{
		"count":1704,
		"bufferView":29,
		"type":"VEC3",
		"max":[0.04037921503186226,
		0.1747436374425888,
		0.004999999888241291],
		"componentType":5126,
		"byteOffset":0,
		"min":[0.025661403313279153,
		0.15921126306056977,
		0.0]
	},
	{
		"count":1704,
		"bufferView":29,
		"type":"VEC3",
		"max":[0.9999493956565857,
		1.0,
		1.0],
		"componentType":5126,
		"byteOffset":12,
		"min":[-0.9999207854270935,
		-1.0,
		-1.0]
	},
	{
		"count":1704,
		"bufferView":29,
		"type":"VEC2",
		"max":[1.0,
		1.0],
		"componentType":5126,
		"byteOffset":24,
		"min":[0.0,
		0.0]
	},
	{
		"count":564,
		"bufferView":30,
		"type":"SCALAR",
		"max":[563],
		"componentType":5123,
		"byteOffset":0,
		"min":[0]
	},
	{
		"count":564,
		"bufferView":31,
		"type":"VEC3",
		"max":[0.02528691291809082,
		0.1747436374425888,
		0.004999999888241291],
		"componentType":5126,
		"byteOffset":0,
		"min":[0.015782030299305917,
		0.15958574414253236,
		0.0]
	},
	{
		"count":564,
		"bufferView":31,
		"type":"VEC3",
		"max":[1.0,
		1.0,
		1.0],
		"componentType":5126,
		"byteOffset":12,
		"min":[-1.0,
		-1.0,
		-1.0]
	},
	{
		"count":564,
		"bufferView":31,
		"type":"VEC2",
		"max":[1.0,
		1.0],
		"componentType":5126,
		"byteOffset":24,
		"min":[0.0,
		0.0]
	},
	{
		"count":7296,
		"bufferView":32,
		"type":"SCALAR",
		"max":[7295],
		"componentType":5123,
		"byteOffset":0,
		"min":[0]
	},
	{
		"count":7296,
		"bufferView":33,
		"type":"VEC3",
		"max":[0.3656081259250641,
		0.20596887171268464,
		0.004999999888241291],
		"componentType":5126,
		"byteOffset":0,
		"min":[-0.0008916401420719922,
		-0.0008916401420719922,
		0.0]
	},
	{
		"count":7296,
		"bufferView":33,
		"type":"VEC3",
		"max":[1.0,
		1.0,
		1.0],
		"componentType":5126,
		"byteOffset":12,
		"min":[-1.0,
		-1.0,
		-1.0]
	},
	{
		"count":7296,
		"bufferView":33,
		"type":"VEC2",
		"max":[1.0,
		1.0],
		"componentType":5126,
		"byteOffset":24,
		"min":[0.0,
		0.0]
	},
	{
		"count":7296,
		"bufferView":34,
		"type":"SCALAR",
		"max":[7295],
		"componentType":5123,
		"byteOffset":0,
		"min":[0]
	},
	{
		"count":7296,
		"bufferView":35,
		"type":"VEC3",
		"max":[0.3656081259250641,
		0.20596887171268464,
		0.004999999888241291],
		"componentType":5126,
		"byteOffset":0,
		"min":[-0.0008916401420719922,
		-0.0008916401420719922,
		0.0]
	},
	{
		"count":7296,
		"bufferView":35,
		"type":"VEC3",
		"max":[1.0,
		1.0,
		1.0],
		"componentType":5126,
		"byteOffset":12,
		"min":[-1.0,
		-1.0,
		-1.0]
	},
	{
		"count":7296,
		"bufferView":35,
		"type":"VEC2",
		"max":[1.0,
		1.0],
		"componentType":5126,
		"byteOffset":24,
		"min":[0.0,
		0.0]
	}],
	"bufferViews":[{
		"buffer":0,
		"byteOffset":0,
		"byteLength":7272,
		"target":34963
	},
	{
		"buffer":0,
		"byteOffset":7272,
		"byteLength":116352,
		"target":34962,
		"byteStride":32
	},
	{
		"buffer":1,
		"byteOffset":0,
		"byteLength":120,
		"target":34963
	},
	{
		"buffer":1,
		"byteOffset":120,
		"byteLength":1920,
		"target":34962,
		"byteStride":32
	},
	{
		"buffer":2,
		"byteOffset":0,
		"byteLength":3648,
		"target":34963
	},
	{
		"buffer":2,
		"byteOffset":3648,
		"byteLength":58368,
		"target":34962,
		"byteStride":32
	},
	{
		"buffer":3,
		"byteOffset":0,
		"byteLength":3624,
		"target":34963
	},
	{
		"buffer":3,
		"byteOffset":3624,
		"byteLength":57984,
		"target":34962,
		"byteStride":32
	},
	{
		"buffer":4,
		"byteOffset":0,
		"byteLength":3408,
		"target":34963
	},
	{
		"buffer":4,
		"byteOffset":3408,
		"byteLength":54528,
		"target":34962,
		"byteStride":32
	},
	{
		"buffer":5,
		"byteOffset":0,
		"byteLength":72,
		"target":34963
	},
	{
		"buffer":5,
		"byteOffset":72,
		"byteLength":1152,
		"target":34962,
		"byteStride":32
	},
	{
		"buffer":6,
		"byteOffset":0,
		"byteLength":144,
		"target":34963
	},
	{
		"buffer":6,
		"byteOffset":144,
		"byteLength":2304,
		"target":34962,
		"byteStride":32
	},
	{
		"buffer":7,
		"byteOffset":0,
		"byteLength":1752,
		"target":34963
	},
	{
		"buffer":7,
		"byteOffset":1752,
		"byteLength":28032,
		"target":34962,
		"byteStride":32
	},
	{
		"buffer":8,
		"byteOffset":0,
		"byteLength":384,
		"target":34963
	},
	{
		"buffer":8,
		"byteOffset":384,
		"byteLength":6144,
		"target":34962,
		"byteStride":32
	},
	{
		"buffer":9,
		"byteOffset":0,
		"byteLength":3456,
		"target":34963
	},
	{
		"buffer":9,
		"byteOffset":3456,
		"byteLength":55296,
		"target":34962,
		"byteStride":32
	},
	{
		"buffer":10,
		"byteOffset":0,
		"byteLength":1248,
		"target":34963
	},
	{
		"buffer":10,
		"byteOffset":1248,
		"byteLength":19968,
		"target":34962,
		"byteStride":32
	},
	{
		"buffer":11,
		"byteOffset":0,
		"byteLength":5184,
		"target":34963
	},
	{
		"buffer":11,
		"byteOffset":5184,
		"byteLength":82944,
		"target":34962,
		"byteStride":32
	},
	{
		"buffer":12,
		"byteOffset":0,
		"byteLength":3480,
		"target":34963
	},
	{
		"buffer":12,
		"byteOffset":3480,
		"byteLength":55680,
		"target":34962,
		"byteStride":32
	},
	{
		"buffer":13,
		"byteOffset":0,
		"byteLength":3408,
		"target":34963
	},
	{
		"buffer":13,
		"byteOffset":3408,
		"byteLength":54528,
		"target":34962,
		"byteStride":32
	},
	{
		"buffer":14,
		"byteOffset":0,
		"byteLength":3408,
		"target":34963
	},
	{
		"buffer":14,
		"byteOffset":3408,
		"byteLength":54528,
		"target":34962,
		"byteStride":32
	},
	{
		"buffer":15,
		"byteOffset":0,
		"byteLength":1128,
		"target":34963
	},
	{
		"buffer":15,
		"byteOffset":1128,
		"byteLength":18048,
		"target":34962,
		"byteStride":32
	},
	{
		"buffer":16,
		"byteOffset":0,
		"byteLength":14592,
		"target":34963
	},
	{
		"buffer":16,
		"byteOffset":14592,
		"byteLength":233472,
		"target":34962,
		"byteStride":32
	},
	{
		"buffer":17,
		"byteOffset":0,
		"byteLength":14592,
		"target":34963
	},
	{
		"buffer":17,
		"byteOffset":14592,
		"byteLength":233472,
		"target":34962,
		"byteStride":32
	}],
	"buffers":[{
		"uri":"data:application/octet-stream;base64,",
		"byteLength":123624
	},
	{
		"uri":"data:application/octet-stream;base64,",
		"byteLength":2040
	},
	{
		"uri":"data:application/octet-stream;base64,",
		"byteLength":62016
	},
	{
		"uri":"data:application/octet-stream;base64,",
		"byteLength":61608
	},
	{
		"uri":"data:application/octet-stream;base64,",
		"byteLength":57936
	},
	{
		"uri":"data:application/octet-stream;base64,",
		"byteLength":1224
	},
	{
		"uri":"data:application/octet-stream;base64,",
		"byteLength":2448
	},
	{
		"uri":"data:application/octet-stream;base64,",
		"byteLength":29784
	},
	{
		"uri":"data:application/octet-stream;base64,",
		"byteLength":6528
	},
	{
		"uri":"data:application/octet-stream;base64,",
		"byteLength":58752
	},
	{
		"uri":"data:application/octet-stream;base64,",
		"byteLength":21216
	},
	{
		"uri":"data:application/octet-stream;base64,",
		"byteLength":88128
	},
	{
		"uri":"data:application/octet-stream;base64,",
		"byteLength":59160
	},
	{
		"uri":"data:application/octet-stream;base64,",
		"byteLength":57936
	},
	{
		"uri":"data:application/octet-stream;base64,",
		"byteLength":57936
	},
	{
		"uri":"data:application/octet-stream;base64,",
		"byteLength":19176
	},
	{
		"uri":"data:application/octet-stream;base64,",
		"byteLength":248064
	},
	{
		"uri":"data:application/octet-stream;base64,",
		"byteLength":248064
	}],
	"materials":[{
		"pbrMetallicRoughness":{
			"baseColorFactor":[0.10588235294117648,
			0.39999999999999999,
			0.10588235294117648,
			1.0],
			"metallicFactor":0.0,
			"roughnessFactor":0.30000001192092898
		},
		"emissiveFactor":[0.0,
		0.0,
		0.0],
		"alphaMode":"OPAQUE",
		"doubleSided":false,
		"name":"RS OpenPBR.1"
	},
	{
		"pbrMetallicRoughness":{
			"baseColorFactor":[0.058823529411764618,
			0.28235294117647055,
			0.05882352941176467,
			1.0],
			"metallicFactor":0.0,
			"roughnessFactor":0.30000001192092898
		},
		"emissiveFactor":[0.0,
		0.0,
		0.0],
		"alphaMode":"OPAQUE",
		"doubleSided":false,
		"name":"RS OpenPBR"
	},
	{
		"pbrMetallicRoughness":{
			"baseColorFactor":[1.0,
			1.0,
			1.0,
			1.0],
			"metallicFactor":0.0,
			"roughnessFactor":0.30000001192092898
		},
		"emissiveFactor":[0.0,
		0.0,
		0.0],
		"alphaMode":"OPAQUE",
		"doubleSided":false,
		"name":"RS OpenPBR.2"
	}]
}