{
	"asset":{
		"version":"2.0",
		"generator":"Maxon Cinema 4D TRIAL 2026.0.0 (#200000219)"
	},
	"nodes":[{
		"translation":[0.0,
		-0.016741670668125154,
		0.0],
		"name":"Extrude",
		"rotation":[0.0,
		0.0,
		0.0,
		-1.0],
		"scale":[1.0,
		1.0,
		1.0],
		"children":[18]
	},
	{
		"translation":[0.0,
		-0.016741670668125154,
		0.0],
		"name":"Extrude.1",
		"rotation":[0.0,
		0.0,
		0.0,
		-1.0],
		"scale":[1.0,
		1.0,
		1.0],
		"children":[19]
	},
	{
		"translation":[0.0,
		-0.016741670668125154,
		0.0],
		"name":"Extrude.2",
		"rotation":[0.0,
		0.0,
		0.0,
		-1.0],
		"scale":[1.0,
		1.0,
		1.0],
		"children":[20]
	},
	{
		"translation":[0.0,
		-0.016741670668125154,
		0.0],
		"name":"Extrude.3",
		"rotation":[0.0,
		0.0,
		0.0,
		-1.0],
		"scale":[1.0,
		1.0,
		1.0],
		"children":[21]
	},
	{
		"translation":[0.0,
		-0.016741670668125154,
		0.0],
		"name":"Extrude.4",
		"rotation":[0.0,
		0.0,
		0.0,
		-1.0],
		"scale":[1.0,
		1.0,
		1.0],
		"children":[22]
	},
	{
		"translation":[0.0,
		-0.016741670668125154,
		0.0],
		"name":"Extrude.5",
		"rotation":[0.0,
		0.0,
		0.0,
		-1.0],
		"scale":[1.0,
		1.0,
		1.0],
		"children":[23]
	},
	{
		"translation":[0.0,
		-0.016741670668125154,
		0.0],
		"name":"Extrude.6",
		"rotation":[0.0,
		0.0,
		0.0,
		-1.0],
		"scale":[1.0,
		1.0,
		1.0],
		"children":[24]
	},
	{
		"translation":[0.0,
		-0.016741670668125154,
		0.0],
		"name":"Extrude.7",
		"rotation":[0.0,
		0.0,
		0.0,
		-1.0],
		"scale":[1.0,
		1.0,
		1.0],
		"children":[25]
	},
	{
		"translation":[0.0,
		-0.016741670668125154,
		0.0],
		"name":"Extrude.8",
		"rotation":[0.0,
		0.0,
		0.0,
		-1.0],
		"scale":[1.0,
		1.0,
		1.0],
		"children":[26]
	},
	{
		"translation":[0.0,
		-0.016741670668125154,
		0.0],
		"name":"Extrude.9",
		"rotation":[0.0,
		0.0,
		0.0,
		-1.0],
		"scale":[1.0,
		1.0,
		1.0],
		"children":[27]
	},
	{
		"translation":[0.0,
		-0.016741670668125154,
		0.0],
		"name":"Extrude.10",
		"rotation":[0.0,
		0.0,
		0.0,
		-1.0],
		"scale":[1.0,
		1.0,
		1.0],
		"children":[28]
	},
	{
		"translation":[0.0,
		-0.016741670668125154,
		0.0],
		"name":"Extrude.11",
		"rotation":[0.0,
		0.0,
		0.0,
		-1.0],
		"scale":[1.0,
		1.0,
		1.0],
		"children":[29]
	},
	{
		"translation":[0.0,
		-0.016741670668125154,
		0.0],
		"name":"Extrude.12",
		"rotation":[0.0,
		0.0,
		0.0,
		-1.0],
		"scale":[1.0,
		1.0,
		1.0],
		"children":[30]
	},
	{
		"translation":[0.0,
		-0.016741670668125154,
		0.0],
		"name":"Extrude.13",
		"rotation":[0.0,
		0.0,
		0.0,
		-1.0],
		"scale":[1.0,
		1.0,
		1.0],
		"children":[31]
	},
	{
		"translation":[0.0,
		-0.016741670668125154,
		0.0],
		"name":"Extrude.14",
		"rotation":[0.0,
		0.0,
		0.0,
		-1.0],
		"scale":[1.0,
		1.0,
		1.0],
		"children":[32]
	},
	{
		"name":"Extrude.15",
		"children":[33]
	},
	{
		"translation":[0.0,
		0.0,
		-0.05861402302980423],
		"name":"Extrude.16",
		"rotation":[0.0,
		0.0,
		0.0,
		-1.0],
		"scale":[1.0,
		1.0,
		1.0],
		"children":[34]
	},
	{
		"translation":[0.0,
		0.0,
		-0.0625375285744667],
		"name":"Extrude.17",
		"rotation":[0.0,
		0.0,
		0.0,
		-1.0],
		"scale":[1.0,
		1.0,
		1.0],
		"children":[35]
	},
	{
		"name":"Extrude",
		"mesh":0
	},
	{
		"name":"Extrude.1",
		"mesh":1
	},
	{
		"name":"Extrude.2",
		"mesh":2
	},
	{
		"name":"Extrude.3",
		"mesh":3
	},
	{
		"name":"Extrude.4",
		"mesh":4
	},
	{
		"name":"Extrude.5",
		"mesh":5
	},
	{
		"name":"Extrude.6",
		"mesh":6
	},
	{
		"name":"Extrude.7",
		"mesh":7
	},
	{
		"name":"Extrude.8",
		"mesh":8
	},
	{
		"name":"Extrude.9",
		"mesh":9
	},
	{
		"name":"Extrude.10",
		"mesh":10
	},
	{
		"name":"Extrude.11",
		"mesh":11
	},
	{
		"name":"Extrude.12",
		"mesh":12
	},
	{
		"name":"Extrude.13",
		"mesh":13
	},
	{
		"name":"Extrude.14",
		"mesh":14
	},
	{
		"name":"Extrude.15",
		"mesh":15
	},
	{
		"name":"Extrude.16",
		"mesh":16
	},
	{
		"name":"Extrude.17",
		"mesh":17
	}],
	"scenes":[{
		"nodes":[0,
		1,
		2,
		3,
		4,
		5,
		6,
		7,
		8,
		9,
		10,
		11,
		12,
		13,
		14,
		15,
		16,
		17]
	}],
	"meshes":[{
		"name":"Extrude",
		"primitives":[{
			"attributes":{
				"POSITION":1,
				"NORMAL":2,
				"TEXCOORD_0":3
			},
			"indices":0,
			"material":0
		}]
	},
	{
		"name":"Extrude.1",
		"primitives":[{
			"attributes":{
				"POSITION":5,
				"NORMAL":6,
				"TEXCOORD_0":7
			},
			"indices":4,
			"material":0
		}]
	},
	{
		"name":"Extrude.2",
		"primitives":[{
			"attributes":{
				"POSITION":9,
				"NORMAL":10,
				"TEXCOORD_0":11
			},
			"indices":8,
			"material":0
		}]
	},
	{
		"name":"Extrude.3",
		"primitives":[{
			"attributes":{
				"POSITION":13,
				"NORMAL":14,
				"TEXCOORD_0":15
			},
			"indices":12,
			"material":0
		}]
	},
	{
		"name":"Extrude.4",
		"primitives":[{
			"attributes":{
				"POSITION":17,
				"NORMAL":18,
				"TEXCOORD_0":19
			},
			"indices":16,
			"material":0
		}]
	},
	{
		"name":"Extrude.5",
		"primitives":[{
			"attributes":{
				"POSITION":21,
				"NORMAL":22,
				"TEXCOORD_0":23
			},
			"indices":20,
			"material":0
		}]
	},
	{
		"name":"Extrude.6",
		"primitives":[{
			"attributes":{
				"POSITION":25,
				"NORMAL":26,
				"TEXCOORD_0":27
			},
			"indices":24,
			"material":0
		}]
	},
	{
		"name":"Extrude.7",
		"primitives":[{
			"attributes":{
				"POSITION":29,
				"NORMAL":30,
				"TEXCOORD_0":31
			},
			"indices":28,
			"material":0
		}]
	},
	{
		"name":"Extrude.8",
		"primitives":[{
			"attributes":{
				"POSITION":33,
				"NORMAL":34,
				"TEXCOORD_0":35
			},
			"indices":32,
			"material":0
		}]
	},
	{
		"name":"Extrude.9",
		"primitives":[{
			"attributes":{
				"POSITION":37,
				"NORMAL":38,
				"TEXCOORD_0":39
			},
			"indices":36,
			"material":0
		}]
	},
	{
		"name":"Extrude.10",
		"primitives":[{
			"attributes":{
				"POSITION":41,
				"NORMAL":42,
				"TEXCOORD_0":43
			},
			"indices":40,
			"material":0
		}]
	},
	{
		"name":"Extrude.11",
		"primitives":[{
			"attributes":{
				"POSITION":45,
				"NORMAL":46,
				"TEXCOORD_0":47
			},
			"indices":44,
			"material":0
		}]
	},
	{
		"name":"Extrude.12",
		"primitives":[{
			"attributes":{
				"POSITION":49,
				"NORMAL":50,
				"TEXCOORD_0":51
			},
			"indices":48,
			"material":0
		}]
	},
	{
		"name":"Extrude.13",
		"primitives":[{
			"attributes":{
				"POSITION":53,
				"NORMAL":54,
				"TEXCOORD_0":55
			},
			"indices":52,
			"material":0
		}]
	},
	{
		"name":"Extrude.14",
		"primitives":[{
			"attributes":{
				"POSITION":57,
				"NORMAL":58,
				"TEXCOORD_0":59
			},
			"indices":56,
			"material":0
		}]
	},
	{
		"name":"Extrude.15",
		"primitives":[{
			"attributes":{
				"POSITION":61,
				"NORMAL":62,
				"TEXCOORD_0":63
			},
			"indices":60,
			"material":1
		}]
	},
	{
		"name":"Extrude.16",
		"primitives":[{
			"attributes":{
				"POSITION":65,
				"NORMAL":66,
				"TEXCOORD_0":67
			},
			"indices":64,
			"material":2
		}]
	},
	{
		"name":"Extrude.17",
		"primitives":[{
			"attributes":{
				"POSITION":69,
				"NORMAL":70,
				"TEXCOORD_0":71
			},
			"indices":68,
			"material":1
		}]
	}],
	"accessors":[{
		"count":624,
		"bufferView":0,
		"type":"SCALAR",
		"max":[623],
		"componentType":5123,
		"byteOffset":0,
		"min":[0]
	},
	{
		"count":624,
		"bufferView":1,
		"type":"VEC3",
		"max":[0.6753481030464172,
		0.14955316483974458,
		0.004999999888241291],
		"componentType":5126,
		"byteOffset":0,
		"min":[0.6494741439819336,
		0.09688127040863037,
		0.0]
	},
	{
		"count":624,
		"bufferView":1,
		"type":"VEC3",
		"max":[1.0,
		1.0,
		1.0],
		"componentType":5126,
		"byteOffset":12,
		"min":[-1.0,
		-1.0,
		-1.0]
	},
	{
		"count":624,
		"bufferView":1,
		"type":"VEC2",
		"max":[1.0,
		1.0],
		"componentType":5126,
		"byteOffset":24,
		"min":[0.0,
		0.0]
	},
	{
		"count":2592,
		"bufferView":2,
		"type":"SCALAR",
		"max":[2591],
		"componentType":5123,
		"byteOffset":0,
		"min":[0]
	},
	{
		"count":2592,
		"bufferView":3,
		"type":"VEC3",
		"max":[0.6464101672172546,
		0.13861025869846345,
		0.004999999888241291],
		"componentType":5126,
		"byteOffset":0,
		"min":[0.6091069579124451,
		0.09624901413917542,
		0.0]
	},
	{
		"count":2592,
		"bufferView":3,
		"type":"VEC3",
		"max":[0.9999858140945435,
		1.0,
		1.0],
		"componentType":5126,
		"byteOffset":12,
		"min":[-0.9999750852584839,
		-1.0,
		-1.0]
	},
	{
		"count":2592,
		"bufferView":3,
		"type":"VEC2",
		"max":[1.0,
		1.0],
		"componentType":5126,
		"byteOffset":24,
		"min":[0.0,
		0.0]
	},
	{
		"count":72,
		"bufferView":4,
		"type":"SCALAR",
		"max":[71],
		"componentType":5123,
		"byteOffset":0,
		"min":[0]
	},
	{
		"count":72,
		"bufferView":5,
		"type":"VEC3",
		"max":[0.6026871204376221,
		0.15281172096729279,
		0.004999999888241291],
		"componentType":5126,
		"byteOffset":0,
		"min":[0.5916469097137451,
		0.09727035462856293,
		0.0]
	},
	{
		"count":72,
		"bufferView":5,
		"type":"VEC3",
		"max":[1.0,
		1.0,
		1.0],
		"componentType":5126,
		"byteOffset":12,
		"min":[-1.0,
		-1.0,
		-1.0]
	},
	{
		"count":72,
		"bufferView":5,
		"type":"VEC2",
		"max":[1.0,
		1.0],
		"componentType":5126,
		"byteOffset":24,
		"min":[0.0,
		0.0]
	},
	{
		"count":36,
		"bufferView":6,
		"type":"SCALAR",
		"max":[35],
		"componentType":5123,
		"byteOffset":0,
		"min":[0]
	},
	{
		"count":36,
		"bufferView":7,
		"type":"VEC3",
		"max":[0.5826007723808289,
		0.15281172096729279,
		0.004999999888241291],
		"componentType":5126,
		"byteOffset":0,
		"min":[0.5715606212615967,
		0.09727035462856293,
		0.0]
	},
	{
		"count":36,
		"bufferView":7,
		"type":"VEC3",
		"max":[1.0,
		1.0,
		1.0],
		"componentType":5126,
		"byteOffset":12,
		"min":[-1.0,
		-1.0,
		-1.0]
	},
	{
		"count":36,
		"bufferView":7,
		"type":"VEC2",
		"max":[1.0,
		1.0],
		"componentType":5126,
		"byteOffset":24,
		"min":[0.0,
		0.0]
	},
	{
		"count":588,
		"bufferView":8,
		"type":"SCALAR",
		"max":[587],
		"componentType":5123,
		"byteOffset":0,
		"min":[0]
	},
	{
		"count":588,
		"bufferView":9,
		"type":"VEC3",
		"max":[0.5458325743675232,
		0.1374916434288025,
		0.004999999888241291],
		"componentType":5126,
		"byteOffset":0,
		"min":[0.5045899748802185,
		0.08321478962898255,
		0.0]
	},
	{
		"count":588,
		"bufferView":9,
		"type":"VEC3",
		"max":[0.9495236873626709,
		1.0,
		1.0],
		"componentType":5126,
		"byteOffset":12,
		"min":[-1.0,
		-0.9999679923057556,
		-1.0]
	},
	{
		"count":588,
		"bufferView":9,
		"type":"VEC2",
		"max":[1.0,
		1.0],
		"componentType":5126,
		"byteOffset":24,
		"min":[0.0,
		0.0]
	},
	{
		"count":612,
		"bufferView":10,
		"type":"SCALAR",
		"max":[611],
		"componentType":5123,
		"byteOffset":0,
		"min":[0]
	},
	{
		"count":612,
		"bufferView":11,
		"type":"VEC3",
		"max":[0.5040063261985779,
		0.14955316483974458,
		0.004999999888241291],
		"componentType":5126,
		"byteOffset":0,
		"min":[0.478132426738739,
		0.09688127040863037,
		0.0]
	},
	{
		"count":612,
		"bufferView":11,
		"type":"VEC3",
		"max":[1.0,
		1.0,
		1.0],
		"componentType":5126,
		"byteOffset":12,
		"min":[-1.0,
		-1.0,
		-1.0]
	},
	{
		"count":612,
		"bufferView":11,
		"type":"VEC2",
		"max":[1.0,
		1.0],
		"componentType":5126,
		"byteOffset":24,
		"min":[0.0,
		0.0]
	},
	{
		"count":1716,
		"bufferView":12,
		"type":"SCALAR",
		"max":[1715],
		"componentType":5123,
		"byteOffset":0,
		"min":[0]
	},
	{
		"count":1716,
		"bufferView":13,
		"type":"VEC3",
		"max":[0.47526296973228457,
		0.13856162130832673,
		0.004999999888241291],
		"componentType":5126,
		"byteOffset":0,
		"min":[0.4343607723712921,
		0.0831175148487091,
		0.0]
	},
	{
		"count":1716,
		"bufferView":13,
		"type":"VEC3",
		"max":[1.0,
		1.0,
		1.0],
		"componentType":5126,
		"byteOffset":12,
		"min":[-1.0,
		-1.0,
		-1.0]
	},
	{
		"count":1716,
		"bufferView":13,
		"type":"VEC2",
		"max":[1.0,
		1.0],
		"componentType":5126,
		"byteOffset":24,
		"min":[0.0,
		0.0]
	},
	{
		"count":1728,
		"bufferView":14,
		"type":"SCALAR",
		"max":[1727],
		"componentType":5123,
		"byteOffset":0,
		"min":[0]
	},
	{
		"count":1728,
		"bufferView":15,
		"type":"VEC3",
		"max":[0.42555779218673708,
		0.13861025869846345,
		0.004999999888241291],
		"componentType":5126,
		"byteOffset":0,
		"min":[0.3641315698623657,
		0.09727035462856293,
		0.0]
	},
	{
		"count":1728,
		"bufferView":15,
		"type":"VEC3",
		"max":[1.0,
		1.0,
		1.0],
		"componentType":5126,
		"byteOffset":12,
		"min":[-1.0,
		-1.0,
		-1.0]
	},
	{
		"count":1728,
		"bufferView":15,
		"type":"VEC2",
		"max":[1.0,
		1.0],
		"componentType":5126,
		"byteOffset":24,
		"min":[0.0,
		0.0]
	},
	{
		"count":1704,
		"bufferView":16,
		"type":"SCALAR",
		"max":[1703],
		"componentType":5123,
		"byteOffset":0,
		"min":[0]
	},
	{
		"count":1704,
		"bufferView":17,
		"type":"VEC3",
		"max":[0.35728970170021059,
		0.13856162130832673,
		0.004999999888241291],
		"componentType":5126,
		"byteOffset":0,
		"min":[0.3171499967575073,
		0.0962003841996193,
		0.0]
	},
	{
		"count":1704,
		"bufferView":17,
		"type":"VEC3",
		"max":[0.9999493956565857,
		1.0,
		1.0],
		"componentType":5126,
		"byteOffset":12,
		"min":[-0.9999207854270935,
		-1.0,
		-1.0]
	},
	{
		"count":1704,
		"bufferView":17,
		"type":"VEC2",
		"max":[1.0,
		1.0],
		"componentType":5126,
		"byteOffset":24,
		"min":[0.0,
		0.0]
	},
	{
		"count":1704,
		"bufferView":18,
		"type":"SCALAR",
		"max":[1703],
		"componentType":5123,
		"byteOffset":0,
		"min":[0]
	},
	{
		"count":1704,
		"bufferView":19,
		"type":"VEC3",
		"max":[0.29099994897842409,
		0.13856162130832673,
		0.004999999888241291],
		"componentType":5126,
		"byteOffset":0,
		"min":[0.2508602440357208,
		0.0962003841996193,
		0.0]
	},
	{
		"count":1704,
		"bufferView":19,
		"type":"VEC3",
		"max":[0.9999493956565857,
		1.0,
		1.0],
		"componentType":5126,
		"byteOffset":12,
		"min":[-0.9999207854270935,
		-1.0,
		-1.0]
	},
	{
		"count":1704,
		"bufferView":19,
		"type":"VEC2",
		"max":[1.0,
		1.0],
		"componentType":5126,
		"byteOffset":24,
		"min":[0.0,
		0.0]
	},
	{
		"count":624,
		"bufferView":20,
		"type":"SCALAR",
		"max":[623],
		"componentType":5123,
		"byteOffset":0,
		"min":[0]
	},
	{
		"count":624,
		"bufferView":21,
		"type":"VEC3",
		"max":[0.2476016879081726,
		0.14955316483974458,
		0.004999999888241291],
		"componentType":5126,
		"byteOffset":0,
		"min":[0.22172777354717256,
		0.09688127040863037,
		0.0]
	},
	{
		"count":624,
		"bufferView":21,
		"type":"VEC3",
		"max":[1.0,
		1.0,
		1.0],
		"componentType":5126,
		"byteOffset":12,
		"min":[-1.0,
		-1.0,
		-1.0]
	},
	{
		"count":624,
		"bufferView":21,
		"type":"VEC2",
		"max":[1.0,
		1.0],
		"componentType":5126,
		"byteOffset":24,
		"min":[0.0,
		0.0]
	},
	{
		"count":2592,
		"bufferView":22,
		"type":"SCALAR",
		"max":[2591],
		"componentType":5123,
		"byteOffset":0,
		"min":[0]
	},
	{
		"count":2592,
		"bufferView":23,
		"type":"VEC3",
		"max":[0.21822604537010194,
		0.13865889608860017,
		0.004999999888241291],
		"componentType":5126,
		"byteOffset":0,
		"min":[0.17902608215808869,
		0.09639491885900498,
		0.0]
	},
	{
		"count":2592,
		"bufferView":23,
		"type":"VEC3",
		"max":[1.0,
		0.9999783039093018,
		1.0],
		"componentType":5126,
		"byteOffset":12,
		"min":[-1.0,
		-1.0,
		-1.0]
	},
	{
		"count":2592,
		"bufferView":23,
		"type":"VEC2",
		"max":[1.0,
		1.0],
		"componentType":5126,
		"byteOffset":24,
		"min":[0.0,
		0.0]
	},
	{
		"count":1704,
		"bufferView":24,
		"type":"SCALAR",
		"max":[1703],
		"componentType":5123,
		"byteOffset":0,
		"min":[0]
	},
	{
		"count":1704,
		"bufferView":25,
		"type":"VEC3",
		"max":[0.17427553236484528,
		0.13856162130832673,
		0.004999999888241291],
		"componentType":5126,
		"byteOffset":0,
		"min":[0.13413581252098084,
		0.0962003841996193,
		0.0]
	},
	{
		"count":1704,
		"bufferView":25,
		"type":"VEC3",
		"max":[0.9999493956565857,
		1.0,
		1.0],
		"componentType":5126,
		"byteOffset":12,
		"min":[-0.9999207854270935,
		-1.0,
		-1.0]
	},
	{
		"count":1704,
		"bufferView":25,
		"type":"VEC2",
		"max":[1.0,
		1.0],
		"componentType":5126,
		"byteOffset":24,
		"min":[0.0,
		0.0]
	},
	{
		"count":564,
		"bufferView":26,
		"type":"SCALAR",
		"max":[563],
		"componentType":5123,
		"byteOffset":0,
		"min":[0]
	},
	{
		"count":564,
		"bufferView":27,
		"type":"VEC3",
		"max":[0.13311448693275453,
		0.13856162130832673,
		0.004999999888241291],
		"componentType":5126,
		"byteOffset":0,
		"min":[0.10719193518161774,
		0.09722171723842621,
		0.0]
	},
	{
		"count":564,
		"bufferView":27,
		"type":"VEC3",
		"max":[1.0,
		1.0,
		1.0],
		"componentType":5126,
		"byteOffset":12,
		"min":[-1.0,
		-1.0,
		-1.0]
	},
	{
		"count":564,
		"bufferView":27,
		"type":"VEC2",
		"max":[1.0,
		1.0],
		"componentType":5126,
		"byteOffset":24,
		"min":[0.0,
		0.0]
	},
	{
		"count":1716,
		"bufferView":28,
		"type":"SCALAR",
		"max":[1715],
		"componentType":5123,
		"byteOffset":0,
		"min":[0]
	},
	{
		"count":1716,
		"bufferView":29,
		"type":"VEC3",
		"max":[0.10101526230573654,
		0.13856162130832673,
		0.004999999888241291],
		"componentType":5126,
		"byteOffset":0,
		"min":[0.061377592384815219,
		0.09624901413917542,
		0.0]
	},
	{
		"count":1716,
		"bufferView":29,
		"type":"VEC3",
		"max":[0.9999929666519165,
		1.0,
		1.0],
		"componentType":5126,
		"byteOffset":12,
		"min":[-0.9999011158943176,
		-1.0,
		-1.0]
	},
	{
		"count":1716,
		"bufferView":29,
		"type":"VEC2",
		"max":[1.0,
		1.0],
		"componentType":5126,
		"byteOffset":24,
		"min":[0.0,
		0.0]
	},
	{
		"count":1680,
		"bufferView":30,
		"type":"SCALAR",
		"max":[1679],
		"componentType":5123,
		"byteOffset":0,
		"min":[0]
	},
	{
		"count":1680,
		"bufferView":31,
		"type":"VEC3",
		"max":[0.7287008762359619,
		0.19697247445583344,
		0.004999999888241291],
		"componentType":5126,
		"byteOffset":0,
		"min":[-0.002431758912280202,
		-0.002431758912280202,
		0.0]
	},
	{
		"count":1680,
		"bufferView":31,
		"type":"VEC3",
		"max":[0.9998685717582703,
		1.0,
		1.0],
		"componentType":5126,
		"byteOffset":12,
		"min":[-0.9998685717582703,
		-1.0,
		-1.0]
	},
	{
		"count":1680,
		"bufferView":31,
		"type":"VEC2",
		"max":[1.0,
		1.0],
		"componentType":5126,
		"byteOffset":24,
		"min":[0.0,
		0.0]
	},
	{
		"count":828,
		"bufferView":32,
		"type":"SCALAR",
		"max":[827],
		"componentType":5123,
		"byteOffset":0,
		"min":[0]
	},
	{
		"count":828,
		"bufferView":33,
		"type":"VEC3",
		"max":[0.7262691259384155,
		0.19454070925712586,
		0.05999999865889549],
		"componentType":5126,
		"byteOffset":0,
		"min":[0.0,
		0.0,
		0.0]
	},
	{
		"count":828,
		"bufferView":33,
		"type":"VEC3",
		"max":[0.9998700022697449,
		1.0,
		1.0],
		"componentType":5126,
		"byteOffset":12,
		"min":[-0.9998700022697449,
		-1.0,
		-1.0]
	},
	{
		"count":828,
		"bufferView":33,
		"type":"VEC2",
		"max":[1.0,
		1.0],
		"componentType":5126,
		"byteOffset":24,
		"min":[0.0,
		0.0]
	},
	{
		"count":1680,
		"bufferView":34,
		"type":"SCALAR",
		"max":[1679],
		"componentType":5123,
		"byteOffset":0,
		"min":[0]
	},
	{
		"count":1680,
		"bufferView":35,
		"type":"VEC3",
		"max":[0.7287008762359619,
		0.19697247445583344,
		0.004999999888241291],
		"componentType":5126,
		"byteOffset":0,
		"min":[-0.002431758912280202,
		-0.002431758912280202,
		0.0]
	},
	{
		"count":1680,
		"bufferView":35,
		"type":"VEC3",
		"max":[0.9998685717582703,
		1.0,
		1.0],
		"componentType":5126,
		"byteOffset":12,
		"min":[-0.9998685717582703,
		-1.0,
		-1.0]
	},
	{
		"count":1680,
		"bufferView":35,
		"type":"VEC2",
		"max":[1.0,
		1.0],
		"componentType":5126,
		"byteOffset":24,
		"min":[0.0,
		0.0]
	}],
	"bufferViews":[{
		"buffer":0,
		"byteOffset":0,
		"byteLength":1248,
		"target":34963
	},
	{
		"buffer":0,
		"byteOffset":1248,
		"byteLength":19968,
		"target":34962,
		"byteStride":32
	},
	{
		"buffer":1,
		"byteOffset":0,
		"byteLength":5184,
		"target":34963
	},
	{
		"buffer":1,
		"byteOffset":5184,
		"byteLength":82944,
		"target":34962,
		"byteStride":32
	},
	{
		"buffer":2,
		"byteOffset":0,
		"byteLength":144,
		"target":34963
	},
	{
		"buffer":2,
		"byteOffset":144,
		"byteLength":2304,
		"target":34962,
		"byteStride":32
	},
	{
		"buffer":3,
		"byteOffset":0,
		"byteLength":72,
		"target":34963
	},
	{
		"buffer":3,
		"byteOffset":72,
		"byteLength":1152,
		"target":34962,
		"byteStride":32
	},
	{
		"buffer":4,
		"byteOffset":0,
		"byteLength":1176,
		"target":34963
	},
	{
		"buffer":4,
		"byteOffset":1176,
		"byteLength":18816,
		"target":34962,
		"byteStride":32
	},
	{
		"buffer":5,
		"byteOffset":0,
		"byteLength":1224,
		"target":34963
	},
	{
		"buffer":5,
		"byteOffset":1224,
		"byteLength":19584,
		"target":34962,
		"byteStride":32
	},
	{
		"buffer":6,
		"byteOffset":0,
		"byteLength":3432,
		"target":34963
	},
	{
		"buffer":6,
		"byteOffset":3432,
		"byteLength":54912,
		"target":34962,
		"byteStride":32
	},
	{
		"buffer":7,
		"byteOffset":0,
		"byteLength":3456,
		"target":34963
	},
	{
		"buffer":7,
		"byteOffset":3456,
		"byteLength":55296,
		"target":34962,
		"byteStride":32
	},
	{
		"buffer":8,
		"byteOffset":0,
		"byteLength":3408,
		"target":34963
	},
	{
		"buffer":8,
		"byteOffset":3408,
		"byteLength":54528,
		"target":34962,
		"byteStride":32
	},
	{
		"buffer":9,
		"byteOffset":0,
		"byteLength":3408,
		"target":34963
	},
	{
		"buffer":9,
		"byteOffset":3408,
		"byteLength":54528,
		"target":34962,
		"byteStride":32
	},
	{
		"buffer":10,
		"byteOffset":0,
		"byteLength":1248,
		"target":34963
	},
	{
		"buffer":10,
		"byteOffset":1248,
		"byteLength":19968,
		"target":34962,
		"byteStride":32
	},
	{
		"buffer":11,
		"byteOffset":0,
		"byteLength":5184,
		"target":34963
	},
	{
		"buffer":11,
		"byteOffset":5184,
		"byteLength":82944,
		"target":34962,
		"byteStride":32
	},
	{
		"buffer":12,
		"byteOffset":0,
		"byteLength":3408,
		"target":34963
	},
	{
		"buffer":12,
		"byteOffset":3408,
		"byteLength":54528,
		"target":34962,
		"byteStride":32
	},
	{
		"buffer":13,
		"byteOffset":0,
		"byteLength":1128,
		"target":34963
	},
	{
		"buffer":13,
		"byteOffset":1128,
		"byteLength":18048,
		"target":34962,
		"byteStride":32
	},
	{
		"buffer":14,
		"byteOffset":0,
		"byteLength":3432,
		"target":34963
	},
	{
		"buffer":14,
		"byteOffset":3432,
		"byteLength":54912,
		"target":34962,
		"byteStride":32
	},
	{
		"buffer":15,
		"byteOffset":0,
		"byteLength":3360,
		"target":34963
	},
	{
		"buffer":15,
		"byteOffset":3360,
		"byteLength":53760,
		"target":34962,
		"byteStride":32
	},
	{
		"buffer":16,
		"byteOffset":0,
		"byteLength":1656,
		"target":34963
	},
	{
		"buffer":16,
		"byteOffset":1656,
		"byteLength":26496,
		"target":34962,
		"byteStride":32
	},
	{
		"buffer":17,
		"byteOffset":0,
		"byteLength":3360,
		"target":34963
	},
	{
		"buffer":17,
		"byteOffset":3360,
		"byteLength":53760,
		"target":34962,
		"byteStride":32
	}],
	"buffers":[{
		"uri":"data:application/octet-stream;base64,",
		"byteLength":21216
	},
	{
		"uri":"data:application/octet-stream;base64,",
		"byteLength":88128
	},
	{
		"uri":"data:application/octet-stream;base64,",
		"byteLength":2448
	},
	{
		"uri":"data:application/octet-stream;base64,",
		"byteLength":1224
	},
	{
		"uri":"data:application/octet-stream;base64,",
		"byteLength":19992
	},
	{
		"uri":"data:application/octet-stream;base64,",
		"byteLength":20808
	},
	{
		"uri":"data:application/octet-stream;base64,",
		"byteLength":58344
	},
	{
		"uri":"data:application/octet-stream;base64,",
		"byteLength":58752
	},
	{
		"uri":"data:application/octet-stream;base64,",
		"byteLength":57936
	},
	{
		"uri":"data:application/octet-stream;base64,",
		"byteLength":57936
	},
	{
		"uri":"data:application/octet-stream;base64,",
		"byteLength":21216
	},
	{
		"uri":"data:application/octet-stream;base64,",
		"byteLength":88128
	},
	{
		"uri":"data:application/octet-stream;base64,",
		"byteLength":57936
	},
	{
		"uri":"data:application/octet-stream;base64,",
		"byteLength":19176
	},
	{
		"uri":"data:application/octet-stream;base64,",
		"byteLength":58344
	},
	{
		"uri":"data:application/octet-stream;base64,",
		"byteLength":57120
	},
	{
		"uri":"data:application/octet-stream;base64,",
		"byteLength":28152
	},
	{
		"uri":"data:application/octet-stream;base64,",
		"byteLength":57120
	}],
	"materials":[{
		"pbrMetallicRoughness":{
			"baseColorFactor":[1.0,
			1.0,
			1.0,
			1.0],
			"metallicFactor":0.0,
			"roughnessFactor":0.30000001192092898
		},
		"emissiveFactor":[0.0,
		0.0,
		0.0],
		"alphaMode":"OPAQUE",
		"doubleSided":false,
		"name":"RS OpenPBR.2"
	},
	{
		"pbrMetallicRoughness":{
			"baseColorFactor":[0.15957063822326024,
			0.07171028064316089,
			0.3352913533834583,
			1.0],
			"metallicFactor":0.0,
			"roughnessFactor":0.30000001192092898
		},
		"emissiveFactor":[0.0,
		0.0,
		0.0],
		"alphaMode":"OPAQUE",
		"doubleSided":false,
		"name":"RS OpenPBR.1"
	},
	{
		"pbrMetallicRoughness":{
			"baseColorFactor":[0.21600231018513589,
			0.11905704109898811,
			0.40601503759398507,
			1.0],
			"metallicFactor":0.0,
			"roughnessFactor":0.30000001192092898
		},
		"emissiveFactor":[0.0,
		0.0,
		0.0],
		"alphaMode":"OPAQUE",
		"doubleSided":false,
		"name":"RS OpenPBR"
	}]
}