{
	"asset":{
		"version":"2.0",
		"generator":"Maxon Cinema 4D TRIAL 2026.0.0 (#200000219)"
	},
	"nodes":[{
		"name":"Extrude",
		"children":[11]
	},
	{
		"translation":[0.0,
		-0.01888454146683216,
		0.0],
		"name":"Extrude.1",
		"rotation":[0.0,
		0.0,
		0.0,
		-1.0],
		"scale":[1.0,
		1.0,
		1.0],
		"children":[12]
	},
	{
		"translation":[0.0,
		-0.01888454146683216,
		0.0],
		"name":"Extrude.2",
		"rotation":[0.0,
		0.0,
		0.0,
		-1.0],
		"scale":[1.0,
		1.0,
		1.0],
		"children":[13]
	},
	{
		"translation":[0.0,
		-0.01888454146683216,
		0.0],
		"name":"Extrude.3",
		"rotation":[0.0,
		0.0,
		0.0,
		-1.0],
		"scale":[1.0,
		1.0,
		1.0],
		"children":[14]
	},
	{
		"translation":[0.0,
		-0.01888454146683216,
		0.0],
		"name":"Extrude.4",
		"rotation":[0.0,
		0.0,
		0.0,
		-1.0],
		"scale":[1.0,
		1.0,
		1.0],
		"children":[15]
	},
	{
		"translation":[0.0,
		-0.01888454146683216,
		0.0],
		"name":"Extrude.5",
		"rotation":[0.0,
		0.0,
		0.0,
		-1.0],
		"scale":[1.0,
		1.0,
		1.0],
		"children":[16]
	},
	{
		"translation":[0.0,
		-0.01888454146683216,
		0.0],
		"name":"Extrude.6",
		"rotation":[0.0,
		0.0,
		0.0,
		-1.0],
		"scale":[1.0,
		1.0,
		1.0],
		"children":[17]
	},
	{
		"translation":[0.0,
		-0.01888454146683216,
		0.0],
		"name":"Extrude.7",
		"rotation":[0.0,
		0.0,
		0.0,
		-1.0],
		"scale":[1.0,
		1.0,
		1.0],
		"children":[18]
	},
	{
		"translation":[0.0,
		0.0,
		-0.04051065817475319],
		"name":"Extrude.9",
		"rotation":[0.0,
		0.0,
		0.0,
		-1.0],
		"scale":[1.0,
		1.0,
		1.0],
		"children":[19]
	},
	{
		"translation":[-0.007405782584100962,
		-0.006547719705849886,
		-0.005541900638490915],
		"name":"Extrude.11",
		"rotation":[0.0,
		0.0,
		0.0,
		-1.0],
		"scale":[1.0,
		1.0,
		1.0],
		"children":[20]
	},
	{
		"translation":[-0.007405782584100962,
		-0.006547719705849886,
		-0.059790901839733127],
		"name":"Extrude.8",
		"rotation":[0.0,
		0.0,
		0.0,
		-1.0],
		"scale":[1.0,
		1.0,
		1.0],
		"children":[21]
	},
	{
		"name":"Extrude",
		"mesh":0
	},
	{
		"name":"Extrude.1",
		"mesh":1
	},
	{
		"name":"Extrude.2",
		"mesh":2
	},
	{
		"name":"Extrude.3",
		"mesh":3
	},
	{
		"name":"Extrude.4",
		"mesh":4
	},
	{
		"name":"Extrude.5",
		"mesh":5
	},
	{
		"name":"Extrude.6",
		"mesh":6
	},
	{
		"name":"Extrude.7",
		"mesh":7
	},
	{
		"name":"Extrude.9",
		"mesh":8
	},
	{
		"name":"Extrude.11",
		"mesh":9
	},
	{
		"name":"Extrude.8",
		"mesh":10
	}],
	"scenes":[{
		"nodes":[0,
		1,
		2,
		3,
		4,
		5,
		6,
		7,
		8,
		9,
		10]
	}],
	"meshes":[{
		"name":"Extrude",
		"primitives":[{
			"attributes":{
				"POSITION":1,
				"NORMAL":2,
				"TEXCOORD_0":3
			},
			"indices":0,
			"material":0
		}]
	},
	{
		"name":"Extrude.1",
		"primitives":[{
			"attributes":{
				"POSITION":5,
				"NORMAL":6,
				"TEXCOORD_0":7
			},
			"indices":4,
			"material":1
		}]
	},
	{
		"name":"Extrude.2",
		"primitives":[{
			"attributes":{
				"POSITION":9,
				"NORMAL":10,
				"TEXCOORD_0":11
			},
			"indices":8,
			"material":1
		}]
	},
	{
		"name":"Extrude.3",
		"primitives":[{
			"attributes":{
				"POSITION":13,
				"NORMAL":14,
				"TEXCOORD_0":15
			},
			"indices":12,
			"material":1
		}]
	},
	{
		"name":"Extrude.4",
		"primitives":[{
			"attributes":{
				"POSITION":17,
				"NORMAL":18,
				"TEXCOORD_0":19
			},
			"indices":16,
			"material":1
		}]
	},
	{
		"name":"Extrude.5",
		"primitives":[{
			"attributes":{
				"POSITION":21,
				"NORMAL":22,
				"TEXCOORD_0":23
			},
			"indices":20,
			"material":1
		}]
	},
	{
		"name":"Extrude.6",
		"primitives":[{
			"attributes":{
				"POSITION":25,
				"NORMAL":26,
				"TEXCOORD_0":27
			},
			"indices":24,
			"material":1
		}]
	},
	{
		"name":"Extrude.7",
		"primitives":[{
			"attributes":{
				"POSITION":29,
				"NORMAL":30,
				"TEXCOORD_0":31
			},
			"indices":28,
			"material":1
		}]
	},
	{
		"name":"Extrude.9",
		"primitives":[{
			"attributes":{
				"POSITION":33,
				"NORMAL":34,
				"TEXCOORD_0":35
			},
			"indices":32,
			"material":2
		}]
	},
	{
		"name":"Extrude.11",
		"primitives":[{
			"attributes":{
				"POSITION":37,
				"NORMAL":38,
				"TEXCOORD_0":39
			},
			"indices":36,
			"material":0
		}]
	},
	{
		"name":"Extrude.8",
		"primitives":[{
			"attributes":{
				"POSITION":41,
				"NORMAL":42,
				"TEXCOORD_0":43
			},
			"indices":40,
			"material":0
		}]
	}],
	"accessors":[{
		"count":828,
		"bufferView":0,
		"type":"SCALAR",
		"max":[827],
		"componentType":5123,
		"byteOffset":0,
		"min":[0]
	},
	{
		"count":828,
		"bufferView":1,
		"type":"VEC3",
		"max":[0.33302003145217898,
		0.17630472779273988,
		0.004999999888241291],
		"componentType":5126,
		"byteOffset":0,
		"min":[0.09794706851243973,
		0.019589412957429887,
		0.0]
	},
	{
		"count":828,
		"bufferView":1,
		"type":"VEC3",
		"max":[0.9998700022697449,
		1.0,
		1.0],
		"componentType":5126,
		"byteOffset":12,
		"min":[-0.9998700022697449,
		-1.0,
		-1.0]
	},
	{
		"count":828,
		"bufferView":1,
		"type":"VEC2",
		"max":[1.0,
		1.0],
		"componentType":5126,
		"byteOffset":24,
		"min":[0.0,
		0.0]
	},
	{
		"count":588,
		"bufferView":2,
		"type":"SCALAR",
		"max":[587],
		"componentType":5123,
		"byteOffset":0,
		"min":[0]
	},
	{
		"count":588,
		"bufferView":3,
		"type":"VEC3",
		"max":[0.6887637972831726,
		0.13844817876815797,
		0.004999999888241291],
		"componentType":5126,
		"byteOffset":0,
		"min":[0.6472342610359192,
		0.08379371464252472,
		0.0]
	},
	{
		"count":588,
		"bufferView":3,
		"type":"VEC3",
		"max":[0.9495236873626709,
		1.0,
		1.0],
		"componentType":5126,
		"byteOffset":12,
		"min":[-1.0,
		-0.9999679923057556,
		-1.0]
	},
	{
		"count":588,
		"bufferView":3,
		"type":"VEC2",
		"max":[1.0,
		1.0],
		"componentType":5126,
		"byteOffset":24,
		"min":[0.0,
		0.0]
	},
	{
		"count":612,
		"bufferView":4,
		"type":"SCALAR",
		"max":[611],
		"componentType":5123,
		"byteOffset":0,
		"min":[0]
	},
	{
		"count":612,
		"bufferView":5,
		"type":"VEC3",
		"max":[0.6466465592384338,
		0.1505936235189438,
		0.004999999888241291],
		"componentType":5126,
		"byteOffset":0,
		"min":[0.6205926537513733,
		0.09755527973175049,
		0.0]
	},
	{
		"count":612,
		"bufferView":5,
		"type":"VEC3",
		"max":[1.0,
		1.0,
		1.0],
		"componentType":5126,
		"byteOffset":12,
		"min":[-1.0,
		-1.0,
		-1.0]
	},
	{
		"count":612,
		"bufferView":5,
		"type":"VEC2",
		"max":[1.0,
		1.0],
		"componentType":5126,
		"byteOffset":24,
		"min":[0.0,
		0.0]
	},
	{
		"count":1716,
		"bufferView":6,
		"type":"SCALAR",
		"max":[1715],
		"componentType":5123,
		"byteOffset":0,
		"min":[0]
	},
	{
		"count":1716,
		"bufferView":7,
		"type":"VEC3",
		"max":[0.6176542043685913,
		0.1395256072282791,
		0.004999999888241291],
		"componentType":5126,
		"byteOffset":0,
		"min":[0.5764674544334412,
		0.08369576930999756,
		0.0]
	},
	{
		"count":1716,
		"bufferView":7,
		"type":"VEC3",
		"max":[1.0,
		1.0,
		1.0],
		"componentType":5126,
		"byteOffset":12,
		"min":[-1.0,
		-1.0,
		-1.0]
	},
	{
		"count":1716,
		"bufferView":7,
		"type":"VEC2",
		"max":[1.0,
		1.0],
		"componentType":5126,
		"byteOffset":24,
		"min":[0.0,
		0.0]
	},
	{
		"count":1728,
		"bufferView":8,
		"type":"SCALAR",
		"max":[1727],
		"componentType":5123,
		"byteOffset":0,
		"min":[0]
	},
	{
		"count":1728,
		"bufferView":9,
		"type":"VEC3",
		"max":[0.5676522254943848,
		0.1395745724439621,
		0.004999999888241291],
		"componentType":5126,
		"byteOffset":0,
		"min":[0.5057986378669739,
		0.09794706851243973,
		0.0]
	},
	{
		"count":1728,
		"bufferView":9,
		"type":"VEC3",
		"max":[1.0,
		1.0,
		1.0],
		"componentType":5126,
		"byteOffset":12,
		"min":[-1.0,
		-1.0,
		-1.0]
	},
	{
		"count":1728,
		"bufferView":9,
		"type":"VEC2",
		"max":[1.0,
		1.0],
		"componentType":5126,
		"byteOffset":24,
		"min":[0.0,
		0.0]
	},
	{
		"count":1704,
		"bufferView":10,
		"type":"SCALAR",
		"max":[1703],
		"componentType":5123,
		"byteOffset":0,
		"min":[0]
	},
	{
		"count":1704,
		"bufferView":11,
		"type":"VEC3",
		"max":[0.49890920519828799,
		0.1395256072282791,
		0.004999999888241291],
		"componentType":5126,
		"byteOffset":0,
		"min":[0.4584902226924896,
		0.09686965495347977,
		0.0]
	},
	{
		"count":1704,
		"bufferView":11,
		"type":"VEC3",
		"max":[0.9999493956565857,
		1.0,
		1.0],
		"componentType":5126,
		"byteOffset":12,
		"min":[-0.9999207854270935,
		-1.0,
		-1.0]
	},
	{
		"count":1704,
		"bufferView":11,
		"type":"VEC2",
		"max":[1.0,
		1.0],
		"componentType":5126,
		"byteOffset":24,
		"min":[0.0,
		0.0]
	},
	{
		"count":2592,
		"bufferView":12,
		"type":"SCALAR",
		"max":[2591],
		"componentType":5123,
		"byteOffset":0,
		"min":[0]
	},
	{
		"count":2592,
		"bufferView":13,
		"type":"VEC3",
		"max":[0.4318976104259491,
		0.1395745724439621,
		0.004999999888241291],
		"componentType":5126,
		"byteOffset":0,
		"min":[0.39433491230010989,
		0.09691862761974335,
		0.0]
	},
	{
		"count":2592,
		"bufferView":13,
		"type":"VEC3",
		"max":[0.9999858140945435,
		1.0,
		1.0],
		"componentType":5126,
		"byteOffset":12,
		"min":[-0.9999750852584839,
		-1.0,
		-1.0]
	},
	{
		"count":2592,
		"bufferView":13,
		"type":"VEC2",
		"max":[1.0,
		1.0],
		"componentType":5126,
		"byteOffset":24,
		"min":[0.0,
		0.0]
	},
	{
		"count":72,
		"bufferView":14,
		"type":"SCALAR",
		"max":[71],
		"componentType":5123,
		"byteOffset":0,
		"min":[0]
	},
	{
		"count":72,
		"bufferView":15,
		"type":"VEC3",
		"max":[0.3878704011440277,
		0.15387484431266786,
		0.004999999888241291],
		"componentType":5126,
		"byteOffset":0,
		"min":[0.37675338983535769,
		0.09794706851243973,
		0.0]
	},
	{
		"count":72,
		"bufferView":15,
		"type":"VEC3",
		"max":[1.0,
		1.0,
		1.0],
		"componentType":5126,
		"byteOffset":12,
		"min":[-1.0,
		-1.0,
		-1.0]
	},
	{
		"count":72,
		"bufferView":15,
		"type":"VEC2",
		"max":[1.0,
		1.0],
		"componentType":5126,
		"byteOffset":24,
		"min":[0.0,
		0.0]
	},
	{
		"count":132,
		"bufferView":16,
		"type":"SCALAR",
		"max":[131],
		"componentType":5123,
		"byteOffset":0,
		"min":[0]
	},
	{
		"count":132,
		"bufferView":17,
		"type":"VEC3",
		"max":[0.7928241491317749,
		0.19972243905067445,
		0.04051065817475319],
		"componentType":5126,
		"byteOffset":0,
		"min":[-0.003501306986436248,
		-0.002465709112584591,
		-0.019489342346787454]
	},
	{
		"count":132,
		"bufferView":17,
		"type":"VEC3",
		"max":[0.7071068286895752,
		1.0,
		1.0],
		"componentType":5126,
		"byteOffset":12,
		"min":[-0.7071068286895752,
		-1.0,
		-1.0]
	},
	{
		"count":132,
		"bufferView":17,
		"type":"VEC2",
		"max":[1.0,
		1.0],
		"componentType":5126,
		"byteOffset":24,
		"min":[0.0,
		0.0]
	},
	{
		"count":132,
		"bufferView":18,
		"type":"SCALAR",
		"max":[131],
		"componentType":5123,
		"byteOffset":0,
		"min":[0]
	},
	{
		"count":132,
		"bufferView":19,
		"type":"VEC3",
		"max":[0.8143787384033203,
		0.21372273564338685,
		0.005387710407376289],
		"componentType":5126,
		"byteOffset":0,
		"min":[-0.0035964976996183397,
		-0.002638552337884903,
		0.0]
	},
	{
		"count":132,
		"bufferView":19,
		"type":"VEC3",
		"max":[0.7214279174804688,
		1.0,
		1.0],
		"componentType":5126,
		"byteOffset":12,
		"min":[-0.7214279174804688,
		-1.0,
		-1.0]
	},
	{
		"count":132,
		"bufferView":19,
		"type":"VEC2",
		"max":[1.0,
		1.0],
		"componentType":5126,
		"byteOffset":24,
		"min":[0.0,
		0.0]
	},
	{
		"count":132,
		"bufferView":20,
		"type":"SCALAR",
		"max":[131],
		"componentType":5123,
		"byteOffset":0,
		"min":[0]
	},
	{
		"count":132,
		"bufferView":21,
		"type":"VEC3",
		"max":[0.8143787384033203,
		0.21372273564338685,
		0.005387710407376289],
		"componentType":5126,
		"byteOffset":0,
		"min":[-0.0035964976996183397,
		-0.002638552337884903,
		0.0]
	},
	{
		"count":132,
		"bufferView":21,
		"type":"VEC3",
		"max":[0.7214279174804688,
		1.0,
		1.0],
		"componentType":5126,
		"byteOffset":12,
		"min":[-0.7214279174804688,
		-1.0,
		-1.0]
	},
	{
		"count":132,
		"bufferView":21,
		"type":"VEC2",
		"max":[1.0,
		1.0],
		"componentType":5126,
		"byteOffset":24,
		"min":[0.0,
		0.0]
	}],
	"bufferViews":[{
		"buffer":0,
		"byteOffset":0,
		"byteLength":1656,
		"target":34963
	},
	{
		"buffer":0,
		"byteOffset":1656,
		"byteLength":26496,
		"target":34962,
		"byteStride":32
	},
	{
		"buffer":1,
		"byteOffset":0,
		"byteLength":1176,
		"target":34963
	},
	{
		"buffer":1,
		"byteOffset":1176,
		"byteLength":18816,
		"target":34962,
		"byteStride":32
	},
	{
		"buffer":2,
		"byteOffset":0,
		"byteLength":1224,
		"target":34963
	},
	{
		"buffer":2,
		"byteOffset":1224,
		"byteLength":19584,
		"target":34962,
		"byteStride":32
	},
	{
		"buffer":3,
		"byteOffset":0,
		"byteLength":3432,
		"target":34963
	},
	{
		"buffer":3,
		"byteOffset":3432,
		"byteLength":54912,
		"target":34962,
		"byteStride":32
	},
	{
		"buffer":4,
		"byteOffset":0,
		"byteLength":3456,
		"target":34963
	},
	{
		"buffer":4,
		"byteOffset":3456,
		"byteLength":55296,
		"target":34962,
		"byteStride":32
	},
	{
		"buffer":5,
		"byteOffset":0,
		"byteLength":3408,
		"target":34963
	},
	{
		"buffer":5,
		"byteOffset":3408,
		"byteLength":54528,
		"target":34962,
		"byteStride":32
	},
	{
		"buffer":6,
		"byteOffset":0,
		"byteLength":5184,
		"target":34963
	},
	{
		"buffer":6,
		"byteOffset":5184,
		"byteLength":82944,
		"target":34962,
		"byteStride":32
	},
	{
		"buffer":7,
		"byteOffset":0,
		"byteLength":144,
		"target":34963
	},
	{
		"buffer":7,
		"byteOffset":144,
		"byteLength":2304,
		"target":34962,
		"byteStride":32
	},
	{
		"buffer":8,
		"byteOffset":0,
		"byteLength":264,
		"target":34963
	},
	{
		"buffer":8,
		"byteOffset":264,
		"byteLength":4224,
		"target":34962,
		"byteStride":32
	},
	{
		"buffer":9,
		"byteOffset":0,
		"byteLength":264,
		"target":34963
	},
	{
		"buffer":9,
		"byteOffset":264,
		"byteLength":4224,
		"target":34962,
		"byteStride":32
	},
	{
		"buffer":10,
		"byteOffset":0,
		"byteLength":264,
		"target":34963
	},
	{
		"buffer":10,
		"byteOffset":264,
		"byteLength":4224,
		"target":34962,
		"byteStride":32
	}],
	"buffers":[{
		"uri":"data:application/octet-stream;base64,",
		"byteLength":28152
	},
	{
		"uri":"data:application/octet-stream;base64,",
		"byteLength":19992
	},
	{
		"uri":"data:application/octet-stream;base64,",
		"byteLength":20808
	},
	{
		"uri":"data:application/octet-stream;base64,",
		"byteLength":58344
	},
	{
		"uri":"data:application/octet-stream;base64,",
		"byteLength":58752
	},
	{
		"uri":"data:application/octet-stream;base64,",
		"byteLength":57936
	},
	{
		"uri":"data:application/octet-stream;base64,",
		"byteLength":88128
	},
	{
		"uri":"data:application/octet-stream;base64,",
		"byteLength":2448
	},
	{
		"uri":"data:application/octet-stream;base64,",
		"byteLength":4488
	},
	{
		"uri":"data:application/octet-stream;base64,",
		"byteLength":4488
	},
	{
		"uri":"data:application/octet-stream;base64,",
		"byteLength":4488
	}],
	"materials":[{
		"pbrMetallicRoughness":{
			"baseColorFactor":[0.16078431372549016,
			0.07058823529411763,
			0.33333333333333339,
			1.0],
			"metallicFactor":0.0,
			"roughnessFactor":0.30000001192092898
		},
		"emissiveFactor":[0.0,
		0.0,
		0.0],
		"alphaMode":"OPAQUE",
		"doubleSided":false,
		"name":"RS OpenPBR.2"
	},
	{
		"pbrMetallicRoughness":{
			"baseColorFactor":[1.0,
			1.0,
			1.0,
			1.0],
			"metallicFactor":0.0,
			"roughnessFactor":0.30000001192092898
		},
		"emissiveFactor":[0.0,
		0.0,
		0.0],
		"alphaMode":"OPAQUE",
		"doubleSided":false,
		"name":"RS OpenPBR.4"
	},
	{
		"pbrMetallicRoughness":{
			"baseColorFactor":[0.21568627450980394,
			0.11764705882352943,
			0.40784313725490198,
			1.0],
			"metallicFactor":0.0,
			"roughnessFactor":0.30000001192092898
		},
		"emissiveFactor":[0.0,
		0.0,
		0.0],
		"alphaMode":"OPAQUE",
		"doubleSided":false,
		"name":"RS OpenPBR"
	}]
}