{
	"asset":{
		"version":"2.0",
		"generator":"Maxon Cinema 4D TRIAL 2026.0.0 (#200000219)"
	},
	"nodes":[{
		"name":"Extrude",
		"children":[17]
	},
	{
		"name":"Extrude.1",
		"children":[18]
	},
	{
		"translation":[0.0,
		-0.01911984570324421,
		0.0],
		"name":"Extrude.2",
		"rotation":[0.0,
		0.0,
		0.0,
		-1.0],
		"scale":[1.0,
		1.0,
		1.0],
		"children":[19]
	},
	{
		"name":"Extrude.3",
		"children":[20]
	},
	{
		"translation":[0.0,
		-0.01911984570324421,
		0.0],
		"name":"Extrude.5",
		"rotation":[0.0,
		0.0,
		0.0,
		-1.0],
		"scale":[1.0,
		1.0,
		1.0],
		"children":[21]
	},
	{
		"translation":[0.0,
		-0.01911984570324421,
		0.0],
		"name":"Extrude.6",
		"rotation":[0.0,
		0.0,
		0.0,
		-1.0],
		"scale":[1.0,
		1.0,
		1.0],
		"children":[22]
	},
	{
		"translation":[0.0,
		-0.01911984570324421,
		0.0],
		"name":"Extrude.7",
		"rotation":[0.0,
		0.0,
		0.0,
		-1.0],
		"scale":[1.0,
		1.0,
		1.0],
		"children":[23]
	},
	{
		"name":"Extrude.8",
		"children":[24]
	},
	{
		"translation":[0.0,
		-0.01911984570324421,
		0.0],
		"name":"Extrude.10",
		"rotation":[0.0,
		0.0,
		0.0,
		-1.0],
		"scale":[1.0,
		1.0,
		1.0],
		"children":[25]
	},
	{
		"translation":[0.0,
		-0.01911984570324421,
		0.0],
		"name":"Extrude.11",
		"rotation":[0.0,
		0.0,
		0.0,
		-1.0],
		"scale":[1.0,
		1.0,
		1.0],
		"children":[26]
	},
	{
		"translation":[0.0,
		-0.01911984570324421,
		0.0],
		"name":"Extrude.12",
		"rotation":[0.0,
		0.0,
		0.0,
		-1.0],
		"scale":[1.0,
		1.0,
		1.0],
		"children":[27]
	},
	{
		"translation":[0.0,
		-0.01911984570324421,
		0.0],
		"name":"Extrude.13",
		"rotation":[0.0,
		0.0,
		0.0,
		-1.0],
		"scale":[1.0,
		1.0,
		1.0],
		"children":[28]
	},
	{
		"translation":[0.0,
		-0.01911984570324421,
		0.0],
		"name":"Extrude.14",
		"rotation":[0.0,
		0.0,
		0.0,
		-1.0],
		"scale":[1.0,
		1.0,
		1.0],
		"children":[29]
	},
	{
		"translation":[0.0,
		-0.01911984570324421,
		0.0],
		"name":"Extrude.15",
		"rotation":[0.0,
		0.0,
		0.0,
		-1.0],
		"scale":[1.0,
		1.0,
		1.0],
		"children":[30]
	},
	{
		"name":"Extrude.16",
		"children":[31]
	},
	{
		"translation":[0.0,
		0.0,
		-0.05859409272670746],
		"name":"Extrude.17",
		"rotation":[0.0,
		0.0,
		0.0,
		-1.0],
		"scale":[1.0,
		1.0,
		1.0],
		"children":[32]
	},
	{
		"translation":[0.0,
		0.0,
		-0.06294860690832138],
		"name":"Extrude.4",
		"rotation":[0.0,
		0.0,
		0.0,
		-1.0],
		"scale":[1.0,
		1.0,
		1.0],
		"children":[33]
	},
	{
		"name":"Extrude",
		"mesh":0
	},
	{
		"name":"Extrude.1",
		"mesh":1
	},
	{
		"name":"Extrude.2",
		"mesh":2
	},
	{
		"name":"Extrude.3",
		"mesh":3
	},
	{
		"name":"Extrude.5",
		"mesh":4
	},
	{
		"name":"Extrude.6",
		"mesh":5
	},
	{
		"name":"Extrude.7",
		"mesh":6
	},
	{
		"name":"Extrude.8",
		"mesh":7
	},
	{
		"name":"Extrude.10",
		"mesh":8
	},
	{
		"name":"Extrude.11",
		"mesh":9
	},
	{
		"name":"Extrude.12",
		"mesh":10
	},
	{
		"name":"Extrude.13",
		"mesh":11
	},
	{
		"name":"Extrude.14",
		"mesh":12
	},
	{
		"name":"Extrude.15",
		"mesh":13
	},
	{
		"name":"Extrude.16",
		"mesh":14
	},
	{
		"name":"Extrude.17",
		"mesh":15
	},
	{
		"name":"Extrude.4",
		"mesh":16
	}],
	"scenes":[{
		"nodes":[0,
		1,
		2,
		3,
		4,
		5,
		6,
		7,
		8,
		9,
		10,
		11,
		12,
		13,
		14,
		15,
		16]
	}],
	"meshes":[{
		"name":"Extrude",
		"primitives":[{
			"attributes":{
				"POSITION":1,
				"NORMAL":2,
				"TEXCOORD_0":3
			},
			"indices":0,
			"material":0
		}]
	},
	{
		"name":"Extrude.1",
		"primitives":[{
			"attributes":{
				"POSITION":5,
				"NORMAL":6,
				"TEXCOORD_0":7
			},
			"indices":4,
			"material":0
		}]
	},
	{
		"name":"Extrude.2",
		"primitives":[{
			"attributes":{
				"POSITION":9,
				"NORMAL":10,
				"TEXCOORD_0":11
			},
			"indices":8,
			"material":1
		}]
	},
	{
		"name":"Extrude.3",
		"primitives":[{
			"attributes":{
				"POSITION":13,
				"NORMAL":14,
				"TEXCOORD_0":15
			},
			"indices":12,
			"material":0
		}]
	},
	{
		"name":"Extrude.5",
		"primitives":[{
			"attributes":{
				"POSITION":17,
				"NORMAL":18,
				"TEXCOORD_0":19
			},
			"indices":16,
			"material":1
		}]
	},
	{
		"name":"Extrude.6",
		"primitives":[{
			"attributes":{
				"POSITION":21,
				"NORMAL":22,
				"TEXCOORD_0":23
			},
			"indices":20,
			"material":1
		}]
	},
	{
		"name":"Extrude.7",
		"primitives":[{
			"attributes":{
				"POSITION":25,
				"NORMAL":26,
				"TEXCOORD_0":27
			},
			"indices":24,
			"material":1
		}]
	},
	{
		"name":"Extrude.8",
		"primitives":[{
			"attributes":{
				"POSITION":29,
				"NORMAL":30,
				"TEXCOORD_0":31
			},
			"indices":28,
			"material":0
		}]
	},
	{
		"name":"Extrude.10",
		"primitives":[{
			"attributes":{
				"POSITION":33,
				"NORMAL":34,
				"TEXCOORD_0":35
			},
			"indices":32,
			"material":1
		}]
	},
	{
		"name":"Extrude.11",
		"primitives":[{
			"attributes":{
				"POSITION":37,
				"NORMAL":38,
				"TEXCOORD_0":39
			},
			"indices":36,
			"material":1
		}]
	},
	{
		"name":"Extrude.12",
		"primitives":[{
			"attributes":{
				"POSITION":41,
				"NORMAL":42,
				"TEXCOORD_0":43
			},
			"indices":40,
			"material":1
		}]
	},
	{
		"name":"Extrude.13",
		"primitives":[{
			"attributes":{
				"POSITION":45,
				"NORMAL":46,
				"TEXCOORD_0":47
			},
			"indices":44,
			"material":1
		}]
	},
	{
		"name":"Extrude.14",
		"primitives":[{
			"attributes":{
				"POSITION":49,
				"NORMAL":50,
				"TEXCOORD_0":51
			},
			"indices":48,
			"material":1
		}]
	},
	{
		"name":"Extrude.15",
		"primitives":[{
			"attributes":{
				"POSITION":53,
				"NORMAL":54,
				"TEXCOORD_0":55
			},
			"indices":52,
			"material":1
		}]
	},
	{
		"name":"Extrude.16",
		"primitives":[{
			"attributes":{
				"POSITION":57,
				"NORMAL":58,
				"TEXCOORD_0":59
			},
			"indices":56,
			"material":0
		}]
	},
	{
		"name":"Extrude.17",
		"primitives":[{
			"attributes":{
				"POSITION":61,
				"NORMAL":62,
				"TEXCOORD_0":63
			},
			"indices":60,
			"material":2
		}]
	},
	{
		"name":"Extrude.4",
		"primitives":[{
			"attributes":{
				"POSITION":65,
				"NORMAL":66,
				"TEXCOORD_0":67
			},
			"indices":64,
			"material":0
		}]
	}],
	"accessors":[{
		"count":828,
		"bufferView":0,
		"type":"SCALAR",
		"max":[827],
		"componentType":5123,
		"byteOffset":0,
		"min":[0]
	},
	{
		"count":828,
		"bufferView":1,
		"type":"VEC3",
		"max":[1.2972536087036133,
		0.16934245824813844,
		0.004999999888241291],
		"componentType":5126,
		"byteOffset":0,
		"min":[1.0804952383041382,
		0.024836894124746324,
		0.0]
	},
	{
		"count":828,
		"bufferView":1,
		"type":"VEC3",
		"max":[0.9998700022697449,
		1.0,
		1.0],
		"componentType":5126,
		"byteOffset":12,
		"min":[-0.9998700022697449,
		-1.0,
		-1.0]
	},
	{
		"count":828,
		"bufferView":1,
		"type":"VEC2",
		"max":[1.0,
		1.0],
		"componentType":5126,
		"byteOffset":24,
		"min":[0.0,
		0.0]
	},
	{
		"count":828,
		"bufferView":2,
		"type":"SCALAR",
		"max":[827],
		"componentType":5123,
		"byteOffset":0,
		"min":[0]
	},
	{
		"count":828,
		"bufferView":3,
		"type":"VEC3",
		"max":[0.4922220706939697,
		0.16934245824813844,
		0.004999999888241291],
		"componentType":5126,
		"byteOffset":0,
		"min":[0.275463730096817,
		0.024836894124746324,
		0.0]
	},
	{
		"count":828,
		"bufferView":3,
		"type":"VEC3",
		"max":[0.9998700022697449,
		1.0,
		1.0],
		"componentType":5126,
		"byteOffset":12,
		"min":[-0.9998700022697449,
		-1.0,
		-1.0]
	},
	{
		"count":828,
		"bufferView":3,
		"type":"VEC2",
		"max":[1.0,
		1.0],
		"componentType":5126,
		"byteOffset":24,
		"min":[0.0,
		0.0]
	},
	{
		"count":384,
		"bufferView":4,
		"type":"SCALAR",
		"max":[383],
		"componentType":5123,
		"byteOffset":0,
		"min":[0]
	},
	{
		"count":384,
		"bufferView":5,
		"type":"VEC3",
		"max":[0.9128687381744385,
		0.14766661822795869,
		0.004999999888241291],
		"componentType":5126,
		"byteOffset":0,
		"min":[0.8774648904800415,
		0.09708967804908753,
		0.0]
	},
	{
		"count":384,
		"bufferView":5,
		"type":"VEC3",
		"max":[1.0,
		1.0,
		1.0],
		"componentType":5126,
		"byteOffset":12,
		"min":[-1.0,
		-1.0,
		-1.0]
	},
	{
		"count":384,
		"bufferView":5,
		"type":"VEC2",
		"max":[1.0,
		1.0],
		"componentType":5126,
		"byteOffset":24,
		"min":[0.0,
		0.0]
	},
	{
		"count":1728,
		"bufferView":6,
		"type":"SCALAR",
		"max":[1727],
		"componentType":5123,
		"byteOffset":0,
		"min":[0]
	},
	{
		"count":1728,
		"bufferView":7,
		"type":"VEC3",
		"max":[1.0466266870498658,
		0.1783740520477295,
		0.004999999888241291],
		"componentType":5126,
		"byteOffset":0,
		"min":[0.8367323875427246,
		0.01580529659986496,
		0.0]
	},
	{
		"count":1728,
		"bufferView":7,
		"type":"VEC3",
		"max":[1.0,
		1.0,
		1.0],
		"componentType":5126,
		"byteOffset":12,
		"min":[-1.0,
		-1.0,
		-1.0]
	},
	{
		"count":1728,
		"bufferView":7,
		"type":"VEC2",
		"max":[1.0,
		1.0],
		"componentType":5126,
		"byteOffset":24,
		"min":[0.0,
		0.0]
	},
	{
		"count":636,
		"bufferView":8,
		"type":"SCALAR",
		"max":[635],
		"componentType":5123,
		"byteOffset":0,
		"min":[0]
	},
	{
		"count":636,
		"bufferView":9,
		"type":"VEC3",
		"max":[0.6745700240135193,
		0.1456345170736313,
		0.004999999888241291],
		"componentType":5126,
		"byteOffset":0,
		"min":[0.6505460143089294,
		0.09672841429710388,
		0.0]
	},
	{
		"count":636,
		"bufferView":9,
		"type":"VEC3",
		"max":[1.0,
		1.0,
		1.0],
		"componentType":5126,
		"byteOffset":12,
		"min":[-1.0,
		-1.0,
		-1.0]
	},
	{
		"count":636,
		"bufferView":9,
		"type":"VEC2",
		"max":[1.0,
		1.0],
		"componentType":5126,
		"byteOffset":24,
		"min":[0.0,
		0.0]
	},
	{
		"count":1704,
		"bufferView":10,
		"type":"SCALAR",
		"max":[1703],
		"componentType":5123,
		"byteOffset":0,
		"min":[0]
	},
	{
		"count":1704,
		"bufferView":11,
		"type":"VEC3",
		"max":[0.6479414105415344,
		0.13542881608009339,
		0.004999999888241291],
		"componentType":5126,
		"byteOffset":0,
		"min":[0.6106714606285095,
		0.09609620273113251,
		0.0]
	},
	{
		"count":1704,
		"bufferView":11,
		"type":"VEC3",
		"max":[0.9999493956565857,
		1.0,
		1.0],
		"componentType":5126,
		"byteOffset":12,
		"min":[-0.9999207854270935,
		-1.0,
		-1.0]
	},
	{
		"count":1704,
		"bufferView":11,
		"type":"VEC2",
		"max":[1.0,
		1.0],
		"componentType":5126,
		"byteOffset":24,
		"min":[0.0,
		0.0]
	},
	{
		"count":2592,
		"bufferView":12,
		"type":"SCALAR",
		"max":[2591],
		"componentType":5123,
		"byteOffset":0,
		"min":[0]
	},
	{
		"count":2592,
		"bufferView":13,
		"type":"VEC3",
		"max":[0.6043041944503784,
		0.13547396659851075,
		0.004999999888241291],
		"componentType":5126,
		"byteOffset":0,
		"min":[0.5672746896743774,
		0.08300038427114487,
		0.0]
	},
	{
		"count":2592,
		"bufferView":13,
		"type":"VEC3",
		"max":[1.0,
		1.0,
		1.0],
		"componentType":5126,
		"byteOffset":12,
		"min":[-1.0,
		-1.0,
		-1.0]
	},
	{
		"count":2592,
		"bufferView":13,
		"type":"VEC2",
		"max":[1.0,
		1.0],
		"componentType":5126,
		"byteOffset":24,
		"min":[0.0,
		0.0]
	},
	{
		"count":1728,
		"bufferView":14,
		"type":"SCALAR",
		"max":[1727],
		"componentType":5123,
		"byteOffset":0,
		"min":[0]
	},
	{
		"count":1728,
		"bufferView":15,
		"type":"VEC3",
		"max":[0.8051217794418335,
		0.1783740520477295,
		0.004999999888241291],
		"componentType":5126,
		"byteOffset":0,
		"min":[0.5260905623435974,
		0.01580529659986496,
		0.0]
	},
	{
		"count":1728,
		"bufferView":15,
		"type":"VEC3",
		"max":[1.0,
		1.0,
		1.0],
		"componentType":5126,
		"byteOffset":12,
		"min":[-1.0,
		-1.0,
		-1.0]
	},
	{
		"count":1728,
		"bufferView":15,
		"type":"VEC2",
		"max":[1.0,
		1.0],
		"componentType":5126,
		"byteOffset":24,
		"min":[0.0,
		0.0]
	},
	{
		"count":624,
		"bufferView":16,
		"type":"SCALAR",
		"max":[623],
		"componentType":5123,
		"byteOffset":0,
		"min":[0]
	},
	{
		"count":624,
		"bufferView":17,
		"type":"VEC3",
		"max":[0.23631176352500916,
		0.1456345170736313,
		0.004999999888241291],
		"componentType":5126,
		"byteOffset":0,
		"min":[0.21228770911693574,
		0.09672841429710388,
		0.0]
	},
	{
		"count":624,
		"bufferView":17,
		"type":"VEC3",
		"max":[1.0,
		1.0,
		1.0],
		"componentType":5126,
		"byteOffset":12,
		"min":[-1.0,
		-1.0,
		-1.0]
	},
	{
		"count":624,
		"bufferView":17,
		"type":"VEC2",
		"max":[1.0,
		1.0],
		"componentType":5126,
		"byteOffset":24,
		"min":[0.0,
		0.0]
	},
	{
		"count":2604,
		"bufferView":18,
		"type":"SCALAR",
		"max":[2603],
		"componentType":5123,
		"byteOffset":0,
		"min":[0]
	},
	{
		"count":2604,
		"bufferView":19,
		"type":"VEC3",
		"max":[0.2094879150390625,
		0.13547396659851075,
		0.004999999888241291],
		"componentType":5126,
		"byteOffset":0,
		"min":[0.17485173046588899,
		0.09614136070013046,
		0.0]
	},
	{
		"count":2604,
		"bufferView":19,
		"type":"VEC3",
		"max":[0.9999755620956421,
		1.0,
		1.0],
		"componentType":5126,
		"byteOffset":12,
		"min":[-0.9999750852584839,
		-1.0,
		-1.0]
	},
	{
		"count":2604,
		"bufferView":19,
		"type":"VEC2",
		"max":[1.0,
		1.0],
		"componentType":5126,
		"byteOffset":24,
		"min":[0.0,
		0.0]
	},
	{
		"count":72,
		"bufferView":20,
		"type":"SCALAR",
		"max":[71],
		"componentType":5123,
		"byteOffset":0,
		"min":[0]
	},
	{
		"count":72,
		"bufferView":21,
		"type":"VEC3",
		"max":[0.16884572803974152,
		0.1486600935459137,
		0.004999999888241291],
		"componentType":5126,
		"byteOffset":0,
		"min":[0.15859486162662507,
		0.09708967804908753,
		0.0]
	},
	{
		"count":72,
		"bufferView":21,
		"type":"VEC3",
		"max":[1.0,
		1.0,
		1.0],
		"componentType":5126,
		"byteOffset":12,
		"min":[-1.0,
		-1.0,
		-1.0]
	},
	{
		"count":72,
		"bufferView":21,
		"type":"VEC2",
		"max":[1.0,
		1.0],
		"componentType":5126,
		"byteOffset":24,
		"min":[0.0,
		0.0]
	},
	{
		"count":36,
		"bufferView":22,
		"type":"SCALAR",
		"max":[35],
		"componentType":5123,
		"byteOffset":0,
		"min":[0]
	},
	{
		"count":36,
		"bufferView":23,
		"type":"VEC3",
		"max":[0.15019547939300538,
		0.1486600935459137,
		0.004999999888241291],
		"componentType":5126,
		"byteOffset":0,
		"min":[0.13994461297988892,
		0.09708967804908753,
		0.0]
	},
	{
		"count":36,
		"bufferView":23,
		"type":"VEC3",
		"max":[1.0,
		1.0,
		1.0],
		"componentType":5126,
		"byteOffset":12,
		"min":[-1.0,
		-1.0,
		-1.0]
	},
	{
		"count":36,
		"bufferView":23,
		"type":"VEC2",
		"max":[1.0,
		1.0],
		"componentType":5126,
		"byteOffset":24,
		"min":[0.0,
		0.0]
	},
	{
		"count":900,
		"bufferView":24,
		"type":"SCALAR",
		"max":[899],
		"componentType":5123,
		"byteOffset":0,
		"min":[0]
	},
	{
		"count":900,
		"bufferView":25,
		"type":"VEC3",
		"max":[0.11181118339300156,
		0.13547396659851075,
		0.004999999888241291],
		"componentType":5126,
		"byteOffset":0,
		"min":[0.07676858454942703,
		0.09704452008008957,
		0.0]
	},
	{
		"count":900,
		"bufferView":25,
		"type":"VEC3",
		"max":[1.0,
		1.0,
		1.0],
		"componentType":5126,
		"byteOffset":12,
		"min":[-1.0,
		-1.0,
		-1.0]
	},
	{
		"count":900,
		"bufferView":25,
		"type":"VEC2",
		"max":[1.0,
		1.0],
		"componentType":5126,
		"byteOffset":24,
		"min":[0.0,
		0.0]
	},
	{
		"count":72,
		"bufferView":26,
		"type":"SCALAR",
		"max":[71],
		"componentType":5123,
		"byteOffset":0,
		"min":[0]
	},
	{
		"count":72,
		"bufferView":27,
		"type":"VEC3",
		"max":[0.06864014267921448,
		0.1486600935459137,
		0.004999999888241291],
		"componentType":5126,
		"byteOffset":0,
		"min":[0.05838927999138832,
		0.09708967804908753,
		0.0]
	},
	{
		"count":72,
		"bufferView":27,
		"type":"VEC3",
		"max":[1.0,
		1.0,
		1.0],
		"componentType":5126,
		"byteOffset":12,
		"min":[-1.0,
		-1.0,
		-1.0]
	},
	{
		"count":72,
		"bufferView":27,
		"type":"VEC2",
		"max":[1.0,
		1.0],
		"componentType":5126,
		"byteOffset":24,
		"min":[0.0,
		0.0]
	},
	{
		"count":1680,
		"bufferView":28,
		"type":"SCALAR",
		"max":[1679],
		"componentType":5123,
		"byteOffset":0,
		"min":[0]
	},
	{
		"count":1680,
		"bufferView":29,
		"type":"VEC3",
		"max":[1.3175746202468873,
		0.19643725454807282,
		0.004999999888241291],
		"componentType":5126,
		"byteOffset":0,
		"min":[-0.0022578993812203409,
		-0.0022578993812203409,
		0.0]
	},
	{
		"count":1680,
		"bufferView":29,
		"type":"VEC3",
		"max":[0.9998690485954285,
		1.0,
		1.0],
		"componentType":5126,
		"byteOffset":12,
		"min":[-0.9998690485954285,
		-1.0,
		-1.0]
	},
	{
		"count":1680,
		"bufferView":29,
		"type":"VEC2",
		"max":[1.0,
		1.0],
		"componentType":5126,
		"byteOffset":24,
		"min":[0.0,
		0.0]
	},
	{
		"count":828,
		"bufferView":30,
		"type":"SCALAR",
		"max":[827],
		"componentType":5123,
		"byteOffset":0,
		"min":[0]
	},
	{
		"count":828,
		"bufferView":31,
		"type":"VEC3",
		"max":[1.3153167963027955,
		0.19417935609817506,
		0.05999999865889549],
		"componentType":5126,
		"byteOffset":0,
		"min":[0.0,
		0.0,
		0.0]
	},
	{
		"count":828,
		"bufferView":31,
		"type":"VEC3",
		"max":[0.9998695254325867,
		1.0,
		1.0],
		"componentType":5126,
		"byteOffset":12,
		"min":[-0.9998695254325867,
		-1.0,
		-1.0]
	},
	{
		"count":828,
		"bufferView":31,
		"type":"VEC2",
		"max":[1.0,
		1.0],
		"componentType":5126,
		"byteOffset":24,
		"min":[0.0,
		0.0]
	},
	{
		"count":1680,
		"bufferView":32,
		"type":"SCALAR",
		"max":[1679],
		"componentType":5123,
		"byteOffset":0,
		"min":[0]
	},
	{
		"count":1680,
		"bufferView":33,
		"type":"VEC3",
		"max":[1.3175746202468873,
		0.19643725454807282,
		0.004999999888241291],
		"componentType":5126,
		"byteOffset":0,
		"min":[-0.0022578993812203409,
		-0.0022578993812203409,
		0.0]
	},
	{
		"count":1680,
		"bufferView":33,
		"type":"VEC3",
		"max":[0.9998690485954285,
		1.0,
		1.0],
		"componentType":5126,
		"byteOffset":12,
		"min":[-0.9998690485954285,
		-1.0,
		-1.0]
	},
	{
		"count":1680,
		"bufferView":33,
		"type":"VEC2",
		"max":[1.0,
		1.0],
		"componentType":5126,
		"byteOffset":24,
		"min":[0.0,
		0.0]
	}],
	"bufferViews":[{
		"buffer":0,
		"byteOffset":0,
		"byteLength":1656,
		"target":34963
	},
	{
		"buffer":0,
		"byteOffset":1656,
		"byteLength":26496,
		"target":34962,
		"byteStride":32
	},
	{
		"buffer":1,
		"byteOffset":0,
		"byteLength":1656,
		"target":34963
	},
	{
		"buffer":1,
		"byteOffset":1656,
		"byteLength":26496,
		"target":34962,
		"byteStride":32
	},
	{
		"buffer":2,
		"byteOffset":0,
		"byteLength":768,
		"target":34963
	},
	{
		"buffer":2,
		"byteOffset":768,
		"byteLength":12288,
		"target":34962,
		"byteStride":32
	},
	{
		"buffer":3,
		"byteOffset":0,
		"byteLength":3456,
		"target":34963
	},
	{
		"buffer":3,
		"byteOffset":3456,
		"byteLength":55296,
		"target":34962,
		"byteStride":32
	},
	{
		"buffer":4,
		"byteOffset":0,
		"byteLength":1272,
		"target":34963
	},
	{
		"buffer":4,
		"byteOffset":1272,
		"byteLength":20352,
		"target":34962,
		"byteStride":32
	},
	{
		"buffer":5,
		"byteOffset":0,
		"byteLength":3408,
		"target":34963
	},
	{
		"buffer":5,
		"byteOffset":3408,
		"byteLength":54528,
		"target":34962,
		"byteStride":32
	},
	{
		"buffer":6,
		"byteOffset":0,
		"byteLength":5184,
		"target":34963
	},
	{
		"buffer":6,
		"byteOffset":5184,
		"byteLength":82944,
		"target":34962,
		"byteStride":32
	},
	{
		"buffer":7,
		"byteOffset":0,
		"byteLength":3456,
		"target":34963
	},
	{
		"buffer":7,
		"byteOffset":3456,
		"byteLength":55296,
		"target":34962,
		"byteStride":32
	},
	{
		"buffer":8,
		"byteOffset":0,
		"byteLength":1248,
		"target":34963
	},
	{
		"buffer":8,
		"byteOffset":1248,
		"byteLength":19968,
		"target":34962,
		"byteStride":32
	},
	{
		"buffer":9,
		"byteOffset":0,
		"byteLength":5208,
		"target":34963
	},
	{
		"buffer":9,
		"byteOffset":5208,
		"byteLength":83328,
		"target":34962,
		"byteStride":32
	},
	{
		"buffer":10,
		"byteOffset":0,
		"byteLength":144,
		"target":34963
	},
	{
		"buffer":10,
		"byteOffset":144,
		"byteLength":2304,
		"target":34962,
		"byteStride":32
	},
	{
		"buffer":11,
		"byteOffset":0,
		"byteLength":72,
		"target":34963
	},
	{
		"buffer":11,
		"byteOffset":72,
		"byteLength":1152,
		"target":34962,
		"byteStride":32
	},
	{
		"buffer":12,
		"byteOffset":0,
		"byteLength":1800,
		"target":34963
	},
	{
		"buffer":12,
		"byteOffset":1800,
		"byteLength":28800,
		"target":34962,
		"byteStride":32
	},
	{
		"buffer":13,
		"byteOffset":0,
		"byteLength":144,
		"target":34963
	},
	{
		"buffer":13,
		"byteOffset":144,
		"byteLength":2304,
		"target":34962,
		"byteStride":32
	},
	{
		"buffer":14,
		"byteOffset":0,
		"byteLength":3360,
		"target":34963
	},
	{
		"buffer":14,
		"byteOffset":3360,
		"byteLength":53760,
		"target":34962,
		"byteStride":32
	},
	{
		"buffer":15,
		"byteOffset":0,
		"byteLength":1656,
		"target":34963
	},
	{
		"buffer":15,
		"byteOffset":1656,
		"byteLength":26496,
		"target":34962,
		"byteStride":32
	},
	{
		"buffer":16,
		"byteOffset":0,
		"byteLength":3360,
		"target":34963
	},
	{
		"buffer":16,
		"byteOffset":3360,
		"byteLength":53760,
		"target":34962,
		"byteStride":32
	}],
	"buffers":[{
		"uri":"data:application/octet-stream;base64,",
		"byteLength":28152
	},
	{
		"uri":"data:application/octet-stream;base64,",
		"byteLength":28152
	},
	{
		"uri":"data:application/octet-stream;base64,",
		"byteLength":13056
	},
	{
		"uri":"data:application/octet-stream;base64,",
		"byteLength":58752
	},
	{
		"uri":"data:application/octet-stream;base64,",
		"byteLength":21624
	},
	{
		"uri":"data:application/octet-stream;base64,",
		"byteLength":57936
	},
	{
		"uri":"data:application/octet-stream;base64,",
		"byteLength":88128
	},
	{
		"uri":"data:application/octet-stream;base64,",
		"byteLength":58752
	},
	{
		"uri":"data:application/octet-stream;base64,",
		"byteLength":21216
	},
	{
		"uri":"data:application/octet-stream;base64,",
		"byteLength":88536
	},
	{
		"uri":"data:application/octet-stream;base64,",
		"byteLength":2448
	},
	{
		"uri":"data:application/octet-stream;base64,",
		"byteLength":1224
	},
	{
		"uri":"data:application/octet-stream;base64,",
		"byteLength":30600
	},
	{
		"uri":"data:application/octet-stream;base64,",
		"byteLength":2448
	},
	{
		"uri":"data:application/octet-stream;base64,",
		"byteLength":57120
	},
	{
		"uri":"data:application/octet-stream;base64,",
		"byteLength":28152
	},
	{
		"uri":"data:application/octet-stream;base64,",
		"byteLength":57120
	}],
	"materials":[{
		"pbrMetallicRoughness":{
			"baseColorFactor":[0.16078431372549016,
			0.07058823529411763,
			0.33333333333333339,
			1.0],
			"metallicFactor":0.0,
			"roughnessFactor":0.30000001192092898
		},
		"emissiveFactor":[0.0,
		0.0,
		0.0],
		"alphaMode":"OPAQUE",
		"doubleSided":false,
		"name":"RS OpenPBR.1"
	},
	{
		"pbrMetallicRoughness":{
			"baseColorFactor":[1.0,
			1.0,
			1.0,
			1.0],
			"metallicFactor":0.0,
			"roughnessFactor":0.30000001192092898
		},
		"emissiveFactor":[0.0,
		0.0,
		0.0],
		"alphaMode":"OPAQUE",
		"doubleSided":false,
		"name":"RS OpenPBR.2"
	},
	{
		"pbrMetallicRoughness":{
			"baseColorFactor":[0.21568627450980394,
			0.11764705882352943,
			0.40784313725490198,
			1.0],
			"metallicFactor":0.0,
			"roughnessFactor":0.30000001192092898
		},
		"emissiveFactor":[0.0,
		0.0,
		0.0],
		"alphaMode":"OPAQUE",
		"doubleSided":false,
		"name":"RS OpenPBR"
	}]
}