{
	"asset":{
		"version":"2.0",
		"generator":"Maxon Cinema 4D TRIAL 2026.0.0 (#200000219)"
	},
	"nodes":[{
		"name":"Extrude",
		"children":[10]
	},
	{
		"name":"Extrude.1",
		"children":[11]
	},
	{
		"translation":[0.0,
		-0.021703803911805154,
		0.0],
		"name":"Extrude.2",
		"rotation":[0.0,
		0.0,
		0.0,
		-1.0],
		"scale":[1.0,
		1.0,
		1.0],
		"children":[12]
	},
	{
		"translation":[0.0,
		-0.021703803911805154,
		0.0],
		"name":"Extrude.3",
		"rotation":[0.0,
		0.0,
		0.0,
		-1.0],
		"scale":[1.0,
		1.0,
		1.0],
		"children":[13]
	},
	{
		"translation":[0.0,
		-0.021703803911805154,
		0.0],
		"name":"Extrude.4",
		"rotation":[0.0,
		0.0,
		0.0,
		-1.0],
		"scale":[1.0,
		1.0,
		1.0],
		"children":[14]
	},
	{
		"name":"Extrude.5",
		"children":[15]
	},
	{
		"name":"Extrude.7",
		"children":[16]
	},
	{
		"translation":[0.0,
		0.0,
		-0.06955161690711975],
		"name":"Extrude.8",
		"rotation":[0.0,
		0.0,
		0.0,
		-1.0],
		"scale":[1.0,
		1.0,
		1.0],
		"children":[17]
	},
	{
		"translation":[0.0,
		0.0,
		-0.07369081676006317],
		"name":"Extrude.6",
		"rotation":[0.0,
		0.0,
		0.0,
		-1.0],
		"scale":[1.0,
		1.0,
		1.0],
		"children":[18]
	},
	{
		"name":"Extrude.9",
		"children":[19]
	},
	{
		"name":"Extrude",
		"mesh":0
	},
	{
		"name":"Extrude.1",
		"mesh":1
	},
	{
		"name":"Extrude.2",
		"mesh":2
	},
	{
		"name":"Extrude.3",
		"mesh":3
	},
	{
		"name":"Extrude.4",
		"mesh":4
	},
	{
		"name":"Extrude.5",
		"mesh":5
	},
	{
		"name":"Extrude.7",
		"mesh":6
	},
	{
		"name":"Extrude.8",
		"mesh":7
	},
	{
		"name":"Extrude.6",
		"mesh":8
	},
	{
		"name":"Extrude.9",
		"mesh":9
	}],
	"scenes":[{
		"nodes":[0,
		1,
		2,
		3,
		4,
		5,
		6,
		7,
		8,
		9]
	}],
	"meshes":[{
		"name":"Extrude",
		"primitives":[{
			"attributes":{
				"POSITION":1,
				"NORMAL":2,
				"TEXCOORD_0":3
			},
			"indices":0,
			"material":0
		}]
	},
	{
		"name":"Extrude.1",
		"primitives":[{
			"attributes":{
				"POSITION":5,
				"NORMAL":6,
				"TEXCOORD_0":7
			},
			"indices":4,
			"material":0
		}]
	},
	{
		"name":"Extrude.2",
		"primitives":[{
			"attributes":{
				"POSITION":9,
				"NORMAL":10,
				"TEXCOORD_0":11
			},
			"indices":8,
			"material":1
		}]
	},
	{
		"name":"Extrude.3",
		"primitives":[{
			"attributes":{
				"POSITION":13,
				"NORMAL":14,
				"TEXCOORD_0":15
			},
			"indices":12,
			"material":1
		}]
	},
	{
		"name":"Extrude.4",
		"primitives":[{
			"attributes":{
				"POSITION":17,
				"NORMAL":18,
				"TEXCOORD_0":19
			},
			"indices":16,
			"material":1
		}]
	},
	{
		"name":"Extrude.5",
		"primitives":[{
			"attributes":{
				"POSITION":21,
				"NORMAL":22,
				"TEXCOORD_0":23
			},
			"indices":20,
			"material":0
		}]
	},
	{
		"name":"Extrude.7",
		"primitives":[{
			"attributes":{
				"POSITION":25,
				"NORMAL":26,
				"TEXCOORD_0":27
			},
			"indices":24,
			"material":0
		}]
	},
	{
		"name":"Extrude.8",
		"primitives":[{
			"attributes":{
				"POSITION":29,
				"NORMAL":30,
				"TEXCOORD_0":31
			},
			"indices":28,
			"material":2
		}]
	},
	{
		"name":"Extrude.6",
		"primitives":[{
			"attributes":{
				"POSITION":33,
				"NORMAL":34,
				"TEXCOORD_0":35
			},
			"indices":32,
			"material":0
		}]
	},
	{
		"name":"Extrude.9",
		"primitives":[{
			"attributes":{
				"POSITION":37,
				"NORMAL":38,
				"TEXCOORD_0":39
			},
			"indices":36,
			"material":0
		}]
	}],
	"accessors":[{
		"count":60,
		"bufferView":0,
		"type":"SCALAR",
		"max":[59],
		"componentType":5123,
		"byteOffset":0,
		"min":[0]
	},
	{
		"count":60,
		"bufferView":1,
		"type":"VEC3",
		"max":[0.8402363657951355,
		0.17105789482593537,
		0.004999999888241291],
		"componentType":5126,
		"byteOffset":0,
		"min":[0.6212822794914246,
		0.025088490918278695,
		0.0]
	},
	{
		"count":60,
		"bufferView":1,
		"type":"VEC3",
		"max":[0.7071068286895752,
		1.0,
		1.0],
		"componentType":5126,
		"byteOffset":12,
		"min":[-0.7071068286895752,
		-1.0,
		-1.0]
	},
	{
		"count":60,
		"bufferView":1,
		"type":"VEC2",
		"max":[1.0,
		1.0],
		"componentType":5126,
		"byteOffset":24,
		"min":[0.0,
		0.0]
	},
	{
		"count":60,
		"bufferView":2,
		"type":"SCALAR",
		"max":[59],
		"componentType":5123,
		"byteOffset":0,
		"min":[0]
	},
	{
		"count":60,
		"bufferView":3,
		"type":"VEC3",
		"max":[0.2554464638233185,
		0.17105789482593537,
		0.004999999888241291],
		"componentType":5126,
		"byteOffset":0,
		"min":[0.036492351442575458,
		0.025088490918278695,
		0.0]
	},
	{
		"count":60,
		"bufferView":3,
		"type":"VEC3",
		"max":[0.7071068286895752,
		1.0,
		1.0],
		"componentType":5126,
		"byteOffset":12,
		"min":[-0.7071068286895752,
		-1.0,
		-1.0]
	},
	{
		"count":60,
		"bufferView":3,
		"type":"VEC2",
		"max":[1.0,
		1.0],
		"componentType":5126,
		"byteOffset":24,
		"min":[0.0,
		0.0]
	},
	{
		"count":1812,
		"bufferView":4,
		"type":"SCALAR",
		"max":[1811],
		"componentType":5123,
		"byteOffset":0,
		"min":[0]
	},
	{
		"count":1812,
		"bufferView":5,
		"type":"VEC3",
		"max":[0.4543297588825226,
		0.1502116322517395,
		0.004999999888241291],
		"componentType":5126,
		"byteOffset":0,
		"min":[0.4159671664237976,
		0.09711526334285736,
		0.0]
	},
	{
		"count":1812,
		"bufferView":5,
		"type":"VEC3",
		"max":[1.0,
		1.0,
		1.0],
		"componentType":5126,
		"byteOffset":12,
		"min":[-1.0,
		-1.0,
		-1.0]
	},
	{
		"count":1812,
		"bufferView":5,
		"type":"VEC2",
		"max":[1.0,
		1.0],
		"componentType":5126,
		"byteOffset":24,
		"min":[0.0,
		0.0]
	},
	{
		"count":900,
		"bufferView":6,
		"type":"SCALAR",
		"max":[899],
		"componentType":5123,
		"byteOffset":0,
		"min":[0]
	},
	{
		"count":900,
		"bufferView":7,
		"type":"VEC3",
		"max":[0.409717857837677,
		0.13684631884098054,
		0.004999999888241291],
		"componentType":5126,
		"byteOffset":0,
		"min":[0.37432026863098147,
		0.09802757203578949,
		0.0]
	},
	{
		"count":900,
		"bufferView":7,
		"type":"VEC3",
		"max":[1.0,
		1.0,
		1.0],
		"componentType":5126,
		"byteOffset":12,
		"min":[-1.0,
		-1.0,
		-1.0]
	},
	{
		"count":900,
		"bufferView":7,
		"type":"VEC2",
		"max":[1.0,
		1.0],
		"componentType":5126,
		"byteOffset":24,
		"min":[0.0,
		0.0]
	},
	{
		"count":2592,
		"bufferView":8,
		"type":"SCALAR",
		"max":[2591],
		"componentType":5123,
		"byteOffset":0,
		"min":[0]
	},
	{
		"count":2592,
		"bufferView":9,
		"type":"VEC3",
		"max":[0.36752358078956606,
		0.1368919312953949,
		0.004999999888241291],
		"componentType":5126,
		"byteOffset":0,
		"min":[0.3307575285434723,
		0.09725211560726166,
		0.0]
	},
	{
		"count":2592,
		"bufferView":9,
		"type":"VEC3",
		"max":[1.0,
		0.9999783039093018,
		1.0],
		"componentType":5126,
		"byteOffset":12,
		"min":[-1.0,
		-1.0,
		-1.0]
	},
	{
		"count":2592,
		"bufferView":9,
		"type":"VEC2",
		"max":[1.0,
		1.0],
		"componentType":5126,
		"byteOffset":24,
		"min":[0.0,
		0.0]
	},
	{
		"count":1728,
		"bufferView":10,
		"type":"SCALAR",
		"max":[1727],
		"componentType":5123,
		"byteOffset":0,
		"min":[0]
	},
	{
		"count":1728,
		"bufferView":11,
		"type":"VEC3",
		"max":[0.5870707035064697,
		0.18018098175525666,
		0.004999999888241291],
		"componentType":5126,
		"byteOffset":0,
		"min":[0.2896580398082733,
		0.015965403988957406,
		0.0]
	},
	{
		"count":1728,
		"bufferView":11,
		"type":"VEC3",
		"max":[1.0,
		1.0,
		1.0],
		"componentType":5126,
		"byteOffset":12,
		"min":[-1.0,
		-1.0,
		-1.0]
	},
	{
		"count":1728,
		"bufferView":11,
		"type":"VEC2",
		"max":[1.0,
		1.0],
		"componentType":5126,
		"byteOffset":24,
		"min":[0.0,
		0.0]
	},
	{
		"count":144,
		"bufferView":12,
		"type":"SCALAR",
		"max":[143],
		"componentType":5123,
		"byteOffset":0,
		"min":[0]
	},
	{
		"count":144,
		"bufferView":13,
		"type":"VEC3",
		"max":[0.8799217939376831,
		0.19842715561389924,
		0.004999999888241291],
		"componentType":5126,
		"byteOffset":0,
		"min":[-0.00323869613930583,
		-0.002280771965160966,
		0.0]
	},
	{
		"count":144,
		"bufferView":13,
		"type":"VEC3",
		"max":[0.7071068286895752,
		1.0,
		1.0],
		"componentType":5126,
		"byteOffset":12,
		"min":[-0.7071068286895752,
		-1.0,
		-1.0]
	},
	{
		"count":144,
		"bufferView":13,
		"type":"VEC2",
		"max":[1.0,
		1.0],
		"componentType":5126,
		"byteOffset":24,
		"min":[0.0,
		0.0]
	},
	{
		"count":60,
		"bufferView":14,
		"type":"SCALAR",
		"max":[59],
		"componentType":5123,
		"byteOffset":0,
		"min":[0]
	},
	{
		"count":60,
		"bufferView":15,
		"type":"VEC3",
		"max":[0.8767287135124207,
		0.1961463838815689,
		0.07000000029802323],
		"componentType":5126,
		"byteOffset":0,
		"min":[0.0,
		0.0,
		0.0]
	},
	{
		"count":60,
		"bufferView":15,
		"type":"VEC3",
		"max":[0.7071068286895752,
		1.0,
		1.0],
		"componentType":5126,
		"byteOffset":12,
		"min":[-0.7071068286895752,
		-1.0,
		-1.0]
	},
	{
		"count":60,
		"bufferView":15,
		"type":"VEC2",
		"max":[1.0,
		1.0],
		"componentType":5126,
		"byteOffset":24,
		"min":[0.0,
		0.0]
	},
	{
		"count":144,
		"bufferView":16,
		"type":"SCALAR",
		"max":[143],
		"componentType":5123,
		"byteOffset":0,
		"min":[0]
	},
	{
		"count":144,
		"bufferView":17,
		"type":"VEC3",
		"max":[0.8799217939376831,
		0.19842715561389924,
		0.004999999888241291],
		"componentType":5126,
		"byteOffset":0,
		"min":[-0.00323869613930583,
		-0.002280771965160966,
		0.0]
	},
	{
		"count":144,
		"bufferView":17,
		"type":"VEC3",
		"max":[0.7071068286895752,
		1.0,
		1.0],
		"componentType":5126,
		"byteOffset":12,
		"min":[-0.7071068286895752,
		-1.0,
		-1.0]
	},
	{
		"count":144,
		"bufferView":17,
		"type":"VEC2",
		"max":[1.0,
		1.0],
		"componentType":5126,
		"byteOffset":24,
		"min":[0.0,
		0.0]
	},
	{
		"count":144,
		"bufferView":18,
		"type":"SCALAR",
		"max":[143],
		"componentType":5123,
		"byteOffset":0,
		"min":[0]
	},
	{
		"count":144,
		"bufferView":19,
		"type":"VEC3",
		"max":[0.8799217939376831,
		0.19842715561389924,
		0.004999999888241291],
		"componentType":5126,
		"byteOffset":0,
		"min":[-0.00323869613930583,
		-0.002280771965160966,
		0.0]
	},
	{
		"count":144,
		"bufferView":19,
		"type":"VEC3",
		"max":[0.7071068286895752,
		1.0,
		1.0],
		"componentType":5126,
		"byteOffset":12,
		"min":[-0.7071068286895752,
		-1.0,
		-1.0]
	},
	{
		"count":144,
		"bufferView":19,
		"type":"VEC2",
		"max":[1.0,
		1.0],
		"componentType":5126,
		"byteOffset":24,
		"min":[0.0,
		0.0]
	}],
	"bufferViews":[{
		"buffer":0,
		"byteOffset":0,
		"byteLength":120,
		"target":34963
	},
	{
		"buffer":0,
		"byteOffset":120,
		"byteLength":1920,
		"target":34962,
		"byteStride":32
	},
	{
		"buffer":1,
		"byteOffset":0,
		"byteLength":120,
		"target":34963
	},
	{
		"buffer":1,
		"byteOffset":120,
		"byteLength":1920,
		"target":34962,
		"byteStride":32
	},
	{
		"buffer":2,
		"byteOffset":0,
		"byteLength":3624,
		"target":34963
	},
	{
		"buffer":2,
		"byteOffset":3624,
		"byteLength":57984,
		"target":34962,
		"byteStride":32
	},
	{
		"buffer":3,
		"byteOffset":0,
		"byteLength":1800,
		"target":34963
	},
	{
		"buffer":3,
		"byteOffset":1800,
		"byteLength":28800,
		"target":34962,
		"byteStride":32
	},
	{
		"buffer":4,
		"byteOffset":0,
		"byteLength":5184,
		"target":34963
	},
	{
		"buffer":4,
		"byteOffset":5184,
		"byteLength":82944,
		"target":34962,
		"byteStride":32
	},
	{
		"buffer":5,
		"byteOffset":0,
		"byteLength":3456,
		"target":34963
	},
	{
		"buffer":5,
		"byteOffset":3456,
		"byteLength":55296,
		"target":34962,
		"byteStride":32
	},
	{
		"buffer":6,
		"byteOffset":0,
		"byteLength":288,
		"target":34963
	},
	{
		"buffer":6,
		"byteOffset":288,
		"byteLength":4608,
		"target":34962,
		"byteStride":32
	},
	{
		"buffer":7,
		"byteOffset":0,
		"byteLength":120,
		"target":34963
	},
	{
		"buffer":7,
		"byteOffset":120,
		"byteLength":1920,
		"target":34962,
		"byteStride":32
	},
	{
		"buffer":8,
		"byteOffset":0,
		"byteLength":288,
		"target":34963
	},
	{
		"buffer":8,
		"byteOffset":288,
		"byteLength":4608,
		"target":34962,
		"byteStride":32
	},
	{
		"buffer":9,
		"byteOffset":0,
		"byteLength":288,
		"target":34963
	},
	{
		"buffer":9,
		"byteOffset":288,
		"byteLength":4608,
		"target":34962,
		"byteStride":32
	}],
	"buffers":[{
		"uri":"data:application/octet-stream;base64,",
		"byteLength":2040
	},
	{
		"uri":"data:application/octet-stream;base64,",
		"byteLength":2040
	},
	{
		"uri":"data:application/octet-stream;base64,",
		"byteLength":61608
	},
	{
		"uri":"data:application/octet-stream;base64,",
		"byteLength":30600
	},
	{
		"uri":"data:application/octet-stream;base64,",
		"byteLength":88128
	},
	{
		"uri":"data:application/octet-stream;base64,",
		"byteLength":58752
	},
	{
		"uri":"data:application/octet-stream;base64,",
		"byteLength":4896
	},
	{
		"uri":"data:application/octet-stream;base64,",
		"byteLength":2040
	},
	{
		"uri":"data:application/octet-stream;base64,",
		"byteLength":4896
	},
	{
		"uri":"data:application/octet-stream;base64,",
		"byteLength":4896
	}],
	"materials":[{
		"pbrMetallicRoughness":{
			"baseColorFactor":[0.10980392156862744,
			0.196078431372549,
			0.2862745098039216,
			1.0],
			"metallicFactor":0.0,
			"roughnessFactor":0.30000001192092898
		},
		"emissiveFactor":[0.0,
		0.0,
		0.0],
		"alphaMode":"OPAQUE",
		"doubleSided":false,
		"name":"RS OpenPBR.1"
	},
	{
		"pbrMetallicRoughness":{
			"baseColorFactor":[1.0,
			1.0,
			1.0,
			1.0],
			"metallicFactor":0.0,
			"roughnessFactor":0.30000001192092898
		},
		"emissiveFactor":[0.0,
		0.0,
		0.0],
		"alphaMode":"OPAQUE",
		"doubleSided":false,
		"name":"RS OpenPBR.2"
	},
	{
		"pbrMetallicRoughness":{
			"baseColorFactor":[0.16470588235294118,
			0.28235294117647055,
			0.39607843137254908,
			1.0],
			"metallicFactor":0.0,
			"roughnessFactor":0.30000001192092898
		},
		"emissiveFactor":[0.0,
		0.0,
		0.0],
		"alphaMode":"OPAQUE",
		"doubleSided":false,
		"name":"RS OpenPBR"
	}]
}