{
	"asset":{
		"version":"2.0",
		"generator":"Maxon Cinema 4D TRIAL 2026.0.0 (#200000219)"
	},
	"nodes":[{
		"name":"Extrude",
		"children":[7]
	},
	{
		"translation":[0.0,
		-0.018305297940969468,
		0.0],
		"name":"Extrude.1",
		"rotation":[0.0,
		0.0,
		0.0,
		-1.0],
		"scale":[1.0,
		1.0,
		1.0],
		"children":[8]
	},
	{
		"translation":[0.0,
		-0.018305297940969468,
		0.0],
		"name":"Extrude.2",
		"rotation":[0.0,
		0.0,
		0.0,
		-1.0],
		"scale":[1.0,
		1.0,
		1.0],
		"children":[9]
	},
	{
		"translation":[0.0,
		-0.018305297940969468,
		0.0],
		"name":"Extrude.3",
		"rotation":[0.0,
		0.0,
		0.0,
		-1.0],
		"scale":[1.0,
		1.0,
		1.0],
		"children":[10]
	},
	{
		"name":"Extrude.4",
		"children":[11]
	},
	{
		"translation":[0.0,
		0.0,
		-0.06932003796100617],
		"name":"Extrude.5",
		"rotation":[0.0,
		0.0,
		0.0,
		-1.0],
		"scale":[1.0,
		1.0,
		1.0],
		"children":[12]
	},
	{
		"translation":[0.0,
		0.0,
		-0.07229027897119522],
		"name":"Extrude.6",
		"rotation":[0.0,
		0.0,
		0.0,
		-1.0],
		"scale":[1.0,
		1.0,
		1.0],
		"children":[13]
	},
	{
		"name":"Extrude",
		"mesh":0
	},
	{
		"name":"Extrude.1",
		"mesh":1
	},
	{
		"name":"Extrude.2",
		"mesh":2
	},
	{
		"name":"Extrude.3",
		"mesh":3
	},
	{
		"name":"Extrude.4",
		"mesh":4
	},
	{
		"name":"Extrude.5",
		"mesh":5
	},
	{
		"name":"Extrude.6",
		"mesh":6
	}],
	"scenes":[{
		"nodes":[0,
		1,
		2,
		3,
		4,
		5,
		6]
	}],
	"meshes":[{
		"name":"Extrude",
		"primitives":[{
			"attributes":{
				"POSITION":1,
				"NORMAL":2,
				"TEXCOORD_0":3
			},
			"indices":0,
			"material":0
		}]
	},
	{
		"name":"Extrude.1",
		"primitives":[{
			"attributes":{
				"POSITION":5,
				"NORMAL":6,
				"TEXCOORD_0":7
			},
			"indices":4,
			"material":1
		}]
	},
	{
		"name":"Extrude.2",
		"primitives":[{
			"attributes":{
				"POSITION":9,
				"NORMAL":10,
				"TEXCOORD_0":11
			},
			"indices":8,
			"material":1
		}]
	},
	{
		"name":"Extrude.3",
		"primitives":[{
			"attributes":{
				"POSITION":13,
				"NORMAL":14,
				"TEXCOORD_0":15
			},
			"indices":12,
			"material":1
		}]
	},
	{
		"name":"Extrude.4",
		"primitives":[{
			"attributes":{
				"POSITION":17,
				"NORMAL":18,
				"TEXCOORD_0":19
			},
			"indices":16,
			"material":0
		}]
	},
	{
		"name":"Extrude.5",
		"primitives":[{
			"attributes":{
				"POSITION":21,
				"NORMAL":22,
				"TEXCOORD_0":23
			},
			"indices":20,
			"material":2
		}]
	},
	{
		"name":"Extrude.6",
		"primitives":[{
			"attributes":{
				"POSITION":25,
				"NORMAL":26,
				"TEXCOORD_0":27
			},
			"indices":24,
			"material":0
		}]
	}],
	"accessors":[{
		"count":60,
		"bufferView":0,
		"type":"SCALAR",
		"max":[59],
		"componentType":5123,
		"byteOffset":0,
		"min":[0]
	},
	{
		"count":60,
		"bufferView":1,
		"type":"VEC3",
		"max":[0.5042984485626221,
		0.1785302758216858,
		0.004999999888241291],
		"componentType":5126,
		"byteOffset":0,
		"min":[0.2662580609321594,
		0.019836697727441789,
		0.0]
	},
	{
		"count":60,
		"bufferView":1,
		"type":"VEC3",
		"max":[0.7071068286895752,
		1.0,
		1.0],
		"componentType":5126,
		"byteOffset":12,
		"min":[-0.7071068286895752,
		-1.0,
		-1.0]
	},
	{
		"count":60,
		"bufferView":1,
		"type":"VEC2",
		"max":[1.0,
		1.0],
		"componentType":5126,
		"byteOffset":24,
		"min":[0.0,
		0.0]
	},
	{
		"count":624,
		"bufferView":2,
		"type":"SCALAR",
		"max":[623],
		"componentType":5123,
		"byteOffset":0,
		"min":[0]
	},
	{
		"count":624,
		"bufferView":3,
		"type":"VEC3",
		"max":[0.22157591581344605,
		0.1524946093559265,
		0.004999999888241291],
		"componentType":5126,
		"byteOffset":0,
		"min":[0.1951930969953537,
		0.09878675639629364,
		0.0]
	},
	{
		"count":624,
		"bufferView":3,
		"type":"VEC3",
		"max":[1.0,
		1.0,
		1.0],
		"componentType":5126,
		"byteOffset":12,
		"min":[-1.0,
		-1.0,
		-1.0]
	},
	{
		"count":624,
		"bufferView":3,
		"type":"VEC2",
		"max":[1.0,
		1.0],
		"componentType":5126,
		"byteOffset":24,
		"min":[0.0,
		0.0]
	},
	{
		"count":1824,
		"bufferView":4,
		"type":"SCALAR",
		"max":[1823],
		"componentType":5123,
		"byteOffset":0,
		"min":[0]
	},
	{
		"count":1824,
		"bufferView":5,
		"type":"VEC3",
		"max":[0.19162249565124513,
		0.14133647084236146,
		0.004999999888241291],
		"componentType":5126,
		"byteOffset":0,
		"min":[0.1492711454629898,
		0.09819164872169495,
		0.0]
	},
	{
		"count":1824,
		"bufferView":5,
		"type":"VEC3",
		"max":[0.9999960660934448,
		0.9999920129776001,
		1.0],
		"componentType":5126,
		"byteOffset":12,
		"min":[-0.999984622001648,
		-0.9999385476112366,
		-1.0]
	},
	{
		"count":1824,
		"bufferView":5,
		"type":"VEC2",
		"max":[1.0,
		1.0],
		"componentType":5126,
		"byteOffset":24,
		"min":[0.0,
		0.0]
	},
	{
		"count":900,
		"bufferView":6,
		"type":"SCALAR",
		"max":[899],
		"componentType":5123,
		"byteOffset":0,
		"min":[0]
	},
	{
		"count":900,
		"bufferView":7,
		"type":"VEC3",
		"max":[0.14198115468025208,
		0.14133647084236146,
		0.004999999888241291],
		"componentType":5126,
		"byteOffset":0,
		"min":[0.10349796712398529,
		0.09913389384746552,
		0.0]
	},
	{
		"count":900,
		"bufferView":7,
		"type":"VEC3",
		"max":[1.0,
		1.0,
		1.0],
		"componentType":5126,
		"byteOffset":12,
		"min":[-1.0,
		-1.0,
		-1.0]
	},
	{
		"count":900,
		"bufferView":7,
		"type":"VEC2",
		"max":[1.0,
		1.0],
		"componentType":5126,
		"byteOffset":24,
		"min":[0.0,
		0.0]
	},
	{
		"count":144,
		"bufferView":8,
		"type":"SCALAR",
		"max":[143],
		"componentType":5123,
		"byteOffset":0,
		"min":[0]
	},
	{
		"count":144,
		"bufferView":9,
		"type":"VEC3",
		"max":[0.5474432706832886,
		0.2008465677499771,
		0.004999999888241291],
		"componentType":5126,
		"byteOffset":0,
		"min":[-0.0035210137721151115,
		-0.0024795872159302236,
		0.0]
	},
	{
		"count":144,
		"bufferView":9,
		"type":"VEC3",
		"max":[0.7071068286895752,
		1.0,
		1.0],
		"componentType":5126,
		"byteOffset":12,
		"min":[-0.7071068286895752,
		-1.0,
		-1.0]
	},
	{
		"count":144,
		"bufferView":9,
		"type":"VEC2",
		"max":[1.0,
		1.0],
		"componentType":5126,
		"byteOffset":24,
		"min":[0.0,
		0.0]
	},
	{
		"count":60,
		"bufferView":10,
		"type":"SCALAR",
		"max":[59],
		"componentType":5123,
		"byteOffset":0,
		"min":[0]
	},
	{
		"count":60,
		"bufferView":11,
		"type":"VEC3",
		"max":[0.543971836566925,
		0.19836696982383729,
		0.07000000029802323],
		"componentType":5126,
		"byteOffset":0,
		"min":[0.0,
		0.0,
		0.0]
	},
	{
		"count":60,
		"bufferView":11,
		"type":"VEC3",
		"max":[0.7071068286895752,
		1.0,
		1.0],
		"componentType":5126,
		"byteOffset":12,
		"min":[-0.7071068286895752,
		-1.0,
		-1.0]
	},
	{
		"count":60,
		"bufferView":11,
		"type":"VEC2",
		"max":[1.0,
		1.0],
		"componentType":5126,
		"byteOffset":24,
		"min":[0.0,
		0.0]
	},
	{
		"count":144,
		"bufferView":12,
		"type":"SCALAR",
		"max":[143],
		"componentType":5123,
		"byteOffset":0,
		"min":[0]
	},
	{
		"count":144,
		"bufferView":13,
		"type":"VEC3",
		"max":[0.5474432706832886,
		0.2008465677499771,
		0.004999999888241291],
		"componentType":5126,
		"byteOffset":0,
		"min":[-0.0035210137721151115,
		-0.0024795872159302236,
		0.0]
	},
	{
		"count":144,
		"bufferView":13,
		"type":"VEC3",
		"max":[0.7071068286895752,
		1.0,
		1.0],
		"componentType":5126,
		"byteOffset":12,
		"min":[-0.7071068286895752,
		-1.0,
		-1.0]
	},
	{
		"count":144,
		"bufferView":13,
		"type":"VEC2",
		"max":[1.0,
		1.0],
		"componentType":5126,
		"byteOffset":24,
		"min":[0.0,
		0.0]
	}],
	"bufferViews":[{
		"buffer":0,
		"byteOffset":0,
		"byteLength":120,
		"target":34963
	},
	{
		"buffer":0,
		"byteOffset":120,
		"byteLength":1920,
		"target":34962,
		"byteStride":32
	},
	{
		"buffer":1,
		"byteOffset":0,
		"byteLength":1248,
		"target":34963
	},
	{
		"buffer":1,
		"byteOffset":1248,
		"byteLength":19968,
		"target":34962,
		"byteStride":32
	},
	{
		"buffer":2,
		"byteOffset":0,
		"byteLength":3648,
		"target":34963
	},
	{
		"buffer":2,
		"byteOffset":3648,
		"byteLength":58368,
		"target":34962,
		"byteStride":32
	},
	{
		"buffer":3,
		"byteOffset":0,
		"byteLength":1800,
		"target":34963
	},
	{
		"buffer":3,
		"byteOffset":1800,
		"byteLength":28800,
		"target":34962,
		"byteStride":32
	},
	{
		"buffer":4,
		"byteOffset":0,
		"byteLength":288,
		"target":34963
	},
	{
		"buffer":4,
		"byteOffset":288,
		"byteLength":4608,
		"target":34962,
		"byteStride":32
	},
	{
		"buffer":5,
		"byteOffset":0,
		"byteLength":120,
		"target":34963
	},
	{
		"buffer":5,
		"byteOffset":120,
		"byteLength":1920,
		"target":34962,
		"byteStride":32
	},
	{
		"buffer":6,
		"byteOffset":0,
		"byteLength":288,
		"target":34963
	},
	{
		"buffer":6,
		"byteOffset":288,
		"byteLength":4608,
		"target":34962,
		"byteStride":32
	}],
	"buffers":[{
		"uri":"data:application/octet-stream;base64,",
		"byteLength":2040
	},
	{
		"uri":"data:application/octet-stream;base64,",
		"byteLength":21216
	},
	{
		"uri":"data:application/octet-stream;base64,",
		"byteLength":62016
	},
	{
		"uri":"data:application/octet-stream;base64,",
		"byteLength":30600
	},
	{
		"uri":"data:application/octet-stream;base64,",
		"byteLength":4896
	},
	{
		"uri":"data:application/octet-stream;base64,",
		"byteLength":2040
	},
	{
		"uri":"data:application/octet-stream;base64,",
		"byteLength":4896
	}],
	"materials":[{
		"pbrMetallicRoughness":{
			"baseColorFactor":[0.10980392156862744,
			0.196078431372549,
			0.2862745098039216,
			1.0],
			"metallicFactor":0.0,
			"roughnessFactor":0.30000001192092898
		},
		"emissiveFactor":[0.0,
		0.0,
		0.0],
		"alphaMode":"OPAQUE",
		"doubleSided":false,
		"name":"RS OpenPBR.1"
	},
	{
		"pbrMetallicRoughness":{
			"baseColorFactor":[1.0,
			1.0,
			1.0,
			1.0],
			"metallicFactor":0.0,
			"roughnessFactor":0.30000001192092898
		},
		"emissiveFactor":[0.0,
		0.0,
		0.0],
		"alphaMode":"OPAQUE",
		"doubleSided":false,
		"name":"RS OpenPBR.2"
	},
	{
		"pbrMetallicRoughness":{
			"baseColorFactor":[0.16470588235294118,
			0.28235294117647055,
			0.39607843137254908,
			1.0],
			"metallicFactor":0.0,
			"roughnessFactor":0.30000001192092898
		},
		"emissiveFactor":[0.0,
		0.0,
		0.0],
		"alphaMode":"OPAQUE",
		"doubleSided":false,
		"name":"RS OpenPBR"
	}]
}