{
	"asset":{
		"version":"2.0",
		"generator":"Maxon Cinema 4D TRIAL 2026.0.0 (#200000219)"
	},
	"nodes":[{
		"name":"Extrude",
		"children":[7]
	},
	{
		"name":"Extrude.1",
		"children":[8]
	},
	{
		"translation":[0.0,
		-0.01735215075314045,
		0.0],
		"name":"Extrude.2",
		"rotation":[0.0,
		0.0,
		0.0,
		-1.0],
		"scale":[1.0,
		1.0,
		1.0],
		"children":[9]
	},
	{
		"name":"Extrude.3",
		"children":[10]
	},
	{
		"name":"Extrude.5",
		"children":[11]
	},
	{
		"translation":[0.0,
		0.0,
		-0.016496475785970689],
		"name":"Extrude.6",
		"rotation":[0.0,
		0.0,
		0.0,
		-1.0],
		"scale":[1.0,
		1.0,
		1.0],
		"children":[12]
	},
	{
		"translation":[0.0,
		0.0,
		-0.07136715948581696],
		"name":"Extrude.4",
		"rotation":[0.0,
		0.0,
		0.0,
		-1.0],
		"scale":[1.0,
		1.0,
		1.0],
		"children":[13]
	},
	{
		"name":"Extrude",
		"mesh":0
	},
	{
		"name":"Extrude.1",
		"mesh":1
	},
	{
		"name":"Extrude.2",
		"mesh":2
	},
	{
		"name":"Extrude.3",
		"mesh":3
	},
	{
		"name":"Extrude.5",
		"mesh":4
	},
	{
		"name":"Extrude.6",
		"mesh":5
	},
	{
		"name":"Extrude.4",
		"mesh":6
	}],
	"scenes":[{
		"nodes":[0,
		1,
		2,
		3,
		4,
		5,
		6]
	}],
	"meshes":[{
		"name":"Extrude",
		"primitives":[{
			"attributes":{
				"POSITION":1,
				"NORMAL":2,
				"TEXCOORD_0":3
			},
			"indices":0,
			"material":0
		}]
	},
	{
		"name":"Extrude.1",
		"primitives":[{
			"attributes":{
				"POSITION":5,
				"NORMAL":6,
				"TEXCOORD_0":7
			},
			"indices":4,
			"material":0
		}]
	},
	{
		"name":"Extrude.2",
		"primitives":[{
			"attributes":{
				"POSITION":9,
				"NORMAL":10,
				"TEXCOORD_0":11
			},
			"indices":8,
			"material":1
		}]
	},
	{
		"name":"Extrude.3",
		"primitives":[{
			"attributes":{
				"POSITION":13,
				"NORMAL":14,
				"TEXCOORD_0":15
			},
			"indices":12,
			"material":0
		}]
	},
	{
		"name":"Extrude.5",
		"primitives":[{
			"attributes":{
				"POSITION":17,
				"NORMAL":18,
				"TEXCOORD_0":19
			},
			"indices":16,
			"material":0
		}]
	},
	{
		"name":"Extrude.6",
		"primitives":[{
			"attributes":{
				"POSITION":21,
				"NORMAL":22,
				"TEXCOORD_0":23
			},
			"indices":20,
			"material":2
		}]
	},
	{
		"name":"Extrude.4",
		"primitives":[{
			"attributes":{
				"POSITION":25,
				"NORMAL":26,
				"TEXCOORD_0":27
			},
			"indices":24,
			"material":0
		}]
	}],
	"accessors":[{
		"count":828,
		"bufferView":0,
		"type":"SCALAR",
		"max":[827],
		"componentType":5123,
		"byteOffset":0,
		"min":[0]
	},
	{
		"count":828,
		"bufferView":1,
		"type":"VEC3",
		"max":[0.8170568346977234,
		0.16945761442184449,
		0.004999999888241291],
		"componentType":5126,
		"byteOffset":0,
		"min":[0.6001510620117188,
		0.0248537827283144,
		0.0]
	},
	{
		"count":828,
		"bufferView":1,
		"type":"VEC3",
		"max":[0.9998700022697449,
		1.0,
		1.0],
		"componentType":5126,
		"byteOffset":12,
		"min":[-0.9998700022697449,
		-1.0,
		-1.0]
	},
	{
		"count":828,
		"bufferView":1,
		"type":"VEC2",
		"max":[1.0,
		1.0],
		"componentType":5126,
		"byteOffset":24,
		"min":[0.0,
		0.0]
	},
	{
		"count":828,
		"bufferView":2,
		"type":"SCALAR",
		"max":[827],
		"componentType":5123,
		"byteOffset":0,
		"min":[0]
	},
	{
		"count":828,
		"bufferView":3,
		"type":"VEC3",
		"max":[0.3140614330768585,
		0.16945761442184449,
		0.004999999888241291],
		"componentType":5126,
		"byteOffset":0,
		"min":[0.09715569764375687,
		0.0248537827283144,
		0.0]
	},
	{
		"count":828,
		"bufferView":3,
		"type":"VEC3",
		"max":[0.9998700022697449,
		1.0,
		1.0],
		"componentType":5126,
		"byteOffset":12,
		"min":[-0.9998700022697449,
		-1.0,
		-1.0]
	},
	{
		"count":828,
		"bufferView":3,
		"type":"VEC2",
		"max":[1.0,
		1.0],
		"componentType":5126,
		"byteOffset":24,
		"min":[0.0,
		0.0]
	},
	{
		"count":72,
		"bufferView":4,
		"type":"SCALAR",
		"max":[71],
		"componentType":5123,
		"byteOffset":0,
		"min":[0]
	},
	{
		"count":72,
		"bufferView":5,
		"type":"VEC3",
		"max":[0.42635536193847659,
		0.12702542543411256,
		0.004999999888241291],
		"componentType":5126,
		"byteOffset":0,
		"min":[0.3898428976535797,
		0.10379843413829804,
		0.0]
	},
	{
		"count":72,
		"bufferView":5,
		"type":"VEC3",
		"max":[1.0,
		1.0,
		1.0],
		"componentType":5126,
		"byteOffset":12,
		"min":[-1.0,
		-1.0,
		-1.0]
	},
	{
		"count":72,
		"bufferView":5,
		"type":"VEC2",
		"max":[1.0,
		1.0],
		"componentType":5126,
		"byteOffset":24,
		"min":[0.0,
		0.0]
	},
	{
		"count":1728,
		"bufferView":6,
		"type":"SCALAR",
		"max":[1727],
		"componentType":5123,
		"byteOffset":0,
		"min":[0]
	},
	{
		"count":1728,
		"bufferView":7,
		"type":"VEC3",
		"max":[0.5662595629692078,
		0.1784953474998474,
		0.004999999888241291],
		"componentType":5126,
		"byteOffset":0,
		"min":[0.3479529619216919,
		0.015816044062376024,
		0.0]
	},
	{
		"count":1728,
		"bufferView":7,
		"type":"VEC3",
		"max":[1.0,
		1.0,
		1.0],
		"componentType":5126,
		"byteOffset":12,
		"min":[-1.0,
		-1.0,
		-1.0]
	},
	{
		"count":1728,
		"bufferView":7,
		"type":"VEC2",
		"max":[1.0,
		1.0],
		"componentType":5126,
		"byteOffset":24,
		"min":[0.0,
		0.0]
	},
	{
		"count":144,
		"bufferView":8,
		"type":"SCALAR",
		"max":[143],
		"componentType":5123,
		"byteOffset":0,
		"min":[0]
	},
	{
		"count":144,
		"bufferView":9,
		"type":"VEC3",
		"max":[0.9174209237098694,
		0.19657082855701447,
		0.004999999888241291],
		"componentType":5126,
		"byteOffset":0,
		"min":[-0.0032083974219858648,
		-0.002259434899315238,
		0.0]
	},
	{
		"count":144,
		"bufferView":9,
		"type":"VEC3",
		"max":[0.7071068286895752,
		1.0,
		1.0],
		"componentType":5126,
		"byteOffset":12,
		"min":[-0.7071068286895752,
		-1.0,
		-1.0]
	},
	{
		"count":144,
		"bufferView":9,
		"type":"VEC2",
		"max":[1.0,
		1.0],
		"componentType":5126,
		"byteOffset":24,
		"min":[0.0,
		0.0]
	},
	{
		"count":60,
		"bufferView":10,
		"type":"SCALAR",
		"max":[59],
		"componentType":5123,
		"byteOffset":0,
		"min":[0]
	},
	{
		"count":60,
		"bufferView":11,
		"type":"VEC3",
		"max":[0.9142125248908997,
		0.19431139528751374,
		0.017769353464245797],
		"componentType":5126,
		"byteOffset":0,
		"min":[0.0,
		0.0,
		-0.05223064497113228]
	},
	{
		"count":60,
		"bufferView":11,
		"type":"VEC3",
		"max":[0.7071068286895752,
		1.0,
		1.0],
		"componentType":5126,
		"byteOffset":12,
		"min":[-0.7071068286895752,
		-1.0,
		-1.0]
	},
	{
		"count":60,
		"bufferView":11,
		"type":"VEC2",
		"max":[1.0,
		1.0],
		"componentType":5126,
		"byteOffset":24,
		"min":[0.0,
		0.0]
	},
	{
		"count":144,
		"bufferView":12,
		"type":"SCALAR",
		"max":[143],
		"componentType":5123,
		"byteOffset":0,
		"min":[0]
	},
	{
		"count":144,
		"bufferView":13,
		"type":"VEC3",
		"max":[0.9174209237098694,
		0.19657082855701447,
		0.004999999888241291],
		"componentType":5126,
		"byteOffset":0,
		"min":[-0.0032083974219858648,
		-0.002259434899315238,
		0.0]
	},
	{
		"count":144,
		"bufferView":13,
		"type":"VEC3",
		"max":[0.7071068286895752,
		1.0,
		1.0],
		"componentType":5126,
		"byteOffset":12,
		"min":[-0.7071068286895752,
		-1.0,
		-1.0]
	},
	{
		"count":144,
		"bufferView":13,
		"type":"VEC2",
		"max":[1.0,
		1.0],
		"componentType":5126,
		"byteOffset":24,
		"min":[0.0,
		0.0]
	}],
	"bufferViews":[{
		"buffer":0,
		"byteOffset":0,
		"byteLength":1656,
		"target":34963
	},
	{
		"buffer":0,
		"byteOffset":1656,
		"byteLength":26496,
		"target":34962,
		"byteStride":32
	},
	{
		"buffer":1,
		"byteOffset":0,
		"byteLength":1656,
		"target":34963
	},
	{
		"buffer":1,
		"byteOffset":1656,
		"byteLength":26496,
		"target":34962,
		"byteStride":32
	},
	{
		"buffer":2,
		"byteOffset":0,
		"byteLength":144,
		"target":34963
	},
	{
		"buffer":2,
		"byteOffset":144,
		"byteLength":2304,
		"target":34962,
		"byteStride":32
	},
	{
		"buffer":3,
		"byteOffset":0,
		"byteLength":3456,
		"target":34963
	},
	{
		"buffer":3,
		"byteOffset":3456,
		"byteLength":55296,
		"target":34962,
		"byteStride":32
	},
	{
		"buffer":4,
		"byteOffset":0,
		"byteLength":288,
		"target":34963
	},
	{
		"buffer":4,
		"byteOffset":288,
		"byteLength":4608,
		"target":34962,
		"byteStride":32
	},
	{
		"buffer":5,
		"byteOffset":0,
		"byteLength":120,
		"target":34963
	},
	{
		"buffer":5,
		"byteOffset":120,
		"byteLength":1920,
		"target":34962,
		"byteStride":32
	},
	{
		"buffer":6,
		"byteOffset":0,
		"byteLength":288,
		"target":34963
	},
	{
		"buffer":6,
		"byteOffset":288,
		"byteLength":4608,
		"target":34962,
		"byteStride":32
	}],
	"buffers":[{
		"uri":"data:application/octet-stream;base64,",
		"byteLength":28152
	},
	{
		"uri":"data:application/octet-stream;base64,",
		"byteLength":28152
	},
	{
		"uri":"data:application/octet-stream;base64,",
		"byteLength":2448
	},
	{
		"uri":"data:application/octet-stream;base64,",
		"byteLength":58752
	},
	{
		"uri":"data:application/octet-stream;base64,",
		"byteLength":4896
	},
	{
		"uri":"data:application/octet-stream;base64,",
		"byteLength":2040
	},
	{
		"uri":"data:application/octet-stream;base64,",
		"byteLength":4896
	}],
	"materials":[{
		"pbrMetallicRoughness":{
			"baseColorFactor":[0.10980392156862744,
			0.196078431372549,
			0.2862745098039216,
			1.0],
			"metallicFactor":0.0,
			"roughnessFactor":0.30000001192092898
		},
		"emissiveFactor":[0.0,
		0.0,
		0.0],
		"alphaMode":"OPAQUE",
		"doubleSided":false,
		"name":"RS OpenPBR.1"
	},
	{
		"pbrMetallicRoughness":{
			"baseColorFactor":[1.0,
			1.0,
			1.0,
			1.0],
			"metallicFactor":0.0,
			"roughnessFactor":0.30000001192092898
		},
		"emissiveFactor":[0.0,
		0.0,
		0.0],
		"alphaMode":"OPAQUE",
		"doubleSided":false,
		"name":"RS OpenPBR.2"
	},
	{
		"pbrMetallicRoughness":{
			"baseColorFactor":[0.16470588235294118,
			0.28235294117647055,
			0.39607843137254908,
			1.0],
			"metallicFactor":0.0,
			"roughnessFactor":0.30000001192092898
		},
		"emissiveFactor":[0.0,
		0.0,
		0.0],
		"alphaMode":"OPAQUE",
		"doubleSided":false,
		"name":"RS OpenPBR"
	}]
}