{
	"asset":{
		"version":"2.0",
		"generator":"Maxon Cinema 4D TRIAL 2026.0.0 (#200000219)"
	},
	"nodes":[{
		"translation":[0.0,
		-0.018926823511719705,
		0.004555350635200739],
		"name":"Extrude",
		"rotation":[0.0,
		0.0,
		0.0,
		-1.0],
		"scale":[1.0,
		1.0,
		1.0],
		"children":[5]
	},
	{
		"name":"Extrude.1",
		"children":[6]
	},
	{
		"name":"Extrude.3",
		"children":[7]
	},
	{
		"translation":[0.0,
		0.0,
		0.00047486231778748333],
		"name":"Extrude.4",
		"rotation":[0.0,
		0.0,
		0.0,
		-1.0],
		"scale":[1.0,
		1.0,
		1.0],
		"children":[8]
	},
	{
		"translation":[0.0,
		0.0,
		-0.0520612858235836],
		"name":"Extrude.2",
		"rotation":[0.0,
		0.0,
		0.0,
		-1.0],
		"scale":[1.0,
		1.0,
		1.0],
		"children":[9]
	},
	{
		"name":"Extrude",
		"mesh":0
	},
	{
		"name":"Extrude.1",
		"mesh":1
	},
	{
		"name":"Extrude.3",
		"mesh":2
	},
	{
		"name":"Extrude.4",
		"mesh":3
	},
	{
		"name":"Extrude.2",
		"mesh":4
	}],
	"scenes":[{
		"nodes":[0,
		1,
		2,
		3,
		4]
	}],
	"meshes":[{
		"name":"Extrude",
		"primitives":[{
			"attributes":{
				"POSITION":1,
				"NORMAL":2,
				"TEXCOORD_0":3
			},
			"indices":0,
			"material":0
		}]
	},
	{
		"name":"Extrude.1",
		"primitives":[{
			"attributes":{
				"POSITION":5,
				"NORMAL":6,
				"TEXCOORD_0":7
			},
			"indices":4,
			"material":1
		}]
	},
	{
		"name":"Extrude.3",
		"primitives":[{
			"attributes":{
				"POSITION":9,
				"NORMAL":10,
				"TEXCOORD_0":11
			},
			"indices":8,
			"material":1
		}]
	},
	{
		"name":"Extrude.4",
		"primitives":[{
			"attributes":{
				"POSITION":13,
				"NORMAL":14,
				"TEXCOORD_0":15
			},
			"indices":12,
			"material":2
		}]
	},
	{
		"name":"Extrude.2",
		"primitives":[{
			"attributes":{
				"POSITION":17,
				"NORMAL":18,
				"TEXCOORD_0":19
			},
			"indices":16,
			"material":1
		}]
	}],
	"accessors":[{
		"count":744,
		"bufferView":0,
		"type":"SCALAR",
		"max":[743],
		"componentType":5123,
		"byteOffset":0,
		"min":[0]
	},
	{
		"count":744,
		"bufferView":1,
		"type":"VEC3",
		"max":[0.1422967165708542,
		0.1404566764831543,
		0.0],
		"componentType":5126,
		"byteOffset":0,
		"min":[0.09662588685750961,
		0.10091932117938996,
		-0.004999999888241291]
	},
	{
		"count":744,
		"bufferView":1,
		"type":"VEC3",
		"max":[1.0,
		1.0,
		1.0],
		"componentType":5126,
		"byteOffset":12,
		"min":[-1.0,
		-1.0,
		-1.0]
	},
	{
		"count":744,
		"bufferView":1,
		"type":"VEC2",
		"max":[1.0,
		1.0],
		"componentType":5126,
		"byteOffset":24,
		"min":[0.0,
		0.0]
	},
	{
		"count":1728,
		"bufferView":2,
		"type":"SCALAR",
		"max":[1727],
		"componentType":5123,
		"byteOffset":0,
		"min":[0]
	},
	{
		"count":1728,
		"bufferView":3,
		"type":"VEC3",
		"max":[0.2811020612716675,
		0.18636339902877809,
		0.004999999888241291],
		"componentType":5126,
		"byteOffset":0,
		"min":[0.054257698357105258,
		0.016513213515281678,
		0.0]
	},
	{
		"count":1728,
		"bufferView":3,
		"type":"VEC3",
		"max":[1.0,
		1.0,
		1.0],
		"componentType":5126,
		"byteOffset":12,
		"min":[-1.0,
		-1.0,
		-1.0]
	},
	{
		"count":1728,
		"bufferView":3,
		"type":"VEC2",
		"max":[1.0,
		1.0],
		"componentType":5126,
		"byteOffset":24,
		"min":[0.0,
		0.0]
	},
	{
		"count":1680,
		"bufferView":4,
		"type":"SCALAR",
		"max":[1679],
		"componentType":5123,
		"byteOffset":0,
		"min":[0]
	},
	{
		"count":1680,
		"bufferView":5,
		"type":"VEC3",
		"max":[0.33771878480911257,
		0.20523564517498017,
		0.004999999888241291],
		"componentType":5126,
		"byteOffset":0,
		"min":[-0.0023590305354446174,
		-0.0023590305354446174,
		0.0]
	},
	{
		"count":1680,
		"bufferView":5,
		"type":"VEC3",
		"max":[0.9998690485954285,
		1.0,
		1.0],
		"componentType":5126,
		"byteOffset":12,
		"min":[-0.9998690485954285,
		-1.0,
		-1.0]
	},
	{
		"count":1680,
		"bufferView":5,
		"type":"VEC2",
		"max":[1.0,
		1.0],
		"componentType":5126,
		"byteOffset":24,
		"min":[0.0,
		0.0]
	},
	{
		"count":828,
		"bufferView":6,
		"type":"SCALAR",
		"max":[827],
		"componentType":5123,
		"byteOffset":0,
		"min":[0]
	},
	{
		"count":828,
		"bufferView":7,
		"type":"VEC3",
		"max":[0.33535975217819216,
		0.20287661254405976,
		0.0],
		"componentType":5126,
		"byteOffset":0,
		"min":[0.0,
		0.0,
		-0.05000000074505806]
	},
	{
		"count":828,
		"bufferView":7,
		"type":"VEC3",
		"max":[0.9998695254325867,
		1.0,
		1.0],
		"componentType":5126,
		"byteOffset":12,
		"min":[-0.9998695254325867,
		-1.0,
		-1.0]
	},
	{
		"count":828,
		"bufferView":7,
		"type":"VEC2",
		"max":[1.0,
		1.0],
		"componentType":5126,
		"byteOffset":24,
		"min":[0.0,
		0.0]
	},
	{
		"count":1680,
		"bufferView":8,
		"type":"SCALAR",
		"max":[1679],
		"componentType":5123,
		"byteOffset":0,
		"min":[0]
	},
	{
		"count":1680,
		"bufferView":9,
		"type":"VEC3",
		"max":[0.33771878480911257,
		0.20523564517498017,
		0.004999999888241291],
		"componentType":5126,
		"byteOffset":0,
		"min":[-0.0023590305354446174,
		-0.0023590305354446174,
		0.0]
	},
	{
		"count":1680,
		"bufferView":9,
		"type":"VEC3",
		"max":[0.9998690485954285,
		1.0,
		1.0],
		"componentType":5126,
		"byteOffset":12,
		"min":[-0.9998690485954285,
		-1.0,
		-1.0]
	},
	{
		"count":1680,
		"bufferView":9,
		"type":"VEC2",
		"max":[1.0,
		1.0],
		"componentType":5126,
		"byteOffset":24,
		"min":[0.0,
		0.0]
	}],
	"bufferViews":[{
		"buffer":0,
		"byteOffset":0,
		"byteLength":1488,
		"target":34963
	},
	{
		"buffer":0,
		"byteOffset":1488,
		"byteLength":23808,
		"target":34962,
		"byteStride":32
	},
	{
		"buffer":1,
		"byteOffset":0,
		"byteLength":3456,
		"target":34963
	},
	{
		"buffer":1,
		"byteOffset":3456,
		"byteLength":55296,
		"target":34962,
		"byteStride":32
	},
	{
		"buffer":2,
		"byteOffset":0,
		"byteLength":3360,
		"target":34963
	},
	{
		"buffer":2,
		"byteOffset":3360,
		"byteLength":53760,
		"target":34962,
		"byteStride":32
	},
	{
		"buffer":3,
		"byteOffset":0,
		"byteLength":1656,
		"target":34963
	},
	{
		"buffer":3,
		"byteOffset":1656,
		"byteLength":26496,
		"target":34962,
		"byteStride":32
	},
	{
		"buffer":4,
		"byteOffset":0,
		"byteLength":3360,
		"target":34963
	},
	{
		"buffer":4,
		"byteOffset":3360,
		"byteLength":53760,
		"target":34962,
		"byteStride":32
	}],
	"buffers":[{
		"uri":"data:application/octet-stream;base64,",
		"byteLength":25296
	},
	{
		"uri":"data:application/octet-stream;base64,",
		"byteLength":58752
	},
	{
		"uri":"data:application/octet-stream;base64,",
		"byteLength":57120
	},
	{
		"uri":"data:application/octet-stream;base64,",
		"byteLength":28152
	},
	{
		"uri":"data:application/octet-stream;base64,",
		"byteLength":57120
	}],
	"materials":[{
		"pbrMetallicRoughness":{
			"baseColorFactor":[1.0,
			1.0,
			1.0,
			1.0],
			"metallicFactor":0.0,
			"roughnessFactor":0.30000001192092898
		},
		"emissiveFactor":[0.0,
		0.0,
		0.0],
		"alphaMode":"OPAQUE",
		"doubleSided":false,
		"name":"RS OpenPBR.2"
	},
	{
		"pbrMetallicRoughness":{
			"baseColorFactor":[0.1333333333333333,
			0.10980392156862744,
			0.3137254901960785,
			1.0],
			"metallicFactor":0.0,
			"roughnessFactor":0.30000001192092898
		},
		"emissiveFactor":[0.0,
		0.0,
		0.0],
		"alphaMode":"OPAQUE",
		"doubleSided":false,
		"name":"RS OpenPBR.1"
	},
	{
		"pbrMetallicRoughness":{
			"baseColorFactor":[0.17647058823529414,
			0.16470588235294118,
			0.3450980392156862,
			1.0],
			"metallicFactor":0.0,
			"roughnessFactor":0.30000001192092898
		},
		"emissiveFactor":[0.0,
		0.0,
		0.0],
		"alphaMode":"OPAQUE",
		"doubleSided":false,
		"name":"RS OpenPBR"
	}]
}