{
	"asset":{
		"version":"2.0",
		"generator":"Maxon Cinema 4D TRIAL 2026.0.0 (#200000219)"
	},
	"nodes":[{
		"name":"Extrude",
		"children":[8]
	},
	{
		"translation":[0.0,
		-0.021291078999638559,
		0.0],
		"name":"Extrude.1",
		"rotation":[0.0,
		0.0,
		0.0,
		-1.0],
		"scale":[1.0,
		1.0,
		1.0],
		"children":[9]
	},
	{
		"translation":[0.0,
		-0.021291078999638559,
		0.0],
		"name":"Extrude.2",
		"rotation":[0.0,
		0.0,
		0.0,
		-1.0],
		"scale":[1.0,
		1.0,
		1.0],
		"children":[10]
	},
	{
		"translation":[0.0,
		-0.021291078999638559,
		0.0],
		"name":"Extrude.3",
		"rotation":[0.0,
		0.0,
		0.0,
		-1.0],
		"scale":[1.0,
		1.0,
		1.0],
		"children":[11]
	},
	{
		"name":"Extrude.4",
		"children":[12]
	},
	{
		"name":"Extrude.6",
		"children":[13]
	},
	{
		"name":"Extrude.7",
		"children":[14]
	},
	{
		"translation":[0.0,
		0.0,
		-0.06387723237276077],
		"name":"Extrude.5",
		"rotation":[0.0,
		0.0,
		0.0,
		-1.0],
		"scale":[1.0,
		1.0,
		1.0],
		"children":[15]
	},
	{
		"name":"Extrude",
		"mesh":0
	},
	{
		"name":"Extrude.1",
		"mesh":1
	},
	{
		"name":"Extrude.2",
		"mesh":2
	},
	{
		"name":"Extrude.3",
		"mesh":3
	},
	{
		"name":"Extrude.4",
		"mesh":4
	},
	{
		"name":"Extrude.6",
		"mesh":5
	},
	{
		"name":"Extrude.7",
		"mesh":6
	},
	{
		"name":"Extrude.5",
		"mesh":7
	}],
	"scenes":[{
		"nodes":[0,
		1,
		2,
		3,
		4,
		5,
		6,
		7]
	}],
	"meshes":[{
		"name":"Extrude",
		"primitives":[{
			"attributes":{
				"POSITION":1,
				"NORMAL":2,
				"TEXCOORD_0":3
			},
			"indices":0,
			"material":0
		}]
	},
	{
		"name":"Extrude.1",
		"primitives":[{
			"attributes":{
				"POSITION":5,
				"NORMAL":6,
				"TEXCOORD_0":7
			},
			"indices":4,
			"material":1
		}]
	},
	{
		"name":"Extrude.2",
		"primitives":[{
			"attributes":{
				"POSITION":9,
				"NORMAL":10,
				"TEXCOORD_0":11
			},
			"indices":8,
			"material":1
		}]
	},
	{
		"name":"Extrude.3",
		"primitives":[{
			"attributes":{
				"POSITION":13,
				"NORMAL":14,
				"TEXCOORD_0":15
			},
			"indices":12,
			"material":1
		}]
	},
	{
		"name":"Extrude.4",
		"primitives":[{
			"attributes":{
				"POSITION":17,
				"NORMAL":18,
				"TEXCOORD_0":19
			},
			"indices":16,
			"material":0
		}]
	},
	{
		"name":"Extrude.6",
		"primitives":[{
			"attributes":{
				"POSITION":21,
				"NORMAL":22,
				"TEXCOORD_0":23
			},
			"indices":20,
			"material":0
		}]
	},
	{
		"name":"Extrude.7",
		"primitives":[{
			"attributes":{
				"POSITION":25,
				"NORMAL":26,
				"TEXCOORD_0":27
			},
			"indices":24,
			"material":2
		}]
	},
	{
		"name":"Extrude.5",
		"primitives":[{
			"attributes":{
				"POSITION":29,
				"NORMAL":30,
				"TEXCOORD_0":31
			},
			"indices":28,
			"material":0
		}]
	}],
	"accessors":[{
		"count":828,
		"bufferView":0,
		"type":"SCALAR",
		"max":[827],
		"componentType":5123,
		"byteOffset":0,
		"min":[0]
	},
	{
		"count":828,
		"bufferView":1,
		"type":"VEC3",
		"max":[0.5846308469772339,
		0.17501123249530793,
		0.004999999888241291],
		"componentType":5126,
		"byteOffset":0,
		"min":[0.3606164753437042,
		0.025668315589427949,
		0.0]
	},
	{
		"count":828,
		"bufferView":1,
		"type":"VEC3",
		"max":[0.9998700022697449,
		1.0,
		1.0],
		"componentType":5126,
		"byteOffset":12,
		"min":[-0.9998700022697449,
		-1.0,
		-1.0]
	},
	{
		"count":828,
		"bufferView":1,
		"type":"VEC2",
		"max":[1.0,
		1.0],
		"componentType":5126,
		"byteOffset":24,
		"min":[0.0,
		0.0]
	},
	{
		"count":900,
		"bufferView":2,
		"type":"SCALAR",
		"max":[899],
		"componentType":5123,
		"byteOffset":0,
		"min":[0]
	},
	{
		"count":900,
		"bufferView":3,
		"type":"VEC3",
		"max":[0.19297905266284944,
		0.14000898599624635,
		0.004999999888241291],
		"componentType":5126,
		"byteOffset":0,
		"min":[0.15676340460777284,
		0.1002931073307991,
		0.0]
	},
	{
		"count":900,
		"bufferView":3,
		"type":"VEC3",
		"max":[1.0,
		1.0,
		1.0],
		"componentType":5126,
		"byteOffset":12,
		"min":[-1.0,
		-1.0,
		-1.0]
	},
	{
		"count":900,
		"bufferView":3,
		"type":"VEC2",
		"max":[1.0,
		1.0],
		"componentType":5126,
		"byteOffset":24,
		"min":[0.0,
		0.0]
	},
	{
		"count":72,
		"bufferView":4,
		"type":"SCALAR",
		"max":[71],
		"componentType":5123,
		"byteOffset":0,
		"min":[0]
	},
	{
		"count":72,
		"bufferView":5,
		"type":"VEC3",
		"max":[0.14836286008358003,
		0.15363653004169465,
		0.004999999888241291],
		"componentType":5126,
		"byteOffset":0,
		"min":[0.13776884973049165,
		0.10033977776765824,
		0.0]
	},
	{
		"count":72,
		"bufferView":5,
		"type":"VEC3",
		"max":[1.0,
		1.0,
		1.0],
		"componentType":5126,
		"byteOffset":12,
		"min":[-1.0,
		-1.0,
		-1.0]
	},
	{
		"count":72,
		"bufferView":5,
		"type":"VEC2",
		"max":[1.0,
		1.0],
		"componentType":5126,
		"byteOffset":24,
		"min":[0.0,
		0.0]
	},
	{
		"count":2604,
		"bufferView":6,
		"type":"SCALAR",
		"max":[2603],
		"componentType":5123,
		"byteOffset":0,
		"min":[0]
	},
	{
		"count":2604,
		"bufferView":7,
		"type":"VEC3",
		"max":[0.13100174069404603,
		0.14000898599624635,
		0.004999999888241291],
		"componentType":5126,
		"byteOffset":0,
		"min":[0.0952061116695404,
		0.09935971349477768,
		0.0]
	},
	{
		"count":2604,
		"bufferView":7,
		"type":"VEC3",
		"max":[0.9999755620956421,
		1.0,
		1.0],
		"componentType":5126,
		"byteOffset":12,
		"min":[-0.9999750852584839,
		-1.0,
		-1.0]
	},
	{
		"count":2604,
		"bufferView":7,
		"type":"VEC2",
		"max":[1.0,
		1.0],
		"componentType":5126,
		"byteOffset":24,
		"min":[0.0,
		0.0]
	},
	{
		"count":1728,
		"bufferView":8,
		"type":"SCALAR",
		"max":[1727],
		"componentType":5123,
		"byteOffset":0,
		"min":[0]
	},
	{
		"count":1728,
		"bufferView":9,
		"type":"VEC3",
		"max":[0.32561424374580386,
		0.18434517085552216,
		0.004999999888241291],
		"componentType":5126,
		"byteOffset":0,
		"min":[0.053670112043619159,
		0.016334382817149164,
		0.0]
	},
	{
		"count":1728,
		"bufferView":9,
		"type":"VEC3",
		"max":[1.0,
		1.0,
		1.0],
		"componentType":5126,
		"byteOffset":12,
		"min":[-1.0,
		-1.0,
		-1.0]
	},
	{
		"count":1728,
		"bufferView":9,
		"type":"VEC2",
		"max":[1.0,
		1.0],
		"componentType":5126,
		"byteOffset":24,
		"min":[0.0,
		0.0]
	},
	{
		"count":1680,
		"bufferView":10,
		"type":"SCALAR",
		"max":[1679],
		"componentType":5123,
		"byteOffset":0,
		"min":[0]
	},
	{
		"count":1680,
		"bufferView":11,
		"type":"VEC3",
		"max":[0.6056322455406189,
		0.20301303267478944,
		0.004999999888241291],
		"componentType":5126,
		"byteOffset":0,
		"min":[-0.0023334831930696966,
		-0.0023334831930696966,
		0.0]
	},
	{
		"count":1680,
		"bufferView":11,
		"type":"VEC3",
		"max":[0.9998690485954285,
		1.0,
		1.0],
		"componentType":5126,
		"byteOffset":12,
		"min":[-0.9998690485954285,
		-1.0,
		-1.0]
	},
	{
		"count":1680,
		"bufferView":11,
		"type":"VEC2",
		"max":[1.0,
		1.0],
		"componentType":5126,
		"byteOffset":24,
		"min":[0.0,
		0.0]
	},
	{
		"count":828,
		"bufferView":12,
		"type":"SCALAR",
		"max":[827],
		"componentType":5123,
		"byteOffset":0,
		"min":[0]
	},
	{
		"count":828,
		"bufferView":13,
		"type":"VEC3",
		"max":[0.6032987236976624,
		0.20067955553531648,
		0.0],
		"componentType":5126,
		"byteOffset":0,
		"min":[0.0,
		0.0,
		-0.05999999865889549]
	},
	{
		"count":828,
		"bufferView":13,
		"type":"VEC3",
		"max":[0.9998695254325867,
		1.0,
		1.0],
		"componentType":5126,
		"byteOffset":12,
		"min":[-0.9998695254325867,
		-1.0,
		-1.0]
	},
	{
		"count":828,
		"bufferView":13,
		"type":"VEC2",
		"max":[1.0,
		1.0],
		"componentType":5126,
		"byteOffset":24,
		"min":[0.0,
		0.0]
	},
	{
		"count":1680,
		"bufferView":14,
		"type":"SCALAR",
		"max":[1679],
		"componentType":5123,
		"byteOffset":0,
		"min":[0]
	},
	{
		"count":1680,
		"bufferView":15,
		"type":"VEC3",
		"max":[0.6056322455406189,
		0.20301303267478944,
		0.004999999888241291],
		"componentType":5126,
		"byteOffset":0,
		"min":[-0.0023334831930696966,
		-0.0023334831930696966,
		0.0]
	},
	{
		"count":1680,
		"bufferView":15,
		"type":"VEC3",
		"max":[0.9998690485954285,
		1.0,
		1.0],
		"componentType":5126,
		"byteOffset":12,
		"min":[-0.9998690485954285,
		-1.0,
		-1.0]
	},
	{
		"count":1680,
		"bufferView":15,
		"type":"VEC2",
		"max":[1.0,
		1.0],
		"componentType":5126,
		"byteOffset":24,
		"min":[0.0,
		0.0]
	}],
	"bufferViews":[{
		"buffer":0,
		"byteOffset":0,
		"byteLength":1656,
		"target":34963
	},
	{
		"buffer":0,
		"byteOffset":1656,
		"byteLength":26496,
		"target":34962,
		"byteStride":32
	},
	{
		"buffer":1,
		"byteOffset":0,
		"byteLength":1800,
		"target":34963
	},
	{
		"buffer":1,
		"byteOffset":1800,
		"byteLength":28800,
		"target":34962,
		"byteStride":32
	},
	{
		"buffer":2,
		"byteOffset":0,
		"byteLength":144,
		"target":34963
	},
	{
		"buffer":2,
		"byteOffset":144,
		"byteLength":2304,
		"target":34962,
		"byteStride":32
	},
	{
		"buffer":3,
		"byteOffset":0,
		"byteLength":5208,
		"target":34963
	},
	{
		"buffer":3,
		"byteOffset":5208,
		"byteLength":83328,
		"target":34962,
		"byteStride":32
	},
	{
		"buffer":4,
		"byteOffset":0,
		"byteLength":3456,
		"target":34963
	},
	{
		"buffer":4,
		"byteOffset":3456,
		"byteLength":55296,
		"target":34962,
		"byteStride":32
	},
	{
		"buffer":5,
		"byteOffset":0,
		"byteLength":3360,
		"target":34963
	},
	{
		"buffer":5,
		"byteOffset":3360,
		"byteLength":53760,
		"target":34962,
		"byteStride":32
	},
	{
		"buffer":6,
		"byteOffset":0,
		"byteLength":1656,
		"target":34963
	},
	{
		"buffer":6,
		"byteOffset":1656,
		"byteLength":26496,
		"target":34962,
		"byteStride":32
	},
	{
		"buffer":7,
		"byteOffset":0,
		"byteLength":3360,
		"target":34963
	},
	{
		"buffer":7,
		"byteOffset":3360,
		"byteLength":53760,
		"target":34962,
		"byteStride":32
	}],
	"buffers":[{
		"uri":"data:application/octet-stream;base64,",
		"byteLength":28152
	},
	{
		"uri":"data:application/octet-stream;base64,",
		"byteLength":30600
	},
	{
		"uri":"data:application/octet-stream;base64,",
		"byteLength":2448
	},
	{
		"uri":"data:application/octet-stream;base64,",
		"byteLength":88536
	},
	{
		"uri":"data:application/octet-stream;base64,",
		"byteLength":58752
	},
	{
		"uri":"data:application/octet-stream;base64,",
		"byteLength":57120
	},
	{
		"uri":"data:application/octet-stream;base64,",
		"byteLength":28152
	},
	{
		"uri":"data:application/octet-stream;base64,",
		"byteLength":57120
	}],
	"materials":[{
		"pbrMetallicRoughness":{
			"baseColorFactor":[0.1333333333333333,
			0.10980392156862744,
			0.3137254901960785,
			1.0],
			"metallicFactor":0.0,
			"roughnessFactor":0.30000001192092898
		},
		"emissiveFactor":[0.0,
		0.0,
		0.0],
		"alphaMode":"OPAQUE",
		"doubleSided":false,
		"name":"RS OpenPBR.1"
	},
	{
		"pbrMetallicRoughness":{
			"baseColorFactor":[1.0,
			1.0,
			1.0,
			1.0],
			"metallicFactor":0.0,
			"roughnessFactor":0.30000001192092898
		},
		"emissiveFactor":[0.0,
		0.0,
		0.0],
		"alphaMode":"OPAQUE",
		"doubleSided":false,
		"name":"RS OpenPBR.2"
	},
	{
		"pbrMetallicRoughness":{
			"baseColorFactor":[0.17647058823529414,
			0.16470588235294118,
			0.3450980392156862,
			1.0],
			"metallicFactor":0.0,
			"roughnessFactor":0.30000001192092898
		},
		"emissiveFactor":[0.0,
		0.0,
		0.0],
		"alphaMode":"OPAQUE",
		"doubleSided":false,
		"name":"RS OpenPBR"
	}]
}