{
	"asset":{
		"version":"2.0",
		"generator":"Maxon Cinema 4D TRIAL 2026.0.0 (#200000219)"
	},
	"nodes":[{
		"name":"Extrude",
		"children":[15]
	},
	{
		"translation":[0.0,
		-0.014996367506682873,
		0.0],
		"name":"Extrude.1",
		"rotation":[0.0,
		0.0,
		0.0,
		-1.0],
		"scale":[1.0,
		1.0,
		1.0],
		"children":[16]
	},
	{
		"translation":[0.0,
		-0.014996367506682873,
		0.0],
		"name":"Extrude.2",
		"rotation":[0.0,
		0.0,
		0.0,
		-1.0],
		"scale":[1.0,
		1.0,
		1.0],
		"children":[17]
	},
	{
		"translation":[0.0,
		-0.014996367506682873,
		0.0],
		"name":"Extrude.3",
		"rotation":[0.0,
		0.0,
		0.0,
		-1.0],
		"scale":[1.0,
		1.0,
		1.0],
		"children":[18]
	},
	{
		"translation":[0.0,
		-0.014996367506682873,
		0.0],
		"name":"Extrude.4",
		"rotation":[0.0,
		0.0,
		0.0,
		-1.0],
		"scale":[1.0,
		1.0,
		1.0],
		"children":[19]
	},
	{
		"translation":[0.0,
		-0.014996367506682873,
		0.0],
		"name":"Extrude.5",
		"rotation":[0.0,
		0.0,
		0.0,
		-1.0],
		"scale":[1.0,
		1.0,
		1.0],
		"children":[20]
	},
	{
		"translation":[0.0,
		-0.014996367506682873,
		0.0],
		"name":"Extrude.6",
		"rotation":[0.0,
		0.0,
		0.0,
		-1.0],
		"scale":[1.0,
		1.0,
		1.0],
		"children":[21]
	},
	{
		"translation":[0.0,
		-0.014996367506682873,
		0.0],
		"name":"Extrude.7",
		"rotation":[0.0,
		0.0,
		0.0,
		-1.0],
		"scale":[1.0,
		1.0,
		1.0],
		"children":[22]
	},
	{
		"translation":[0.0,
		-0.014996367506682873,
		0.0],
		"name":"Extrude.8",
		"rotation":[0.0,
		0.0,
		0.0,
		-1.0],
		"scale":[1.0,
		1.0,
		1.0],
		"children":[23]
	},
	{
		"translation":[0.0,
		-0.014996367506682873,
		0.004896354861557484],
		"name":"Extrude.9",
		"rotation":[0.0,
		0.0,
		0.0,
		-1.0],
		"scale":[1.0,
		1.0,
		1.0],
		"children":[24]
	},
	{
		"translation":[0.0,
		-0.014996367506682873,
		0.0],
		"name":"Extrude.10",
		"rotation":[0.0,
		0.0,
		0.0,
		-1.0],
		"scale":[1.0,
		1.0,
		1.0],
		"children":[25]
	},
	{
		"name":"Extrude.11",
		"children":[26]
	},
	{
		"name":"Extrude.13",
		"children":[27]
	},
	{
		"translation":[0.0,
		0.0,
		0.0005889548338018358],
		"name":"Extrude.14",
		"rotation":[0.0,
		0.0,
		0.0,
		-1.0],
		"scale":[1.0,
		1.0,
		1.0],
		"children":[28]
	},
	{
		"translation":[0.0,
		0.0,
		-0.06364154070615769],
		"name":"Extrude.12",
		"rotation":[0.0,
		0.0,
		0.0,
		-1.0],
		"scale":[1.0,
		1.0,
		1.0],
		"children":[29]
	},
	{
		"name":"Extrude",
		"mesh":0
	},
	{
		"name":"Extrude.1",
		"mesh":1
	},
	{
		"name":"Extrude.2",
		"mesh":2
	},
	{
		"name":"Extrude.3",
		"mesh":3
	},
	{
		"name":"Extrude.4",
		"mesh":4
	},
	{
		"name":"Extrude.5",
		"mesh":5
	},
	{
		"name":"Extrude.6",
		"mesh":6
	},
	{
		"name":"Extrude.7",
		"mesh":7
	},
	{
		"name":"Extrude.8",
		"mesh":8
	},
	{
		"name":"Extrude.9",
		"mesh":9
	},
	{
		"name":"Extrude.10",
		"mesh":10
	},
	{
		"name":"Extrude.11",
		"mesh":11
	},
	{
		"name":"Extrude.13",
		"mesh":12
	},
	{
		"name":"Extrude.14",
		"mesh":13
	},
	{
		"name":"Extrude.12",
		"mesh":14
	}],
	"scenes":[{
		"nodes":[0,
		1,
		2,
		3,
		4,
		5,
		6,
		7,
		8,
		9,
		10,
		11,
		12,
		13,
		14]
	}],
	"meshes":[{
		"name":"Extrude",
		"primitives":[{
			"attributes":{
				"POSITION":1,
				"NORMAL":2,
				"TEXCOORD_0":3
			},
			"indices":0,
			"material":0
		}]
	},
	{
		"name":"Extrude.1",
		"primitives":[{
			"attributes":{
				"POSITION":5,
				"NORMAL":6,
				"TEXCOORD_0":7
			},
			"indices":4,
			"material":1
		}]
	},
	{
		"name":"Extrude.2",
		"primitives":[{
			"attributes":{
				"POSITION":9,
				"NORMAL":10,
				"TEXCOORD_0":11
			},
			"indices":8,
			"material":1
		}]
	},
	{
		"name":"Extrude.3",
		"primitives":[{
			"attributes":{
				"POSITION":13,
				"NORMAL":14,
				"TEXCOORD_0":15
			},
			"indices":12,
			"material":1
		}]
	},
	{
		"name":"Extrude.4",
		"primitives":[{
			"attributes":{
				"POSITION":17,
				"NORMAL":18,
				"TEXCOORD_0":19
			},
			"indices":16,
			"material":1
		}]
	},
	{
		"name":"Extrude.5",
		"primitives":[{
			"attributes":{
				"POSITION":21,
				"NORMAL":22,
				"TEXCOORD_0":23
			},
			"indices":20,
			"material":1
		}]
	},
	{
		"name":"Extrude.6",
		"primitives":[{
			"attributes":{
				"POSITION":25,
				"NORMAL":26,
				"TEXCOORD_0":27
			},
			"indices":24,
			"material":1
		}]
	},
	{
		"name":"Extrude.7",
		"primitives":[{
			"attributes":{
				"POSITION":29,
				"NORMAL":30,
				"TEXCOORD_0":31
			},
			"indices":28,
			"material":1
		}]
	},
	{
		"name":"Extrude.8",
		"primitives":[{
			"attributes":{
				"POSITION":33,
				"NORMAL":34,
				"TEXCOORD_0":35
			},
			"indices":32,
			"material":1
		}]
	},
	{
		"name":"Extrude.9",
		"primitives":[{
			"attributes":{
				"POSITION":37,
				"NORMAL":38,
				"TEXCOORD_0":39
			},
			"indices":36,
			"material":1
		}]
	},
	{
		"name":"Extrude.10",
		"primitives":[{
			"attributes":{
				"POSITION":41,
				"NORMAL":42,
				"TEXCOORD_0":43
			},
			"indices":40,
			"material":1
		}]
	},
	{
		"name":"Extrude.11",
		"primitives":[{
			"attributes":{
				"POSITION":45,
				"NORMAL":46,
				"TEXCOORD_0":47
			},
			"indices":44,
			"material":0
		}]
	},
	{
		"name":"Extrude.13",
		"primitives":[{
			"attributes":{
				"POSITION":49,
				"NORMAL":50,
				"TEXCOORD_0":51
			},
			"indices":48,
			"material":0
		}]
	},
	{
		"name":"Extrude.14",
		"primitives":[{
			"attributes":{
				"POSITION":53,
				"NORMAL":54,
				"TEXCOORD_0":55
			},
			"indices":52,
			"material":2
		}]
	},
	{
		"name":"Extrude.12",
		"primitives":[{
			"attributes":{
				"POSITION":57,
				"NORMAL":58,
				"TEXCOORD_0":59
			},
			"indices":56,
			"material":0
		}]
	}],
	"accessors":[{
		"count":828,
		"bufferView":0,
		"type":"SCALAR",
		"max":[827],
		"componentType":5123,
		"byteOffset":0,
		"min":[0]
	},
	{
		"count":828,
		"bufferView":1,
		"type":"VEC3",
		"max":[0.8888019919395447,
		0.17477752268314362,
		0.004999999888241291],
		"componentType":5126,
		"byteOffset":0,
		"min":[0.6650867462158203,
		0.02563403733074665,
		0.0]
	},
	{
		"count":828,
		"bufferView":1,
		"type":"VEC3",
		"max":[0.9998700022697449,
		1.0,
		1.0],
		"componentType":5126,
		"byteOffset":12,
		"min":[-0.9998700022697449,
		-1.0,
		-1.0]
	},
	{
		"count":828,
		"bufferView":1,
		"type":"VEC2",
		"max":[1.0,
		1.0],
		"componentType":5126,
		"byteOffset":24,
		"min":[0.0,
		0.0]
	},
	{
		"count":636,
		"bufferView":2,
		"type":"SCALAR",
		"max":[635],
		"componentType":5123,
		"byteOffset":0,
		"min":[0]
	},
	{
		"count":636,
		"bufferView":3,
		"type":"VEC3",
		"max":[0.5010755062103272,
		0.15030866861343385,
		0.004999999888241291],
		"componentType":5126,
		"byteOffset":0,
		"min":[0.47628042101860049,
		0.0998329222202301,
		0.0]
	},
	{
		"count":636,
		"bufferView":3,
		"type":"VEC3",
		"max":[1.0,
		1.0,
		1.0],
		"componentType":5126,
		"byteOffset":12,
		"min":[-1.0,
		-1.0,
		-1.0]
	},
	{
		"count":636,
		"bufferView":3,
		"type":"VEC2",
		"max":[1.0,
		1.0],
		"componentType":5126,
		"byteOffset":24,
		"min":[0.0,
		0.0]
	},
	{
		"count":1824,
		"bufferView":4,
		"type":"SCALAR",
		"max":[1823],
		"componentType":5123,
		"byteOffset":0,
		"min":[0]
	},
	{
		"count":1824,
		"bufferView":5,
		"type":"VEC3",
		"max":[0.47292467951774599,
		0.13982202112674714,
		0.004999999888241291],
		"componentType":5126,
		"byteOffset":0,
		"min":[0.43312200903892519,
		0.09927363693714142,
		0.0]
	},
	{
		"count":1824,
		"bufferView":5,
		"type":"VEC3",
		"max":[0.9999960660934448,
		0.9999920129776001,
		1.0],
		"componentType":5126,
		"byteOffset":12,
		"min":[-0.999984622001648,
		-0.9999385476112366,
		-1.0]
	},
	{
		"count":1824,
		"bufferView":5,
		"type":"VEC2",
		"max":[1.0,
		1.0],
		"componentType":5126,
		"byteOffset":24,
		"min":[0.0,
		0.0]
	},
	{
		"count":1824,
		"bufferView":6,
		"type":"SCALAR",
		"max":[1823],
		"componentType":5123,
		"byteOffset":0,
		"min":[0]
	},
	{
		"count":1824,
		"bufferView":7,
		"type":"VEC3",
		"max":[0.42738932371139529,
		0.13982202112674714,
		0.004999999888241291],
		"componentType":5126,
		"byteOffset":0,
		"min":[0.38758665323257449,
		0.09927363693714142,
		0.0]
	},
	{
		"count":1824,
		"bufferView":7,
		"type":"VEC3",
		"max":[0.9999960660934448,
		0.9999920129776001,
		1.0],
		"componentType":5126,
		"byteOffset":12,
		"min":[-0.999984622001648,
		-0.9999385476112366,
		-1.0]
	},
	{
		"count":1824,
		"bufferView":7,
		"type":"VEC2",
		"max":[1.0,
		1.0],
		"componentType":5126,
		"byteOffset":24,
		"min":[0.0,
		0.0]
	},
	{
		"count":564,
		"bufferView":8,
		"type":"SCALAR",
		"max":[563],
		"componentType":5123,
		"byteOffset":0,
		"min":[0]
	},
	{
		"count":564,
		"bufferView":9,
		"type":"VEC3",
		"max":[0.38586217164993288,
		0.13977541029453278,
		0.004999999888241291],
		"componentType":5126,
		"byteOffset":0,
		"min":[0.36102044582366946,
		0.1001591756939888,
		0.0]
	},
	{
		"count":564,
		"bufferView":9,
		"type":"VEC3",
		"max":[1.0,
		1.0,
		1.0],
		"componentType":5126,
		"byteOffset":12,
		"min":[-1.0,
		-1.0,
		-1.0]
	},
	{
		"count":564,
		"bufferView":9,
		"type":"VEC2",
		"max":[1.0,
		1.0],
		"componentType":5126,
		"byteOffset":24,
		"min":[0.0,
		0.0]
	},
	{
		"count":1704,
		"bufferView":10,
		"type":"SCALAR",
		"max":[1703],
		"componentType":5123,
		"byteOffset":0,
		"min":[0]
	},
	{
		"count":1704,
		"bufferView":11,
		"type":"VEC3",
		"max":[0.3340964615345001,
		0.13977541029453278,
		0.004999999888241291],
		"componentType":5126,
		"byteOffset":0,
		"min":[0.2956303656101227,
		0.0991804227232933,
		0.0]
	},
	{
		"count":1704,
		"bufferView":11,
		"type":"VEC3",
		"max":[0.9999493956565857,
		1.0,
		1.0],
		"componentType":5126,
		"byteOffset":12,
		"min":[-0.9999207854270935,
		-1.0,
		-1.0]
	},
	{
		"count":1704,
		"bufferView":11,
		"type":"VEC2",
		"max":[1.0,
		1.0],
		"componentType":5126,
		"byteOffset":24,
		"min":[0.0,
		0.0]
	},
	{
		"count":564,
		"bufferView":12,
		"type":"SCALAR",
		"max":[563],
		"componentType":5123,
		"byteOffset":0,
		"min":[0]
	},
	{
		"count":564,
		"bufferView":13,
		"type":"VEC3",
		"max":[0.294651597738266,
		0.13977541029453278,
		0.004999999888241291],
		"componentType":5126,
		"byteOffset":0,
		"min":[0.26980990171432497,
		0.1001591756939888,
		0.0]
	},
	{
		"count":564,
		"bufferView":13,
		"type":"VEC3",
		"max":[1.0,
		1.0,
		1.0],
		"componentType":5126,
		"byteOffset":12,
		"min":[-1.0,
		-1.0,
		-1.0]
	},
	{
		"count":564,
		"bufferView":13,
		"type":"VEC2",
		"max":[1.0,
		1.0],
		"componentType":5126,
		"byteOffset":24,
		"min":[0.0,
		0.0]
	},
	{
		"count":2592,
		"bufferView":14,
		"type":"SCALAR",
		"max":[2591],
		"componentType":5123,
		"byteOffset":0,
		"min":[0]
	},
	{
		"count":2592,
		"bufferView":15,
		"type":"VEC3",
		"max":[0.2629586160182953,
		0.1398686319589615,
		0.004999999888241291],
		"componentType":5126,
		"byteOffset":0,
		"min":[0.22539310157299043,
		0.09936685115098953,
		0.0]
	},
	{
		"count":2592,
		"bufferView":15,
		"type":"VEC3",
		"max":[1.0,
		0.9999783039093018,
		1.0],
		"componentType":5126,
		"byteOffset":12,
		"min":[-1.0,
		-1.0,
		-1.0]
	},
	{
		"count":2592,
		"bufferView":15,
		"type":"VEC2",
		"max":[1.0,
		1.0],
		"componentType":5126,
		"byteOffset":24,
		"min":[0.0,
		0.0]
	},
	{
		"count":900,
		"bufferView":16,
		"type":"SCALAR",
		"max":[899],
		"componentType":5123,
		"byteOffset":0,
		"min":[0]
	},
	{
		"count":900,
		"bufferView":17,
		"type":"VEC3",
		"max":[0.21896128356456757,
		0.13879665732383729,
		0.004999999888241291],
		"componentType":5126,
		"byteOffset":0,
		"min":[0.182793989777565,
		0.09922702610492706,
		0.0]
	},
	{
		"count":900,
		"bufferView":17,
		"type":"VEC3",
		"max":[1.0,
		1.0,
		1.0],
		"componentType":5126,
		"byteOffset":12,
		"min":[-1.0,
		-1.0,
		-1.0]
	},
	{
		"count":900,
		"bufferView":17,
		"type":"VEC2",
		"max":[1.0,
		1.0],
		"componentType":5126,
		"byteOffset":24,
		"min":[0.0,
		0.0]
	},
	{
		"count":1812,
		"bufferView":18,
		"type":"SCALAR",
		"max":[1811],
		"componentType":5123,
		"byteOffset":0,
		"min":[0]
	},
	{
		"count":1812,
		"bufferView":19,
		"type":"VEC3",
		"max":[0.17482413351535798,
		0.13982202112674714,
		0.0],
		"componentType":5126,
		"byteOffset":0,
		"min":[0.1356273591518402,
		0.08668965101242066,
		-0.004999999888241291]
	},
	{
		"count":1812,
		"bufferView":19,
		"type":"VEC3",
		"max":[1.0,
		1.0,
		1.0],
		"componentType":5126,
		"byteOffset":12,
		"min":[-1.0,
		-1.0,
		-1.0]
	},
	{
		"count":1812,
		"bufferView":19,
		"type":"VEC2",
		"max":[1.0,
		1.0],
		"componentType":5126,
		"byteOffset":24,
		"min":[0.0,
		0.0]
	},
	{
		"count":2604,
		"bufferView":20,
		"type":"SCALAR",
		"max":[2603],
		"componentType":5123,
		"byteOffset":0,
		"min":[0]
	},
	{
		"count":2604,
		"bufferView":21,
		"type":"VEC3",
		"max":[0.13082680106163026,
		0.13982202112674714,
		0.004999999888241291],
		"componentType":5126,
		"byteOffset":0,
		"min":[0.0950789749622345,
		0.09922702610492706,
		0.0]
	},
	{
		"count":2604,
		"bufferView":21,
		"type":"VEC3",
		"max":[0.9999755620956421,
		1.0,
		1.0],
		"componentType":5126,
		"byteOffset":12,
		"min":[-0.9999750852584839,
		-1.0,
		-1.0]
	},
	{
		"count":2604,
		"bufferView":21,
		"type":"VEC2",
		"max":[1.0,
		1.0],
		"componentType":5126,
		"byteOffset":24,
		"min":[0.0,
		0.0]
	},
	{
		"count":1728,
		"bufferView":22,
		"type":"SCALAR",
		"max":[1727],
		"componentType":5123,
		"byteOffset":0,
		"min":[0]
	},
	{
		"count":1728,
		"bufferView":23,
		"type":"VEC3",
		"max":[0.6301312446594238,
		0.1840989887714386,
		0.004999999888241291],
		"componentType":5126,
		"byteOffset":0,
		"min":[0.05359844118356705,
		0.01631256937980652,
		0.0]
	},
	{
		"count":1728,
		"bufferView":23,
		"type":"VEC3",
		"max":[1.0,
		1.0,
		1.0],
		"componentType":5126,
		"byteOffset":12,
		"min":[-1.0,
		-1.0,
		-1.0]
	},
	{
		"count":1728,
		"bufferView":23,
		"type":"VEC2",
		"max":[1.0,
		1.0],
		"componentType":5126,
		"byteOffset":24,
		"min":[0.0,
		0.0]
	},
	{
		"count":1680,
		"bufferView":24,
		"type":"SCALAR",
		"max":[1679],
		"componentType":5123,
		"byteOffset":0,
		"min":[0]
	},
	{
		"count":1680,
		"bufferView":25,
		"type":"VEC3",
		"max":[0.9097753167152405,
		0.20274193584918977,
		0.004999999888241291],
		"componentType":5126,
		"byteOffset":0,
		"min":[-0.002330366987735033,
		-0.002330366987735033,
		0.0]
	},
	{
		"count":1680,
		"bufferView":25,
		"type":"VEC3",
		"max":[0.9998690485954285,
		1.0,
		1.0],
		"componentType":5126,
		"byteOffset":12,
		"min":[-0.9998690485954285,
		-1.0,
		-1.0]
	},
	{
		"count":1680,
		"bufferView":25,
		"type":"VEC2",
		"max":[1.0,
		1.0],
		"componentType":5126,
		"byteOffset":24,
		"min":[0.0,
		0.0]
	},
	{
		"count":828,
		"bufferView":26,
		"type":"SCALAR",
		"max":[827],
		"componentType":5123,
		"byteOffset":0,
		"min":[0]
	},
	{
		"count":828,
		"bufferView":27,
		"type":"VEC3",
		"max":[0.9074448943138123,
		0.20041155815124513,
		0.0],
		"componentType":5126,
		"byteOffset":0,
		"min":[0.0,
		0.0,
		-0.05999999865889549]
	},
	{
		"count":828,
		"bufferView":27,
		"type":"VEC3",
		"max":[0.9998700022697449,
		1.0,
		1.0],
		"componentType":5126,
		"byteOffset":12,
		"min":[-0.9998695254325867,
		-1.0,
		-1.0]
	},
	{
		"count":828,
		"bufferView":27,
		"type":"VEC2",
		"max":[1.0,
		1.0],
		"componentType":5126,
		"byteOffset":24,
		"min":[0.0,
		0.0]
	},
	{
		"count":1680,
		"bufferView":28,
		"type":"SCALAR",
		"max":[1679],
		"componentType":5123,
		"byteOffset":0,
		"min":[0]
	},
	{
		"count":1680,
		"bufferView":29,
		"type":"VEC3",
		"max":[0.9097753167152405,
		0.20274193584918977,
		0.004999999888241291],
		"componentType":5126,
		"byteOffset":0,
		"min":[-0.002330366987735033,
		-0.002330366987735033,
		0.0]
	},
	{
		"count":1680,
		"bufferView":29,
		"type":"VEC3",
		"max":[0.9998690485954285,
		1.0,
		1.0],
		"componentType":5126,
		"byteOffset":12,
		"min":[-0.9998690485954285,
		-1.0,
		-1.0]
	},
	{
		"count":1680,
		"bufferView":29,
		"type":"VEC2",
		"max":[1.0,
		1.0],
		"componentType":5126,
		"byteOffset":24,
		"min":[0.0,
		0.0]
	}],
	"bufferViews":[{
		"buffer":0,
		"byteOffset":0,
		"byteLength":1656,
		"target":34963
	},
	{
		"buffer":0,
		"byteOffset":1656,
		"byteLength":26496,
		"target":34962,
		"byteStride":32
	},
	{
		"buffer":1,
		"byteOffset":0,
		"byteLength":1272,
		"target":34963
	},
	{
		"buffer":1,
		"byteOffset":1272,
		"byteLength":20352,
		"target":34962,
		"byteStride":32
	},
	{
		"buffer":2,
		"byteOffset":0,
		"byteLength":3648,
		"target":34963
	},
	{
		"buffer":2,
		"byteOffset":3648,
		"byteLength":58368,
		"target":34962,
		"byteStride":32
	},
	{
		"buffer":3,
		"byteOffset":0,
		"byteLength":3648,
		"target":34963
	},
	{
		"buffer":3,
		"byteOffset":3648,
		"byteLength":58368,
		"target":34962,
		"byteStride":32
	},
	{
		"buffer":4,
		"byteOffset":0,
		"byteLength":1128,
		"target":34963
	},
	{
		"buffer":4,
		"byteOffset":1128,
		"byteLength":18048,
		"target":34962,
		"byteStride":32
	},
	{
		"buffer":5,
		"byteOffset":0,
		"byteLength":3408,
		"target":34963
	},
	{
		"buffer":5,
		"byteOffset":3408,
		"byteLength":54528,
		"target":34962,
		"byteStride":32
	},
	{
		"buffer":6,
		"byteOffset":0,
		"byteLength":1128,
		"target":34963
	},
	{
		"buffer":6,
		"byteOffset":1128,
		"byteLength":18048,
		"target":34962,
		"byteStride":32
	},
	{
		"buffer":7,
		"byteOffset":0,
		"byteLength":5184,
		"target":34963
	},
	{
		"buffer":7,
		"byteOffset":5184,
		"byteLength":82944,
		"target":34962,
		"byteStride":32
	},
	{
		"buffer":8,
		"byteOffset":0,
		"byteLength":1800,
		"target":34963
	},
	{
		"buffer":8,
		"byteOffset":1800,
		"byteLength":28800,
		"target":34962,
		"byteStride":32
	},
	{
		"buffer":9,
		"byteOffset":0,
		"byteLength":3624,
		"target":34963
	},
	{
		"buffer":9,
		"byteOffset":3624,
		"byteLength":57984,
		"target":34962,
		"byteStride":32
	},
	{
		"buffer":10,
		"byteOffset":0,
		"byteLength":5208,
		"target":34963
	},
	{
		"buffer":10,
		"byteOffset":5208,
		"byteLength":83328,
		"target":34962,
		"byteStride":32
	},
	{
		"buffer":11,
		"byteOffset":0,
		"byteLength":3456,
		"target":34963
	},
	{
		"buffer":11,
		"byteOffset":3456,
		"byteLength":55296,
		"target":34962,
		"byteStride":32
	},
	{
		"buffer":12,
		"byteOffset":0,
		"byteLength":3360,
		"target":34963
	},
	{
		"buffer":12,
		"byteOffset":3360,
		"byteLength":53760,
		"target":34962,
		"byteStride":32
	},
	{
		"buffer":13,
		"byteOffset":0,
		"byteLength":1656,
		"target":34963
	},
	{
		"buffer":13,
		"byteOffset":1656,
		"byteLength":26496,
		"target":34962,
		"byteStride":32
	},
	{
		"buffer":14,
		"byteOffset":0,
		"byteLength":3360,
		"target":34963
	},
	{
		"buffer":14,
		"byteOffset":3360,
		"byteLength":53760,
		"target":34962,
		"byteStride":32
	}],
	"buffers":[{
		"uri":"data:application/octet-stream;base64,",
		"byteLength":28152
	},
	{
		"uri":"data:application/octet-stream;base64,",
		"byteLength":21624
	},
	{
		"uri":"data:application/octet-stream;base64,",
		"byteLength":62016
	},
	{
		"uri":"data:application/octet-stream;base64,",
		"byteLength":62016
	},
	{
		"uri":"data:application/octet-stream;base64,",
		"byteLength":19176
	},
	{
		"uri":"data:application/octet-stream;base64,",
		"byteLength":57936
	},
	{
		"uri":"data:application/octet-stream;base64,",
		"byteLength":19176
	},
	{
		"uri":"data:application/octet-stream;base64,",
		"byteLength":88128
	},
	{
		"uri":"data:application/octet-stream;base64,",
		"byteLength":30600
	},
	{
		"uri":"data:application/octet-stream;base64,",
		"byteLength":61608
	},
	{
		"uri":"data:application/octet-stream;base64,",
		"byteLength":88536
	},
	{
		"uri":"data:application/octet-stream;base64,",
		"byteLength":58752
	},
	{
		"uri":"data:application/octet-stream;base64,",
		"byteLength":57120
	},
	{
		"uri":"data:application/octet-stream;base64,",
		"byteLength":28152
	},
	{
		"uri":"data:application/octet-stream;base64,",
		"byteLength":57120
	}],
	"materials":[{
		"pbrMetallicRoughness":{
			"baseColorFactor":[0.1333333333333333,
			0.10980392156862744,
			0.3137254901960785,
			1.0],
			"metallicFactor":0.0,
			"roughnessFactor":0.30000001192092898
		},
		"emissiveFactor":[0.0,
		0.0,
		0.0],
		"alphaMode":"OPAQUE",
		"doubleSided":false,
		"name":"RS OpenPBR.1"
	},
	{
		"pbrMetallicRoughness":{
			"baseColorFactor":[1.0,
			1.0,
			1.0,
			1.0],
			"metallicFactor":0.0,
			"roughnessFactor":0.30000001192092898
		},
		"emissiveFactor":[0.0,
		0.0,
		0.0],
		"alphaMode":"OPAQUE",
		"doubleSided":false,
		"name":"RS OpenPBR.2"
	},
	{
		"pbrMetallicRoughness":{
			"baseColorFactor":[0.17647058823529414,
			0.16470588235294118,
			0.3450980392156862,
			1.0],
			"metallicFactor":0.0,
			"roughnessFactor":0.30000001192092898
		},
		"emissiveFactor":[0.0,
		0.0,
		0.0],
		"alphaMode":"OPAQUE",
		"doubleSided":false,
		"name":"RS OpenPBR"
	}]
}