{
	"asset":{
		"version":"2.0",
		"generator":"Maxon Cinema 4D TRIAL 2026.0.0 (#200000219)"
	},
	"nodes":[{
		"name":"Extrude",
		"children":[6]
	},
	{
		"name":"Extrude.2",
		"children":[7]
	},
	{
		"translation":[0.0,
		0.0,
		0.0008174330578185618],
		"name":"Extrude.3",
		"rotation":[0.0,
		0.0,
		0.0,
		-1.0],
		"scale":[1.0,
		1.0,
		1.0],
		"children":[8]
	},
	{
		"translation":[0.0,
		0.0,
		-0.06814209371805191],
		"name":"Extrude.1",
		"rotation":[0.0,
		0.0,
		0.0,
		-1.0],
		"scale":[1.0,
		1.0,
		1.0],
		"children":[9]
	},
	{
		"translation":[0.0,
		0.0,
		0.0010138091165572405],
		"name":"Extrude.4",
		"rotation":[0.0,
		0.0,
		0.0,
		-1.0],
		"scale":[1.0,
		1.0,
		1.0],
		"children":[10]
	},
	{
		"translation":[0.0,
		0.0,
		-0.06433124840259552],
		"name":"Extrude.5",
		"rotation":[0.0,
		0.0,
		0.0,
		-1.0],
		"scale":[1.0,
		1.0,
		1.0],
		"children":[11]
	},
	{
		"name":"Extrude",
		"mesh":0
	},
	{
		"name":"Extrude.2",
		"mesh":1
	},
	{
		"name":"Extrude.3",
		"mesh":2
	},
	{
		"name":"Extrude.1",
		"mesh":3
	},
	{
		"name":"Polygon",
		"mesh":4
	},
	{
		"name":"Polygon",
		"mesh":5
	}],
	"scenes":[{
		"nodes":[0,
		1,
		2,
		3,
		4,
		5]
	}],
	"meshes":[{
		"name":"Extrude",
		"primitives":[{
			"attributes":{
				"POSITION":1,
				"NORMAL":2,
				"TEXCOORD_0":3
			},
			"indices":0,
			"material":0
		}]
	},
	{
		"name":"Extrude.2",
		"primitives":[{
			"attributes":{
				"POSITION":5,
				"NORMAL":6,
				"TEXCOORD_0":7
			},
			"indices":4,
			"material":0
		}]
	},
	{
		"name":"Extrude.3",
		"primitives":[{
			"attributes":{
				"POSITION":9,
				"NORMAL":10,
				"TEXCOORD_0":11
			},
			"indices":8,
			"material":1
		}]
	},
	{
		"name":"Extrude.1",
		"primitives":[{
			"attributes":{
				"POSITION":13,
				"NORMAL":14,
				"TEXCOORD_0":15
			},
			"indices":12,
			"material":0
		}]
	},
	{
		"name":"Polygon",
		"primitives":[{
			"attributes":{
				"POSITION":17,
				"NORMAL":18
			},
			"indices":16,
			"material":2
		}]
	},
	{
		"name":"Polygon",
		"primitives":[{
			"attributes":{
				"POSITION":20,
				"NORMAL":21
			},
			"indices":19,
			"material":2
		}]
	}],
	"accessors":[{
		"count":1908,
		"bufferView":0,
		"type":"SCALAR",
		"max":[1907],
		"componentType":5123,
		"byteOffset":0,
		"min":[0]
	},
	{
		"count":1908,
		"bufferView":1,
		"type":"VEC3",
		"max":[0.14037467539310456,
		0.15774579346179963,
		0.004999999888241291],
		"componentType":5126,
		"byteOffset":0,
		"min":[0.09905552119016648,
		0.0993567556142807,
		0.0]
	},
	{
		"count":1908,
		"bufferView":1,
		"type":"VEC3",
		"max":[0.9999964237213135,
		0.9999992847442627,
		1.0],
		"componentType":5126,
		"byteOffset":12,
		"min":[-0.9999959468841553,
		-1.0,
		-1.0]
	},
	{
		"count":1908,
		"bufferView":1,
		"type":"VEC2",
		"max":[1.0,
		1.0],
		"componentType":5126,
		"byteOffset":24,
		"min":[0.0,
		0.0]
	},
	{
		"count":1680,
		"bufferView":2,
		"type":"SCALAR",
		"max":[1679],
		"componentType":5123,
		"byteOffset":0,
		"min":[0]
	},
	{
		"count":1680,
		"bufferView":3,
		"type":"VEC3",
		"max":[0.2434968501329422,
		0.20333242416381837,
		0.004999999888241291],
		"componentType":5126,
		"byteOffset":0,
		"min":[-0.0025102768559008838,
		-0.0025102768559008838,
		0.0]
	},
	{
		"count":1680,
		"bufferView":3,
		"type":"VEC3",
		"max":[0.9998685717582703,
		1.0,
		1.0],
		"componentType":5126,
		"byteOffset":12,
		"min":[-0.9998685717582703,
		-1.0,
		-1.0]
	},
	{
		"count":1680,
		"bufferView":3,
		"type":"VEC2",
		"max":[1.0,
		1.0],
		"componentType":5126,
		"byteOffset":24,
		"min":[0.0,
		0.0]
	},
	{
		"count":828,
		"bufferView":4,
		"type":"SCALAR",
		"max":[827],
		"componentType":5123,
		"byteOffset":0,
		"min":[0]
	},
	{
		"count":828,
		"bufferView":5,
		"type":"VEC3",
		"max":[0.24098658561706544,
		0.2008221447467804,
		0.0],
		"componentType":5126,
		"byteOffset":0,
		"min":[0.0,
		0.0,
		-0.06499999761581421]
	},
	{
		"count":828,
		"bufferView":5,
		"type":"VEC3",
		"max":[0.9998700022697449,
		1.0,
		1.0],
		"componentType":5126,
		"byteOffset":12,
		"min":[-0.9998700022697449,
		-1.0,
		-1.0]
	},
	{
		"count":828,
		"bufferView":5,
		"type":"VEC2",
		"max":[1.0,
		1.0],
		"componentType":5126,
		"byteOffset":24,
		"min":[0.0,
		0.0]
	},
	{
		"count":1680,
		"bufferView":6,
		"type":"SCALAR",
		"max":[1679],
		"componentType":5123,
		"byteOffset":0,
		"min":[0]
	},
	{
		"count":1680,
		"bufferView":7,
		"type":"VEC3",
		"max":[0.2434968501329422,
		0.20333242416381837,
		0.004999999888241291],
		"componentType":5126,
		"byteOffset":0,
		"min":[-0.0025102768559008838,
		-0.0025102768559008838,
		0.0]
	},
	{
		"count":1680,
		"bufferView":7,
		"type":"VEC3",
		"max":[0.9998685717582703,
		1.0,
		1.0],
		"componentType":5126,
		"byteOffset":12,
		"min":[-0.9998685717582703,
		-1.0,
		-1.0]
	},
	{
		"count":1680,
		"bufferView":7,
		"type":"VEC2",
		"max":[1.0,
		1.0],
		"componentType":5126,
		"byteOffset":24,
		"min":[0.0,
		0.0]
	},
	{
		"count":102,
		"bufferView":8,
		"type":"SCALAR",
		"max":[101],
		"componentType":5123,
		"byteOffset":0,
		"min":[0]
	},
	{
		"count":102,
		"bufferView":9,
		"type":"VEC3",
		"max":[0.241146057844162,
		0.20119693875312806,
		0.0],
		"componentType":5126,
		"byteOffset":0,
		"min":[0.0002476840454619378,
		-0.0009526715148240328,
		0.0]
	},
	{
		"count":102,
		"bufferView":9,
		"type":"VEC3",
		"max":[0.0,
		0.0,
		1.0],
		"componentType":5126,
		"byteOffset":12,
		"min":[0.0,
		0.0,
		1.0]
	},
	{
		"count":102,
		"bufferView":10,
		"type":"SCALAR",
		"max":[101],
		"componentType":5123,
		"byteOffset":0,
		"min":[0]
	},
	{
		"count":102,
		"bufferView":11,
		"type":"VEC3",
		"max":[0.241146057844162,
		0.20119693875312806,
		0.0],
		"componentType":5126,
		"byteOffset":0,
		"min":[0.0002476840454619378,
		-0.0009526715148240328,
		0.0]
	},
	{
		"count":102,
		"bufferView":11,
		"type":"VEC3",
		"max":[0.0,
		0.0,
		1.0],
		"componentType":5126,
		"byteOffset":12,
		"min":[0.0,
		0.0,
		1.0]
	}],
	"bufferViews":[{
		"buffer":0,
		"byteOffset":0,
		"byteLength":3816,
		"target":34963
	},
	{
		"buffer":0,
		"byteOffset":3816,
		"byteLength":61056,
		"target":34962,
		"byteStride":32
	},
	{
		"buffer":1,
		"byteOffset":0,
		"byteLength":3360,
		"target":34963
	},
	{
		"buffer":1,
		"byteOffset":3360,
		"byteLength":53760,
		"target":34962,
		"byteStride":32
	},
	{
		"buffer":2,
		"byteOffset":0,
		"byteLength":1656,
		"target":34963
	},
	{
		"buffer":2,
		"byteOffset":1656,
		"byteLength":26496,
		"target":34962,
		"byteStride":32
	},
	{
		"buffer":3,
		"byteOffset":0,
		"byteLength":3360,
		"target":34963
	},
	{
		"buffer":3,
		"byteOffset":3360,
		"byteLength":53760,
		"target":34962,
		"byteStride":32
	},
	{
		"buffer":4,
		"byteOffset":0,
		"byteLength":204,
		"target":34963
	},
	{
		"buffer":4,
		"byteOffset":204,
		"byteLength":2448,
		"target":34962,
		"byteStride":24
	},
	{
		"buffer":5,
		"byteOffset":0,
		"byteLength":204,
		"target":34963
	},
	{
		"buffer":5,
		"byteOffset":204,
		"byteLength":2448,
		"target":34962,
		"byteStride":24
	}],
	"buffers":[{
		"uri":"data:application/octet-stream;base64,",
		"byteLength":64872
	},
	{
		"uri":"data:application/octet-stream;base64,",
		"byteLength":57120
	},
	{
		"uri":"data:application/octet-stream;base64,",
		"byteLength":28152
	},
	{
		"uri":"data:application/octet-stream;base64,",
		"byteLength":57120
	},
	{
		"uri":"data:application/octet-stream;base64,",
		"byteLength":2652
	},
	{
		"uri":"data:application/octet-stream;base64,",
		"byteLength":2652
	}],
	"materials":[{
		"pbrMetallicRoughness":{
			"baseColorFactor":[0.1333333333333333,
			0.10980392156862744,
			0.3137254901960785,
			1.0],
			"metallicFactor":0.0,
			"roughnessFactor":0.30000001192092898
		},
		"emissiveFactor":[0.0,
		0.0,
		0.0],
		"alphaMode":"OPAQUE",
		"doubleSided":false,
		"name":"RS OpenPBR"
	},
	{
		"pbrMetallicRoughness":{
			"baseColorFactor":[0.17647058823529414,
			0.16470588235294118,
			0.3450980392156862,
			1.0],
			"metallicFactor":0.0,
			"roughnessFactor":0.30000001192092898
		},
		"emissiveFactor":[0.0,
		0.0,
		0.0],
		"alphaMode":"OPAQUE",
		"doubleSided":false,
		"name":"RS OpenPBR.3"
	},
	{
		"pbrMetallicRoughness":{
			"baseColorFactor":[1.0,
			1.0,
			1.0,
			1.0],
			"metallicFactor":0.0,
			"roughnessFactor":0.30000001192092898
		},
		"emissiveFactor":[0.0,
		0.0,
		0.0],
		"alphaMode":"OPAQUE",
		"doubleSided":false,
		"name":"RS OpenPBR.2"
	}]
}