{
	"asset":{
		"version":"2.0",
		"generator":"Maxon Cinema 4D TRIAL 2026.0.0 (#200000219)"
	},
	"nodes":[{
		"translation":[0.0,
		0.0,
		-0.06487983465194702],
		"name":"Extrude",
		"rotation":[0.0,
		0.0,
		0.0,
		-1.0],
		"scale":[1.0,
		1.0,
		1.0],
		"children":[8]
	},
	{
		"name":"Extrude.1",
		"children":[9]
	},
	{
		"name":"Extrude.3",
		"children":[10]
	},
	{
		"name":"Extrude.4",
		"children":[11]
	},
	{
		"name":"Extrude.5",
		"children":[12]
	},
	{
		"translation":[0.0,
		0.0,
		-0.06939343363046646],
		"name":"Extrude.6",
		"rotation":[0.0,
		0.0,
		0.0,
		-1.0],
		"scale":[1.0,
		1.0,
		1.0],
		"children":[13]
	},
	{
		"translation":[0.0,
		0.0,
		0.004687655717134476],
		"name":"Extrude.7",
		"rotation":[0.0,
		0.0,
		0.0,
		-1.0],
		"scale":[1.0,
		1.0,
		1.0],
		"children":[14]
	},
	{
		"translation":[-0.0004409262037370354,
		0.00430704141035676,
		-0.07267193496227265],
		"name":"Extrude.8",
		"rotation":[0.0,
		0.0,
		0.0,
		-1.0],
		"scale":[1.0,
		1.0,
		1.0],
		"children":[15]
	},
	{
		"name":"Extrude",
		"mesh":0
	},
	{
		"name":"Extrude.1",
		"mesh":1
	},
	{
		"name":"Extrude.3",
		"mesh":2
	},
	{
		"name":"Extrude.4",
		"mesh":3
	},
	{
		"name":"Extrude.5",
		"mesh":4
	},
	{
		"name":"Extrude.6",
		"mesh":5
	},
	{
		"name":"Polygon",
		"mesh":6
	},
	{
		"name":"Extrude.8",
		"mesh":7
	}],
	"scenes":[{
		"nodes":[0,
		1,
		2,
		3,
		4,
		5,
		6,
		7]
	}],
	"meshes":[{
		"name":"Extrude",
		"primitives":[{
			"attributes":{
				"POSITION":1,
				"NORMAL":2,
				"TEXCOORD_0":3
			},
			"indices":0,
			"material":0
		}]
	},
	{
		"name":"Extrude.1",
		"primitives":[{
			"attributes":{
				"POSITION":5,
				"NORMAL":6,
				"TEXCOORD_0":7
			},
			"indices":4,
			"material":1
		}]
	},
	{
		"name":"Extrude.3",
		"primitives":[{
			"attributes":{
				"POSITION":9,
				"NORMAL":10,
				"TEXCOORD_0":11
			},
			"indices":8,
			"material":2
		}]
	},
	{
		"name":"Extrude.4",
		"primitives":[{
			"attributes":{
				"POSITION":13,
				"NORMAL":14,
				"TEXCOORD_0":15
			},
			"indices":12,
			"material":2
		}]
	},
	{
		"name":"Extrude.5",
		"primitives":[{
			"attributes":{
				"POSITION":17,
				"NORMAL":18,
				"TEXCOORD_0":19
			},
			"indices":16,
			"material":1
		}]
	},
	{
		"name":"Extrude.6",
		"primitives":[{
			"attributes":{
				"POSITION":21,
				"NORMAL":22,
				"TEXCOORD_0":23
			},
			"indices":20,
			"material":1
		}]
	},
	{
		"name":"Polygon",
		"primitives":[{
			"attributes":{
				"POSITION":25,
				"NORMAL":26
			},
			"indices":24,
			"material":2
		}]
	},
	{
		"name":"Extrude.8",
		"primitives":[{
			"attributes":{
				"POSITION":28,
				"NORMAL":29,
				"TEXCOORD_0":30
			},
			"indices":27,
			"material":1
		}]
	}],
	"accessors":[{
		"count":828,
		"bufferView":0,
		"type":"SCALAR",
		"max":[827],
		"componentType":5123,
		"byteOffset":0,
		"min":[0]
	},
	{
		"count":828,
		"bufferView":1,
		"type":"VEC3",
		"max":[0.37808892130851748,
		0.20322279632091523,
		0.06499999761581421],
		"componentType":5126,
		"byteOffset":0,
		"min":[0.0,
		0.0,
		0.0]
	},
	{
		"count":828,
		"bufferView":1,
		"type":"VEC3",
		"max":[0.9998695254325867,
		1.0,
		1.0],
		"componentType":5126,
		"byteOffset":12,
		"min":[-0.9998695254325867,
		-1.0,
		-1.0]
	},
	{
		"count":828,
		"bufferView":1,
		"type":"VEC2",
		"max":[1.0,
		1.0],
		"componentType":5126,
		"byteOffset":24,
		"min":[0.0,
		0.0]
	},
	{
		"count":1680,
		"bufferView":2,
		"type":"SCALAR",
		"max":[1679],
		"componentType":5123,
		"byteOffset":0,
		"min":[0]
	},
	{
		"count":1680,
		"bufferView":3,
		"type":"VEC3",
		"max":[0.3804519772529602,
		0.20558585226535798,
		0.004999999888241291],
		"componentType":5126,
		"byteOffset":0,
		"min":[-0.0023630557116121055,
		-0.0023630557116121055,
		0.0]
	},
	{
		"count":1680,
		"bufferView":3,
		"type":"VEC3",
		"max":[0.9998690485954285,
		1.0,
		1.0],
		"componentType":5126,
		"byteOffset":12,
		"min":[-0.9998690485954285,
		-1.0,
		-1.0]
	},
	{
		"count":1680,
		"bufferView":3,
		"type":"VEC2",
		"max":[1.0,
		1.0],
		"componentType":5126,
		"byteOffset":24,
		"min":[0.0,
		0.0]
	},
	{
		"count":1824,
		"bufferView":4,
		"type":"SCALAR",
		"max":[1823],
		"componentType":5123,
		"byteOffset":0,
		"min":[0]
	},
	{
		"count":1824,
		"bufferView":5,
		"type":"VEC3",
		"max":[0.31863445043563845,
		0.12396590411663056,
		0.004999999888241291],
		"componentType":5126,
		"byteOffset":0,
		"min":[0.264614999294281,
		0.083888478577137,
		0.0]
	},
	{
		"count":1824,
		"bufferView":5,
		"type":"VEC3",
		"max":[0.9999465346336365,
		0.9999983310699463,
		1.0],
		"componentType":5126,
		"byteOffset":12,
		"min":[-0.9999101758003235,
		-0.9885671138763428,
		-1.0]
	},
	{
		"count":1824,
		"bufferView":5,
		"type":"VEC2",
		"max":[1.0,
		1.0],
		"componentType":5126,
		"byteOffset":24,
		"min":[0.0,
		0.0]
	},
	{
		"count":1824,
		"bufferView":6,
		"type":"SCALAR",
		"max":[1823],
		"componentType":5123,
		"byteOffset":0,
		"min":[0]
	},
	{
		"count":1824,
		"bufferView":7,
		"type":"VEC3",
		"max":[0.11215062439441681,
		0.12406042963266373,
		0.004999999888241291],
		"componentType":5126,
		"byteOffset":0,
		"min":[0.05813117325305939,
		0.08398300409317017,
		0.0]
	},
	{
		"count":1824,
		"bufferView":7,
		"type":"VEC3",
		"max":[0.9999101758003235,
		0.9885671138763428,
		1.0],
		"componentType":5126,
		"byteOffset":12,
		"min":[-0.9999465346336365,
		-0.9999983310699463,
		-1.0]
	},
	{
		"count":1824,
		"bufferView":7,
		"type":"VEC2",
		"max":[1.0,
		1.0],
		"componentType":5126,
		"byteOffset":24,
		"min":[0.0,
		0.0]
	},
	{
		"count":1728,
		"bufferView":8,
		"type":"SCALAR",
		"max":[1727],
		"componentType":5123,
		"byteOffset":0,
		"min":[0]
	},
	{
		"count":1728,
		"bufferView":9,
		"type":"VEC3",
		"max":[0.22921641170978547,
		0.18668140470981599,
		0.004999999888241291],
		"componentType":5126,
		"byteOffset":0,
		"min":[0.148872509598732,
		0.016541389748454095,
		0.0]
	},
	{
		"count":1728,
		"bufferView":9,
		"type":"VEC3",
		"max":[1.0,
		1.0,
		1.0],
		"componentType":5126,
		"byteOffset":12,
		"min":[-1.0,
		-1.0,
		-1.0]
	},
	{
		"count":1728,
		"bufferView":9,
		"type":"VEC2",
		"max":[1.0,
		1.0],
		"componentType":5126,
		"byteOffset":24,
		"min":[0.0,
		0.0]
	},
	{
		"count":1680,
		"bufferView":10,
		"type":"SCALAR",
		"max":[1679],
		"componentType":5123,
		"byteOffset":0,
		"min":[0]
	},
	{
		"count":1680,
		"bufferView":11,
		"type":"VEC3",
		"max":[0.3804519772529602,
		0.20558585226535798,
		0.004999999888241291],
		"componentType":5126,
		"byteOffset":0,
		"min":[-0.0023630557116121055,
		-0.0023630557116121055,
		0.0]
	},
	{
		"count":1680,
		"bufferView":11,
		"type":"VEC3",
		"max":[0.9998690485954285,
		1.0,
		1.0],
		"componentType":5126,
		"byteOffset":12,
		"min":[-0.9998690485954285,
		-1.0,
		-1.0]
	},
	{
		"count":1680,
		"bufferView":11,
		"type":"VEC2",
		"max":[1.0,
		1.0],
		"componentType":5126,
		"byteOffset":24,
		"min":[0.0,
		0.0]
	},
	{
		"count":45,
		"bufferView":12,
		"type":"SCALAR",
		"max":[44],
		"componentType":5123,
		"byteOffset":0,
		"min":[0]
	},
	{
		"count":45,
		"bufferView":13,
		"type":"VEC3",
		"max":[0.22634942829608918,
		0.18443629145622254,
		0.0],
		"componentType":5126,
		"byteOffset":0,
		"min":[0.1508667767047882,
		0.01927930861711502,
		0.0]
	},
	{
		"count":45,
		"bufferView":13,
		"type":"VEC3",
		"max":[0.0,
		0.0,
		1.0],
		"componentType":5126,
		"byteOffset":12,
		"min":[0.0,
		0.0,
		1.0]
	},
	{
		"count":1680,
		"bufferView":14,
		"type":"SCALAR",
		"max":[1679],
		"componentType":5123,
		"byteOffset":0,
		"min":[0]
	},
	{
		"count":1680,
		"bufferView":15,
		"type":"VEC3",
		"max":[0.3804519772529602,
		0.20558585226535798,
		0.004999999888241291],
		"componentType":5126,
		"byteOffset":0,
		"min":[-0.0023630557116121055,
		-0.0023630557116121055,
		0.0]
	},
	{
		"count":1680,
		"bufferView":15,
		"type":"VEC3",
		"max":[0.9998690485954285,
		1.0,
		1.0],
		"componentType":5126,
		"byteOffset":12,
		"min":[-0.9998690485954285,
		-1.0,
		-1.0]
	},
	{
		"count":1680,
		"bufferView":15,
		"type":"VEC2",
		"max":[1.0,
		1.0],
		"componentType":5126,
		"byteOffset":24,
		"min":[0.0,
		0.0]
	}],
	"bufferViews":[{
		"buffer":0,
		"byteOffset":0,
		"byteLength":1656,
		"target":34963
	},
	{
		"buffer":0,
		"byteOffset":1656,
		"byteLength":26496,
		"target":34962,
		"byteStride":32
	},
	{
		"buffer":1,
		"byteOffset":0,
		"byteLength":3360,
		"target":34963
	},
	{
		"buffer":1,
		"byteOffset":3360,
		"byteLength":53760,
		"target":34962,
		"byteStride":32
	},
	{
		"buffer":2,
		"byteOffset":0,
		"byteLength":3648,
		"target":34963
	},
	{
		"buffer":2,
		"byteOffset":3648,
		"byteLength":58368,
		"target":34962,
		"byteStride":32
	},
	{
		"buffer":3,
		"byteOffset":0,
		"byteLength":3648,
		"target":34963
	},
	{
		"buffer":3,
		"byteOffset":3648,
		"byteLength":58368,
		"target":34962,
		"byteStride":32
	},
	{
		"buffer":4,
		"byteOffset":0,
		"byteLength":3456,
		"target":34963
	},
	{
		"buffer":4,
		"byteOffset":3456,
		"byteLength":55296,
		"target":34962,
		"byteStride":32
	},
	{
		"buffer":5,
		"byteOffset":0,
		"byteLength":3360,
		"target":34963
	},
	{
		"buffer":5,
		"byteOffset":3360,
		"byteLength":53760,
		"target":34962,
		"byteStride":32
	},
	{
		"buffer":6,
		"byteOffset":0,
		"byteLength":90,
		"target":34963
	},
	{
		"buffer":6,
		"byteOffset":92,
		"byteLength":1080,
		"target":34962,
		"byteStride":24
	},
	{
		"buffer":7,
		"byteOffset":0,
		"byteLength":3360,
		"target":34963
	},
	{
		"buffer":7,
		"byteOffset":3360,
		"byteLength":53760,
		"target":34962,
		"byteStride":32
	}],
	"buffers":[{
		"uri":"data:application/octet-stream;base64,",
		"byteLength":28152
	},
	{
		"uri":"data:application/octet-stream;base64,",
		"byteLength":57120
	},
	{
		"uri":"data:application/octet-stream;base64,",
		"byteLength":62016
	},
	{
		"uri":"data:application/octet-stream;base64,",
		"byteLength":62016
	},
	{
		"uri":"data:application/octet-stream;base64,",
		"byteLength":58752
	},
	{
		"uri":"data:application/octet-stream;base64,",
		"byteLength":57120
	},
	{
		"uri":"data:application/octet-stream;base64,",
		"byteLength":1172
	},
	{
		"uri":"data:application/octet-stream;base64,",
		"byteLength":57120
	}],
	"materials":[{
		"pbrMetallicRoughness":{
			"baseColorFactor":[0.14330940132285606,
			0.488721804511278,
			0.3720284250557298,
			1.0],
			"metallicFactor":0.0,
			"roughnessFactor":0.30000001192092898
		},
		"emissiveFactor":[0.0,
		0.0,
		0.0],
		"alphaMode":"OPAQUE",
		"doubleSided":false,
		"name":"RS OpenPBR.1"
	},
	{
		"pbrMetallicRoughness":{
			"baseColorFactor":[0.0854768500197863,
			0.2706766917293233,
			0.2078410311493015,
			1.0],
			"metallicFactor":0.0,
			"roughnessFactor":0.30000001192092898
		},
		"emissiveFactor":[0.0,
		0.0,
		0.0],
		"alphaMode":"OPAQUE",
		"doubleSided":false,
		"name":"RS OpenPBR.2"
	},
	{
		"pbrMetallicRoughness":{
			"baseColorFactor":[1.0,
			1.0,
			1.0,
			1.0],
			"metallicFactor":0.0,
			"roughnessFactor":0.30000001192092898
		},
		"emissiveFactor":[0.0,
		0.0,
		0.0],
		"alphaMode":"OPAQUE",
		"doubleSided":false,
		"name":"RS OpenPBR"
	}]
}