{
	"asset":{
		"version":"2.0",
		"generator":"Maxon Cinema 4D TRIAL 2026.0.0 (#200000219)"
	},
	"nodes":[{
		"translation":[0.0,
		0.0,
		-0.06900084018707276],
		"name":"Extrude.10",
		"rotation":[0.0,
		0.0,
		0.0,
		-1.0],
		"scale":[1.0,
		1.0,
		1.0],
		"children":[12]
	},
	{
		"name":"Extrude",
		"children":[13]
	},
	{
		"translation":[0.0,
		-0.020830513909459115,
		0.0],
		"name":"Extrude.1",
		"rotation":[0.0,
		0.0,
		0.0,
		-1.0],
		"scale":[1.0,
		1.0,
		1.0],
		"children":[14]
	},
	{
		"translation":[0.0,
		-0.020830513909459115,
		0.0],
		"name":"Extrude.2",
		"rotation":[0.0,
		0.0,
		0.0,
		-1.0],
		"scale":[1.0,
		1.0,
		1.0],
		"children":[15]
	},
	{
		"translation":[0.0,
		-0.020830513909459115,
		0.0],
		"name":"Extrude.3",
		"rotation":[0.0,
		0.0,
		0.0,
		-1.0],
		"scale":[1.0,
		1.0,
		1.0],
		"children":[16]
	},
	{
		"translation":[0.0,
		-0.020830513909459115,
		0.0],
		"name":"Extrude.4",
		"rotation":[0.0,
		0.0,
		0.0,
		-1.0],
		"scale":[1.0,
		1.0,
		1.0],
		"children":[17]
	},
	{
		"translation":[0.0,
		-0.020830513909459115,
		0.0],
		"name":"Extrude.5",
		"rotation":[0.0,
		0.0,
		0.0,
		-1.0],
		"scale":[1.0,
		1.0,
		1.0],
		"children":[18]
	},
	{
		"translation":[0.0,
		-0.020830513909459115,
		0.0],
		"name":"Extrude.6",
		"rotation":[0.0,
		0.0,
		0.0,
		-1.0],
		"scale":[1.0,
		1.0,
		1.0],
		"children":[19]
	},
	{
		"translation":[0.0,
		-0.020830513909459115,
		0.0],
		"name":"Extrude.7",
		"rotation":[0.0,
		0.0,
		0.0,
		-1.0],
		"scale":[1.0,
		1.0,
		1.0],
		"children":[20]
	},
	{
		"translation":[0.0,
		-0.020830513909459115,
		0.0],
		"name":"Extrude.8",
		"rotation":[0.0,
		0.0,
		0.0,
		-1.0],
		"scale":[1.0,
		1.0,
		1.0],
		"children":[21]
	},
	{
		"name":"Extrude.9",
		"children":[22]
	},
	{
		"translation":[0.0,
		0.0,
		-0.07365458458662033],
		"name":"Extrude.11",
		"rotation":[0.0,
		0.0,
		0.0,
		-1.0],
		"scale":[1.0,
		1.0,
		1.0],
		"children":[23]
	},
	{
		"name":"Extrude.10",
		"mesh":0
	},
	{
		"name":"Extrude",
		"mesh":1
	},
	{
		"name":"Extrude.1",
		"mesh":2
	},
	{
		"name":"Extrude.2",
		"mesh":3
	},
	{
		"name":"Extrude.3",
		"mesh":4
	},
	{
		"name":"Extrude.4",
		"mesh":5
	},
	{
		"name":"Extrude.5",
		"mesh":6
	},
	{
		"name":"Extrude.6",
		"mesh":7
	},
	{
		"name":"Extrude.7",
		"mesh":8
	},
	{
		"name":"Extrude.8",
		"mesh":9
	},
	{
		"name":"Extrude.9",
		"mesh":10
	},
	{
		"name":"Extrude.11",
		"mesh":11
	}],
	"scenes":[{
		"nodes":[0,
		1,
		2,
		3,
		4,
		5,
		6,
		7,
		8,
		9,
		10,
		11]
	}],
	"meshes":[{
		"name":"Extrude.10",
		"primitives":[{
			"attributes":{
				"POSITION":1,
				"NORMAL":2,
				"TEXCOORD_0":3
			},
			"indices":0,
			"material":0
		}]
	},
	{
		"name":"Extrude",
		"primitives":[{
			"attributes":{
				"POSITION":5,
				"NORMAL":6,
				"TEXCOORD_0":7
			},
			"indices":4,
			"material":1
		}]
	},
	{
		"name":"Extrude.1",
		"primitives":[{
			"attributes":{
				"POSITION":9,
				"NORMAL":10,
				"TEXCOORD_0":11
			},
			"indices":8,
			"material":2
		}]
	},
	{
		"name":"Extrude.2",
		"primitives":[{
			"attributes":{
				"POSITION":13,
				"NORMAL":14,
				"TEXCOORD_0":15
			},
			"indices":12,
			"material":2
		}]
	},
	{
		"name":"Extrude.3",
		"primitives":[{
			"attributes":{
				"POSITION":17,
				"NORMAL":18,
				"TEXCOORD_0":19
			},
			"indices":16,
			"material":2
		}]
	},
	{
		"name":"Extrude.4",
		"primitives":[{
			"attributes":{
				"POSITION":21,
				"NORMAL":22,
				"TEXCOORD_0":23
			},
			"indices":20,
			"material":2
		}]
	},
	{
		"name":"Extrude.5",
		"primitives":[{
			"attributes":{
				"POSITION":25,
				"NORMAL":26,
				"TEXCOORD_0":27
			},
			"indices":24,
			"material":2
		}]
	},
	{
		"name":"Extrude.6",
		"primitives":[{
			"attributes":{
				"POSITION":29,
				"NORMAL":30,
				"TEXCOORD_0":31
			},
			"indices":28,
			"material":2
		}]
	},
	{
		"name":"Extrude.7",
		"primitives":[{
			"attributes":{
				"POSITION":33,
				"NORMAL":34,
				"TEXCOORD_0":35
			},
			"indices":32,
			"material":2
		}]
	},
	{
		"name":"Extrude.8",
		"primitives":[{
			"attributes":{
				"POSITION":37,
				"NORMAL":38,
				"TEXCOORD_0":39
			},
			"indices":36,
			"material":2
		}]
	},
	{
		"name":"Extrude.9",
		"primitives":[{
			"attributes":{
				"POSITION":41,
				"NORMAL":42,
				"TEXCOORD_0":43
			},
			"indices":40,
			"material":1
		}]
	},
	{
		"name":"Extrude.11",
		"primitives":[{
			"attributes":{
				"POSITION":45,
				"NORMAL":46,
				"TEXCOORD_0":47
			},
			"indices":44,
			"material":1
		}]
	}],
	"accessors":[{
		"count":828,
		"bufferView":0,
		"type":"SCALAR",
		"max":[827],
		"componentType":5123,
		"byteOffset":0,
		"min":[0]
	},
	{
		"count":828,
		"bufferView":1,
		"type":"VEC3",
		"max":[0.710127592086792,
		0.20184113085269929,
		0.07000000029802323],
		"componentType":5126,
		"byteOffset":0,
		"min":[0.0,
		0.0,
		0.0]
	},
	{
		"count":828,
		"bufferView":1,
		"type":"VEC3",
		"max":[0.9998700022697449,
		1.0,
		1.0],
		"componentType":5126,
		"byteOffset":12,
		"min":[-0.9998700022697449,
		-1.0,
		-1.0]
	},
	{
		"count":828,
		"bufferView":1,
		"type":"VEC2",
		"max":[1.0,
		1.0],
		"componentType":5126,
		"byteOffset":24,
		"min":[0.0,
		0.0]
	},
	{
		"count":828,
		"bufferView":2,
		"type":"SCALAR",
		"max":[827],
		"componentType":5123,
		"byteOffset":0,
		"min":[0]
	},
	{
		"count":828,
		"bufferView":3,
		"type":"VEC3",
		"max":[0.6899434328079224,
		0.18165701627731324,
		0.004999999888241291],
		"componentType":5126,
		"byteOffset":0,
		"min":[0.4477340877056122,
		0.020184112712740899,
		0.0]
	},
	{
		"count":828,
		"bufferView":3,
		"type":"VEC3",
		"max":[0.9998700022697449,
		1.0,
		1.0],
		"componentType":5126,
		"byteOffset":12,
		"min":[-0.9998700022697449,
		-1.0,
		-1.0]
	},
	{
		"count":828,
		"bufferView":3,
		"type":"VEC2",
		"max":[1.0,
		1.0],
		"componentType":5126,
		"byteOffset":24,
		"min":[0.0,
		0.0]
	},
	{
		"count":624,
		"bufferView":4,
		"type":"SCALAR",
		"max":[623],
		"componentType":5123,
		"byteOffset":0,
		"min":[0]
	},
	{
		"count":624,
		"bufferView":5,
		"type":"VEC3",
		"max":[0.3998977541923523,
		0.15854620933532716,
		0.004999999888241291],
		"componentType":5126,
		"byteOffset":0,
		"min":[0.37300240993499758,
		0.10087010264396668,
		0.0]
	},
	{
		"count":624,
		"bufferView":5,
		"type":"VEC3",
		"max":[1.0,
		1.0,
		1.0],
		"componentType":5126,
		"byteOffset":12,
		"min":[-1.0,
		-1.0,
		-1.0]
	},
	{
		"count":624,
		"bufferView":5,
		"type":"VEC2",
		"max":[1.0,
		1.0],
		"componentType":5126,
		"byteOffset":24,
		"min":[0.0,
		0.0]
	},
	{
		"count":1824,
		"bufferView":6,
		"type":"SCALAR",
		"max":[1823],
		"componentType":5123,
		"byteOffset":0,
		"min":[0]
	},
	{
		"count":1824,
		"bufferView":7,
		"type":"VEC3",
		"max":[0.36987388134002688,
		0.14381180703639985,
		0.004999999888241291],
		"componentType":5126,
		"byteOffset":0,
		"min":[0.3267807960510254,
		0.09991136193275452,
		0.0]
	},
	{
		"count":1824,
		"bufferView":7,
		"type":"VEC3",
		"max":[0.9999960660934448,
		0.9999920129776001,
		1.0],
		"componentType":5126,
		"byteOffset":12,
		"min":[-0.999984622001648,
		-0.9999385476112366,
		-1.0]
	},
	{
		"count":1824,
		"bufferView":7,
		"type":"VEC2",
		"max":[1.0,
		1.0],
		"componentType":5126,
		"byteOffset":24,
		"min":[0.0,
		0.0]
	},
	{
		"count":876,
		"bufferView":8,
		"type":"SCALAR",
		"max":[875],
		"componentType":5123,
		"byteOffset":0,
		"min":[0]
	},
	{
		"count":876,
		"bufferView":9,
		"type":"VEC3",
		"max":[0.2968578338623047,
		0.15854620933532716,
		0.004999999888241291],
		"componentType":5126,
		"byteOffset":0,
		"min":[0.257700651884079,
		0.10087010264396668,
		0.0]
	},
	{
		"count":876,
		"bufferView":9,
		"type":"VEC3",
		"max":[1.0,
		1.0,
		1.0],
		"componentType":5126,
		"byteOffset":12,
		"min":[-1.0,
		-1.0,
		-1.0]
	},
	{
		"count":876,
		"bufferView":9,
		"type":"VEC2",
		"max":[1.0,
		1.0],
		"componentType":5126,
		"byteOffset":24,
		"min":[0.0,
		0.0]
	},
	{
		"count":624,
		"bufferView":10,
		"type":"SCALAR",
		"max":[623],
		"componentType":5123,
		"byteOffset":0,
		"min":[0]
	},
	{
		"count":624,
		"bufferView":11,
		"type":"VEC3",
		"max":[0.2522509694099426,
		0.15516537427902223,
		0.004999999888241291],
		"componentType":5126,
		"byteOffset":0,
		"min":[0.22540608048439027,
		0.10051688551902771,
		0.0]
	},
	{
		"count":624,
		"bufferView":11,
		"type":"VEC3",
		"max":[1.0,
		1.0,
		1.0],
		"componentType":5126,
		"byteOffset":12,
		"min":[-1.0,
		-1.0,
		-1.0]
	},
	{
		"count":624,
		"bufferView":11,
		"type":"VEC2",
		"max":[1.0,
		1.0],
		"componentType":5126,
		"byteOffset":24,
		"min":[0.0,
		0.0]
	},
	{
		"count":2580,
		"bufferView":12,
		"type":"SCALAR",
		"max":[2579],
		"componentType":5123,
		"byteOffset":0,
		"min":[0]
	},
	{
		"count":2580,
		"bufferView":13,
		"type":"VEC3",
		"max":[0.22010774910449983,
		0.14381180703639985,
		0.004999999888241291],
		"componentType":5126,
		"byteOffset":0,
		"min":[0.1787303239107132,
		0.08517695963382721,
		0.0]
	},
	{
		"count":2580,
		"bufferView":13,
		"type":"VEC3",
		"max":[1.0,
		1.0,
		1.0],
		"componentType":5126,
		"byteOffset":12,
		"min":[-1.0,
		-1.0,
		-1.0]
	},
	{
		"count":2580,
		"bufferView":13,
		"type":"VEC2",
		"max":[1.0,
		1.0],
		"componentType":5126,
		"byteOffset":24,
		"min":[0.0,
		0.0]
	},
	{
		"count":900,
		"bufferView":14,
		"type":"SCALAR",
		"max":[899],
		"componentType":5123,
		"byteOffset":0,
		"min":[0]
	},
	{
		"count":900,
		"bufferView":15,
		"type":"VEC3",
		"max":[0.17131265997886659,
		0.14381180703639985,
		0.004999999888241291],
		"componentType":5126,
		"byteOffset":0,
		"min":[0.13215547800064088,
		0.10087010264396668,
		0.0]
	},
	{
		"count":900,
		"bufferView":15,
		"type":"VEC3",
		"max":[1.0,
		1.0,
		1.0],
		"componentType":5126,
		"byteOffset":12,
		"min":[-1.0,
		-1.0,
		-1.0]
	},
	{
		"count":900,
		"bufferView":15,
		"type":"VEC2",
		"max":[1.0,
		1.0],
		"componentType":5126,
		"byteOffset":24,
		"min":[0.0,
		0.0]
	},
	{
		"count":1704,
		"bufferView":16,
		"type":"SCALAR",
		"max":[1703],
		"componentType":5123,
		"byteOffset":0,
		"min":[0]
	},
	{
		"count":1704,
		"bufferView":17,
		"type":"VEC3",
		"max":[0.12530915439128877,
		0.14376135170459748,
		0.004999999888241291],
		"componentType":5126,
		"byteOffset":0,
		"min":[0.08366315066814423,
		0.09981044381856919,
		0.0]
	},
	{
		"count":1704,
		"bufferView":17,
		"type":"VEC3",
		"max":[0.9999493956565857,
		1.0,
		1.0],
		"componentType":5126,
		"byteOffset":12,
		"min":[-0.9999207854270935,
		-1.0,
		-1.0]
	},
	{
		"count":1704,
		"bufferView":17,
		"type":"VEC2",
		"max":[1.0,
		1.0],
		"componentType":5126,
		"byteOffset":24,
		"min":[0.0,
		0.0]
	},
	{
		"count":36,
		"bufferView":18,
		"type":"SCALAR",
		"max":[35],
		"componentType":5123,
		"byteOffset":0,
		"min":[0]
	},
	{
		"count":36,
		"bufferView":19,
		"type":"VEC3",
		"max":[0.0766996294260025,
		0.15854620933532716,
		0.004999999888241291],
		"componentType":5126,
		"byteOffset":0,
		"min":[0.0652451440691948,
		0.10092056542634964,
		0.0]
	},
	{
		"count":36,
		"bufferView":19,
		"type":"VEC3",
		"max":[1.0,
		1.0,
		1.0],
		"componentType":5126,
		"byteOffset":12,
		"min":[-1.0,
		-1.0,
		-1.0]
	},
	{
		"count":36,
		"bufferView":19,
		"type":"VEC2",
		"max":[1.0,
		1.0],
		"componentType":5126,
		"byteOffset":24,
		"min":[0.0,
		0.0]
	},
	{
		"count":1680,
		"bufferView":20,
		"type":"SCALAR",
		"max":[1679],
		"componentType":5123,
		"byteOffset":0,
		"min":[0]
	},
	{
		"count":1680,
		"bufferView":21,
		"type":"VEC3",
		"max":[0.7126505970954895,
		0.20436415076255799,
		0.004999999888241291],
		"componentType":5126,
		"byteOffset":0,
		"min":[-0.0025230140890926124,
		-0.0025230140890926124,
		0.0]
	},
	{
		"count":1680,
		"bufferView":21,
		"type":"VEC3",
		"max":[0.9998685717582703,
		1.0,
		1.0],
		"componentType":5126,
		"byteOffset":12,
		"min":[-0.9998695254325867,
		-1.0,
		-1.0]
	},
	{
		"count":1680,
		"bufferView":21,
		"type":"VEC2",
		"max":[1.0,
		1.0],
		"componentType":5126,
		"byteOffset":24,
		"min":[0.0,
		0.0]
	},
	{
		"count":1680,
		"bufferView":22,
		"type":"SCALAR",
		"max":[1679],
		"componentType":5123,
		"byteOffset":0,
		"min":[0]
	},
	{
		"count":1680,
		"bufferView":23,
		"type":"VEC3",
		"max":[0.7126505970954895,
		0.20436415076255799,
		0.004999999888241291],
		"componentType":5126,
		"byteOffset":0,
		"min":[-0.0025230140890926124,
		-0.0025230140890926124,
		0.0]
	},
	{
		"count":1680,
		"bufferView":23,
		"type":"VEC3",
		"max":[0.9998685717582703,
		1.0,
		1.0],
		"componentType":5126,
		"byteOffset":12,
		"min":[-0.9998695254325867,
		-1.0,
		-1.0]
	},
	{
		"count":1680,
		"bufferView":23,
		"type":"VEC2",
		"max":[1.0,
		1.0],
		"componentType":5126,
		"byteOffset":24,
		"min":[0.0,
		0.0]
	}],
	"bufferViews":[{
		"buffer":0,
		"byteOffset":0,
		"byteLength":1656,
		"target":34963
	},
	{
		"buffer":0,
		"byteOffset":1656,
		"byteLength":26496,
		"target":34962,
		"byteStride":32
	},
	{
		"buffer":1,
		"byteOffset":0,
		"byteLength":1656,
		"target":34963
	},
	{
		"buffer":1,
		"byteOffset":1656,
		"byteLength":26496,
		"target":34962,
		"byteStride":32
	},
	{
		"buffer":2,
		"byteOffset":0,
		"byteLength":1248,
		"target":34963
	},
	{
		"buffer":2,
		"byteOffset":1248,
		"byteLength":19968,
		"target":34962,
		"byteStride":32
	},
	{
		"buffer":3,
		"byteOffset":0,
		"byteLength":3648,
		"target":34963
	},
	{
		"buffer":3,
		"byteOffset":3648,
		"byteLength":58368,
		"target":34962,
		"byteStride":32
	},
	{
		"buffer":4,
		"byteOffset":0,
		"byteLength":1752,
		"target":34963
	},
	{
		"buffer":4,
		"byteOffset":1752,
		"byteLength":28032,
		"target":34962,
		"byteStride":32
	},
	{
		"buffer":5,
		"byteOffset":0,
		"byteLength":1248,
		"target":34963
	},
	{
		"buffer":5,
		"byteOffset":1248,
		"byteLength":19968,
		"target":34962,
		"byteStride":32
	},
	{
		"buffer":6,
		"byteOffset":0,
		"byteLength":5160,
		"target":34963
	},
	{
		"buffer":6,
		"byteOffset":5160,
		"byteLength":82560,
		"target":34962,
		"byteStride":32
	},
	{
		"buffer":7,
		"byteOffset":0,
		"byteLength":1800,
		"target":34963
	},
	{
		"buffer":7,
		"byteOffset":1800,
		"byteLength":28800,
		"target":34962,
		"byteStride":32
	},
	{
		"buffer":8,
		"byteOffset":0,
		"byteLength":3408,
		"target":34963
	},
	{
		"buffer":8,
		"byteOffset":3408,
		"byteLength":54528,
		"target":34962,
		"byteStride":32
	},
	{
		"buffer":9,
		"byteOffset":0,
		"byteLength":72,
		"target":34963
	},
	{
		"buffer":9,
		"byteOffset":72,
		"byteLength":1152,
		"target":34962,
		"byteStride":32
	},
	{
		"buffer":10,
		"byteOffset":0,
		"byteLength":3360,
		"target":34963
	},
	{
		"buffer":10,
		"byteOffset":3360,
		"byteLength":53760,
		"target":34962,
		"byteStride":32
	},
	{
		"buffer":11,
		"byteOffset":0,
		"byteLength":3360,
		"target":34963
	},
	{
		"buffer":11,
		"byteOffset":3360,
		"byteLength":53760,
		"target":34962,
		"byteStride":32
	}],
	"buffers":[{
		"uri":"data:application/octet-stream;base64,",
		"byteLength":28152
	},
	{
		"uri":"data:application/octet-stream;base64,",
		"byteLength":28152
	},
	{
		"uri":"data:application/octet-stream;base64,",
		"byteLength":21216
	},
	{
		"uri":"data:application/octet-stream;base64,",
		"byteLength":62016
	},
	{
		"uri":"data:application/octet-stream;base64,",
		"byteLength":29784
	},
	{
		"uri":"data:application/octet-stream;base64,",
		"byteLength":21216
	},
	{
		"uri":"data:application/octet-stream;base64,",
		"byteLength":87720
	},
	{
		"uri":"data:application/octet-stream;base64,",
		"byteLength":30600
	},
	{
		"uri":"data:application/octet-stream;base64,",
		"byteLength":57936
	},
	{
		"uri":"data:application/octet-stream;base64,",
		"byteLength":1224
	},
	{
		"uri":"data:application/octet-stream;base64,",
		"byteLength":57120
	},
	{
		"uri":"data:application/octet-stream;base64,",
		"byteLength":57120
	}],
	"materials":[{
		"pbrMetallicRoughness":{
			"baseColorFactor":[0.14509803921568616,
			0.4901960784313726,
			0.3725490196078432,
			1.0],
			"metallicFactor":0.0,
			"roughnessFactor":0.30000001192092898
		},
		"emissiveFactor":[0.0,
		0.0,
		0.0],
		"alphaMode":"OPAQUE",
		"doubleSided":false,
		"name":"RS OpenPBR"
	},
	{
		"pbrMetallicRoughness":{
			"baseColorFactor":[0.08627450980392158,
			0.2705882352941174,
			0.20784313725490193,
			1.0],
			"metallicFactor":0.0,
			"roughnessFactor":0.30000001192092898
		},
		"emissiveFactor":[0.0,
		0.0,
		0.0],
		"alphaMode":"OPAQUE",
		"doubleSided":false,
		"name":"RS OpenPBR.1"
	},
	{
		"pbrMetallicRoughness":{
			"baseColorFactor":[1.0,
			1.0,
			1.0,
			1.0],
			"metallicFactor":0.0,
			"roughnessFactor":0.30000001192092898
		},
		"emissiveFactor":[0.0,
		0.0,
		0.0],
		"alphaMode":"OPAQUE",
		"doubleSided":false,
		"name":"RS OpenPBR.2"
	}]
}